<svg width="80" height="80" viewBox="0 0 80 80" fill="none" xmlns="http://www.w3.org/2000/svg">
<g id="budgeting">
<path id="Vector" fill-rule="evenodd" clip-rule="evenodd" d="M42.2052 44.6454H28.7227C27.8483 44.6435 27.0102 44.2954 26.3919 43.6771C25.7736 43.0588 25.4254 42.2207 25.4236 41.3463V5.79988C25.4255 4.9255 25.7736 4.08747 26.3919 3.4692C27.0102 2.85093 27.8483 2.50279 28.7227 2.50098H54.1802C55.0545 2.50283 55.8925 2.85099 56.5108 3.46926C57.1291 4.08752 57.4772 4.92553 57.4791 5.79988V32.0827C58.9252 32.9463 60.1424 34.1449 61.0281 35.5775C61.9138 37.0102 62.442 38.6348 62.5682 40.3143C62.6944 41.9939 62.4148 43.6792 61.7531 45.2281C61.0914 46.777 60.0669 48.144 58.766 49.2139C57.4652 50.2839 55.9261 51.0253 54.2787 51.3756C52.6312 51.726 50.9236 51.6751 49.3 51.2272C47.6763 50.7793 46.1842 49.9475 44.9494 48.8019C43.7146 47.6564 42.7734 46.2308 42.2052 44.6452V44.6454ZM19.4053 77.0332C19.4749 77.1438 19.5656 77.2396 19.6722 77.3152C19.7789 77.3908 19.8993 77.4446 20.0268 77.4737C20.1542 77.5027 20.2861 77.5063 20.4149 77.4844C20.5438 77.4624 20.667 77.4153 20.7777 77.3457L29.0609 72.1043C29.2844 71.9637 29.4428 71.7402 29.5014 71.4828C29.56 71.2254 29.514 70.9553 29.3734 70.7319L28.7172 69.6954L29.5003 69.2385L44.9209 71.466C46.9596 71.7873 49.0445 71.3307 50.7622 70.1866L71.7703 58.0603C72.5374 57.6256 73.1589 56.974 73.5568 56.1872C73.9547 55.4004 74.1112 54.5135 74.0067 53.6381C73.9022 52.7626 73.5413 51.9375 72.9694 51.2665C72.3975 50.5955 71.64 50.1084 70.7922 49.8664C69.65 49.5541 68.432 49.685 67.3822 50.2327L54.923 56.6871C54.3752 55.762 53.5124 55.0653 52.4927 54.7247L35.1319 48.911C33.3514 48.2934 31.4132 48.3037 29.6394 48.9404L18.112 52.9354L16.0781 49.7197C15.9376 49.4963 15.714 49.3379 15.4567 49.2793C15.1993 49.2207 14.9292 49.2667 14.7058 49.4072L6.42188 54.6493C6.31125 54.7188 6.2154 54.8095 6.13982 54.9162C6.06424 55.0228 6.0104 55.1433 5.98138 55.2707C5.95236 55.3981 5.94873 55.53 5.97069 55.6589C5.99266 55.7877 6.03978 55.911 6.10939 56.0216L19.4053 77.0332Z" fill="black"/>
<path id="Vector_2" fill-rule="evenodd" clip-rule="evenodd" d="M46.1481 32.7731V27.51C46.1481 27.2453 46.2533 26.9914 46.4405 26.8042C46.6277 26.617 46.8816 26.5119 47.1463 26.5119H52.2794C52.5441 26.5119 52.798 26.6171 52.9851 26.8043C53.1723 26.9914 53.2775 27.2453 53.2775 27.51V30.8331C54.0955 30.9087 54.9017 31.0806 55.6794 31.3452V5.98625C55.6777 5.64126 55.5399 5.31087 55.2959 5.06694C55.052 4.823 54.7216 4.68524 54.3766 4.68359H28.9191C28.5741 4.68528 28.2437 4.82306 27.9998 5.06698C27.7558 5.31091 27.618 5.64127 27.6163 5.98625V41.5331C27.618 41.8781 27.7558 42.2085 27.9997 42.4525C28.2437 42.6965 28.5741 42.8343 28.9191 42.8359H41.9035C41.8023 42.1473 41.7691 41.4503 41.8042 40.7552H39.1525C38.8878 40.7552 38.6339 40.65 38.4467 40.4628C38.2596 40.2756 38.1544 40.0218 38.1544 39.757V35.0575C38.1544 34.7928 38.2596 34.5389 38.4467 34.3517C38.6339 34.1645 38.8878 34.0594 39.1525 34.0594H44.2855C44.723 34.0594 44.5011 34.2305 44.8671 33.8645C45.2644 33.4672 45.6929 33.1023 46.1483 32.7731H46.1481ZM31.1588 7.42937H52.2794C52.5441 7.42942 52.798 7.53459 52.9851 7.72177C53.1723 7.90894 53.2775 8.16279 53.2775 8.4275V16.1267C53.2775 16.3914 53.1723 16.6453 52.9851 16.8325C52.798 17.0196 52.5441 17.1248 52.2794 17.1248H31.1588C30.8941 17.1248 30.6402 17.0196 30.453 16.8325C30.2659 16.6453 30.1607 16.3914 30.1606 16.1267V8.42781C30.1607 8.16311 30.2659 7.90925 30.453 7.72208C30.6402 7.5349 30.8941 7.42973 31.1588 7.42969V7.42937ZM31.1588 18.9641H36.2917C36.5565 18.9641 36.8103 19.0692 36.9975 19.2564C37.1847 19.4436 37.2899 19.6975 37.2899 19.9622V24.6612C37.2899 24.926 37.1847 25.1798 36.9975 25.367C36.8103 25.5542 36.5565 25.6594 36.2917 25.6594H31.1588C30.8941 25.6594 30.6402 25.5542 30.453 25.367C30.2658 25.1798 30.1606 24.926 30.1606 24.6612V19.9625C30.1606 19.6978 30.2658 19.4439 30.453 19.2567C30.6402 19.0695 30.8941 18.9644 31.1588 18.9644V18.9641ZM39.1525 18.9641H44.2855C44.5502 18.9641 44.8041 19.0692 44.9913 19.2564C45.1785 19.4436 45.2836 19.6975 45.2836 19.9622V24.6612C45.2836 24.926 45.1785 25.1798 44.9913 25.367C44.8041 25.5542 44.5502 25.6594 44.2855 25.6594H39.1525C38.8878 25.6594 38.6339 25.5542 38.4467 25.367C38.2596 25.1798 38.1544 24.926 38.1544 24.6612V19.9625C38.1544 19.6978 38.2596 19.4439 38.4467 19.2567C38.6339 19.0695 38.8878 18.9644 39.1525 18.9644V18.9641ZM47.1463 18.9641H52.2794C52.5441 18.9641 52.798 19.0693 52.9851 19.2565C53.1723 19.4436 53.2775 19.6975 53.2775 19.9622V24.6612C53.2775 24.926 53.1723 25.1798 52.9851 25.367C52.798 25.5542 52.5441 25.6593 52.2794 25.6594H47.1463C46.8816 25.6594 46.6277 25.5542 46.4405 25.367C46.2533 25.1798 46.1481 24.926 46.1481 24.6612V19.9625C46.1481 19.6978 46.2533 19.4439 46.4405 19.2567C46.6277 19.0695 46.8816 18.9644 47.1463 18.9644V18.9641ZM31.1588 26.5109H36.2917C36.5565 26.5109 36.8103 26.6161 36.9975 26.8033C37.1847 26.9905 37.2899 27.2443 37.2899 27.5091V32.2081C37.2899 32.4728 37.1847 32.7267 36.9975 32.9139C36.8103 33.1011 36.5565 33.2062 36.2917 33.2062H31.1588C30.8941 33.2062 30.6402 33.1011 30.453 32.9139C30.2658 32.7267 30.1606 32.4728 30.1606 32.2081V27.51C30.1606 27.2453 30.2658 26.9914 30.453 26.8042C30.6402 26.617 30.8941 26.5119 31.1588 26.5119V26.5109ZM39.1525 26.5109H44.2855C44.5502 26.5109 44.8041 26.6161 44.9913 26.8033C45.1785 26.9905 45.2836 27.2443 45.2836 27.5091V32.2081C45.2836 32.4728 45.1785 32.7267 44.9913 32.9139C44.8041 33.1011 44.5502 33.2062 44.2855 33.2062H39.1525C38.8878 33.2062 38.6339 33.1011 38.4467 32.9139C38.2596 32.7267 38.1544 32.4728 38.1544 32.2081V27.51C38.1544 27.2453 38.2596 26.9914 38.4467 26.8042C38.6339 26.617 38.8878 26.5119 39.1525 26.5119V26.5109ZM31.1588 34.0578H36.2917C36.5565 34.0578 36.8103 34.163 36.9975 34.3502C37.1847 34.5373 37.2899 34.7912 37.2899 35.0559V39.755C37.2899 40.0197 37.1847 40.2736 36.9975 40.4608C36.8103 40.648 36.5565 40.7531 36.2917 40.7531H31.1588C30.8941 40.7531 30.6402 40.648 30.453 40.4608C30.2658 40.2736 30.1606 40.0197 30.1606 39.755V35.0575C30.1606 34.9264 30.1865 34.7966 30.2366 34.6755C30.2868 34.5544 30.3603 34.4444 30.453 34.3517C30.5457 34.259 30.6557 34.1855 30.7768 34.1354C30.8979 34.0852 31.0277 34.0594 31.1588 34.0594V34.0578Z" fill="#28A59D"/>
<path id="Vector_3" d="M32.1569 9.42578H51.2812V15.1286H32.1569V9.42578Z" fill="white"/>
<g id="Group">
<path id="Vector_4" fill-rule="evenodd" clip-rule="evenodd" d="M51.2812 30.8369V28.5088H48.1443V31.6411C49.1418 31.2115 50.2001 30.9402 51.2812 30.8369Z" fill="#28A59D"/>
<path id="Vector_5" fill-rule="evenodd" clip-rule="evenodd" d="M43.1875 36.0557H40.1506V38.7588H42.098C42.333 37.8112 42.6997 36.9013 43.1875 36.0557Z" fill="#28A59D"/>
<path id="Vector_6" d="M32.1569 36.0557H35.2936V38.7585H32.1569V36.0557Z" fill="#28A59D"/>
<path id="Vector_7" d="M40.1506 28.5088H43.2874V31.2116H40.1506V28.5088Z" fill="#28A59D"/>
<path id="Vector_8" d="M32.1569 28.5088H35.2936V31.2116H32.1569V28.5088Z" fill="#28A59D"/>
<path id="Vector_9" d="M48.1443 20.9609H51.2811V23.6639H48.1443V20.9609Z" fill="#28A59D"/>
<path id="Vector_10" d="M40.1506 20.9609H43.2874V23.6639H40.1506V20.9609Z" fill="#28A59D"/>
<path id="Vector_11" d="M32.1569 20.9609H35.2936V23.6639H32.1569V20.9609Z" fill="#28A59D"/>
<path id="Vector_12" fill-rule="evenodd" clip-rule="evenodd" d="M58.3109 35.2765C56.919 33.8845 55.0874 33.0182 53.1284 32.8252C51.1693 32.6322 49.2039 33.1244 47.5671 34.2181C45.9303 35.3117 44.7234 36.9391 44.152 38.8229C43.5805 40.7067 43.68 42.7303 44.4333 44.549C45.1867 46.3677 46.5474 47.8689 48.2835 48.7968C50.0196 49.7247 52.0238 50.0219 53.9545 49.6378C55.8852 49.2537 57.623 48.212 58.8717 46.6902C60.1205 45.1684 60.8029 43.2607 60.8028 41.2922C60.8042 40.1747 60.5847 39.0681 60.1571 38.0357C59.7295 37.0033 59.102 36.0657 58.3109 35.2765ZM55.5225 38.189C55.5815 38.3058 55.6169 38.4332 55.6265 38.5637C55.6362 38.6942 55.6201 38.8253 55.5789 38.9496C55.5378 39.0738 55.4725 39.1887 55.3869 39.2877C55.3012 39.3867 55.1969 39.4677 55.0798 39.5263C54.9628 39.5848 54.8353 39.6196 54.7047 39.6288C54.5742 39.6379 54.4431 39.6211 54.319 39.5795C54.195 39.5378 54.0803 39.4721 53.9817 39.386C53.8831 39.2999 53.8025 39.1953 53.7445 39.0779C53.5988 38.8273 53.3679 38.6373 53.0939 38.5426C52.7336 38.4025 52.3399 38.3722 51.9625 38.4556C51.6122 38.5143 51.2973 38.7038 51.0814 38.9858C51.0282 39.0581 50.9905 39.1406 50.9707 39.2282C50.9509 39.3158 50.9494 39.4065 50.9662 39.4947C51.1048 40.1398 51.924 40.2483 52.4611 40.3398C53.6943 40.5501 54.9279 40.7604 55.4937 42.4601C55.6252 42.8468 55.6629 43.2591 55.6037 43.6631C55.5445 44.0672 55.3901 44.4514 55.1532 44.784C54.7349 45.3729 54.136 45.8093 53.4473 46.0272C53.3947 46.0447 53.3432 46.0609 53.2928 46.0758V46.9612C53.2928 47.2259 53.1876 47.4798 53.0004 47.667C52.8132 47.8542 52.5594 47.9594 52.2947 47.9594C52.0299 47.9594 51.7761 47.8542 51.5889 47.667C51.4017 47.4798 51.2965 47.2259 51.2965 46.9612V46.1234C51.1119 46.08 50.9307 46.0228 50.7545 45.9525C50.0287 45.6765 49.4287 45.145 49.067 44.4579C48.9504 44.2223 48.932 43.9501 49.0156 43.7009C49.0993 43.4517 49.2783 43.2458 49.5134 43.1283C49.7485 43.0107 50.0206 42.9911 50.2702 43.0737C50.5197 43.1563 50.7264 43.3344 50.845 43.569C50.9907 43.8196 51.2216 44.0096 51.4956 44.1044C51.8559 44.2446 52.2497 44.2748 52.6271 44.1912C52.9774 44.1326 53.2923 43.9432 53.5082 43.6612C53.5675 43.5788 53.6071 43.484 53.6242 43.3839C53.6413 43.2839 53.6354 43.1813 53.607 43.0839C53.4212 42.5256 52.7734 42.4153 52.1261 42.3048C50.5826 42.0418 49.3871 41.6264 49.0167 39.9079C48.9416 39.5566 48.9401 39.1934 49.0123 38.8415C49.0844 38.4895 49.2287 38.1563 49.4361 37.8628C49.8883 37.2302 50.5458 36.7738 51.2965 36.5712V35.6243C51.2965 35.3596 51.4017 35.1058 51.5889 34.9186C51.7761 34.7314 52.0299 34.6262 52.2947 34.6262C52.5594 34.6262 52.8132 34.7314 53.0004 34.9186C53.1876 35.1058 53.2928 35.3596 53.2928 35.6243V36.5236C53.4774 36.567 53.6585 36.6242 53.8346 36.6945C54.5605 36.9705 55.1607 37.5019 55.5225 38.189Z" fill="#28A59D"/>
<path id="Vector_13" fill-rule="evenodd" clip-rule="evenodd" d="M8.52155 55.9868L20.7528 75.3163L27.354 71.1393L15.1228 51.8096L8.52155 55.9868Z" fill="#28A59D"/>
</g>
<path id="Vector_14" fill-rule="evenodd" clip-rule="evenodd" d="M19.4001 54.8472L27.8478 68.1975L28.965 67.5458C29.1648 67.4196 29.403 67.3688 29.6369 67.4025L45.3984 69.6792C47.2109 69.9411 48.3767 69.5663 49.9262 68.6739C56.9391 64.6252 63.9423 60.5089 70.9844 56.5158C71.2693 56.3541 71.5194 56.1377 71.7205 55.8791C71.9216 55.6205 72.0697 55.3247 72.1562 55.0088C72.2455 54.6978 72.2723 54.3722 72.2351 54.0508C72.1979 53.7295 72.0975 53.4186 71.9396 53.1362C71.7817 52.8539 71.5695 52.6055 71.3152 52.4055C71.0608 52.2056 70.7695 52.0579 70.4578 51.9711C69.7978 51.7934 69.095 51.8715 68.4901 52.1898L55.7355 58.7992C55.8937 60.6898 54.7805 62.3433 53.0767 63.1922C52.5801 63.4457 52.0376 63.5968 51.4815 63.6364C50.9253 63.676 50.3669 63.6033 49.8394 63.4227L37.1576 59.1755C37.0326 59.1349 36.9169 59.07 36.8171 58.9844C36.7173 58.8989 36.6354 58.7944 36.5762 58.677C36.5171 58.5597 36.4817 58.4318 36.4722 58.3007C36.4628 58.1696 36.4794 58.0379 36.5211 57.9132C36.5628 57.7886 36.6288 57.6734 36.7153 57.5744C36.8018 57.4754 36.907 57.3946 37.0249 57.3365C37.1428 57.2784 37.2711 57.2442 37.4023 57.236C37.5334 57.2277 37.665 57.2456 37.7892 57.2884L50.4711 61.5356C50.7513 61.6303 51.0477 61.6676 51.3426 61.6454C51.6375 61.6232 51.9249 61.5419 52.1878 61.4064C53.4717 60.7667 54.1689 59.4144 53.4928 58.0573C53.348 57.7637 53.1466 57.5015 52.9003 57.2859C52.6539 57.0702 52.3674 56.9053 52.0572 56.8006L34.6967 50.9845C33.3319 50.5044 31.843 50.512 30.4831 51.0059L19.4001 54.8472Z" fill="white"/>
</g>
</svg>
