<svg width="24" height="24" viewBox="0 0 24 24" fill="none" xmlns="http://www.w3.org/2000/svg">
<g id="shipping 1">
<path id="Vector" d="M11 13.6136C11 13.2757 10.7235 13 10.3864 13H7.31818V15.4545C7.31818 15.9062 6.95164 16.2727 6.5 16.2727C6.04836 16.2727 5.68182 15.9062 5.68182 15.4545V13H2.61364C2.27573 13 2 13.2757 2 13.6136V21.3864C2 21.7243 2.27573 22 2.61364 22H10.3864C10.7235 22 11 21.7243 11 21.3864V13.6136Z" fill="#28A59D"/>
<path id="Vector_2" d="M22 13.6136C22 13.2757 21.7235 13 21.3864 13H18.3182V15.4545C18.3182 15.9062 17.9516 16.2727 17.5 16.2727C17.0484 16.2727 16.6818 15.9062 16.6818 15.4545V13H13.6136C13.2757 13 13 13.2757 13 13.6136V21.3864C13 21.7243 13.2757 22 13.6136 22H21.3864C21.7235 22 22 21.7243 22 21.3864V13.6136Z" fill="#28A59D"/>
<path id="Vector_3" d="M16 2.68182C16 2.30727 15.7542 2 15.4545 2H12.7273V4.72727C12.7273 5.22909 12.4015 5.63636 12 5.63636C11.5985 5.63636 11.2727 5.22909 11.2727 4.72727V2H8.54545C8.24509 2 8 2.30727 8 2.68182V11.3182C8 11.6936 8.24509 12 8.54545 12H15.4545C15.7542 12 16 11.6936 16 11.3182V2.68182Z" fill="#28A59D"/>
</g>
</svg>
