<svg width="81" height="80" viewBox="0 0 81 80" fill="none" xmlns="http://www.w3.org/2000/svg">
<g id="statistics">
<g id="Group">
<path id="Vector" fill-rule="evenodd" clip-rule="evenodd" d="M19.5731 4.76094C14.3579 4.76094 10.1147 9.00437 10.1147 14.2194C10.1147 19.4348 14.3576 23.6786 19.5731 23.6786C24.7887 23.6786 29.0315 19.4348 29.0315 14.2194C29.0315 9.00437 24.7882 4.76094 19.5731 4.76094ZM8.47934 56.0239H18.1668V72.1873H8.47934V56.0239ZM28.264 45.4659H37.9523V72.1875H28.264V45.4659ZM48.0492 50.8052H57.7367V72.1873H48.0492V50.8052ZM67.8337 40.6252H77.5228V72.1875H67.8337V40.6252ZM30.6667 14.2194C30.6667 20.3369 25.6904 25.313 19.5731 25.313C13.4553 25.313 8.4795 20.337 8.4795 14.2194C8.4795 8.10203 13.4556 3.125 19.5731 3.125C25.6903 3.125 30.6667 8.1025 30.6667 14.2194Z" fill="#28A59D"/>
<path id="Vector_2" fill-rule="evenodd" clip-rule="evenodd" d="M16.1042 12.1378C16.1042 10.7269 17.0915 9.52406 18.4598 9.09391L18.4511 8.73656C18.437 8.13156 18.9142 7.63156 19.5186 7.61609C20.1178 7.60359 20.6236 8.08 20.6384 8.68297L20.6487 9.11313C21.3892 9.3425 22.1884 9.78 22.5934 10.3977C22.925 10.902 22.7853 11.5798 22.2803 11.9114C21.7759 12.2423 21.0981 12.1033 20.7658 11.5975C20.6247 11.4225 19.9187 11.1116 19.5731 11.1116C18.8665 11.1116 18.2917 11.5727 18.2917 12.138C18.2917 12.7034 18.8667 13.1644 19.5731 13.1644C21.4854 13.1644 23.0412 14.6069 23.0412 16.3803C23.0412 17.7913 22.0553 18.9927 20.6878 19.4242L20.6943 19.7036C20.709 20.3064 20.2311 20.808 19.6275 20.8219C19.6187 20.8241 19.609 20.8241 19.6003 20.8241C19.0084 20.8241 18.5217 20.3505 18.5076 19.7566L18.5003 19.4441C17.7856 19.2302 17.2872 18.8095 16.835 18.3845C16.3961 17.9691 16.3754 17.2772 16.7901 16.8377C17.2048 16.3988 17.8967 16.3789 18.3364 16.7928C18.8709 17.2972 19.0907 17.4067 19.5731 17.4067C20.2672 17.4067 20.8539 16.9362 20.8539 16.3803C20.8539 15.8127 20.2797 15.3517 19.5731 15.3517C17.6607 15.3516 16.1042 13.9113 16.1042 12.1378ZM19.5731 6.48016C15.3051 6.48016 11.8333 9.95187 11.8333 14.2192C11.8333 18.4872 15.305 21.9598 19.5731 21.9598C23.8404 21.9598 27.3122 18.4873 27.3122 14.2192C27.3122 9.95187 23.8404 6.48016 19.5731 6.48016ZM19.5731 24.1472C25.047 24.1472 29.5003 19.6939 29.5003 14.2192C29.5003 8.74547 25.047 4.29203 19.5731 4.29203C14.0993 4.29203 9.64591 8.74547 9.64591 14.2192C9.64591 19.6939 14.0992 24.1472 19.5731 24.1472ZM19.5731 3.59359C13.714 3.59359 8.94825 8.36094 8.94825 14.2192C8.94825 20.0783 13.714 24.8442 19.5731 24.8442C25.4315 24.8442 30.1981 20.0784 30.1981 14.2192C30.1979 8.36094 25.4314 3.59359 19.5731 3.59359ZM19.5731 27.0316C26.6379 27.0316 32.3854 21.285 32.3854 14.2194C32.3853 7.15516 26.6379 1.40625 19.5731 1.40625C12.5082 1.40625 6.76075 7.15516 6.76075 14.2192C6.76075 21.2848 12.5082 27.0316 19.5731 27.0316ZM79.2604 77.5005C79.2604 76.8969 78.7715 76.4064 78.1664 76.4064H4.26028V2.50031C4.26028 1.89734 3.77059 1.40625 3.167 1.40625C2.56262 1.40625 2.07294 1.8975 2.07294 2.50031V77.5005C2.07294 78.1048 2.56262 78.5938 3.167 78.5938H78.1664C78.7715 78.5938 79.2604 78.1048 79.2604 77.5005ZM33.1081 28.0344C34.2279 28.0344 35.1395 28.9453 35.1395 30.0658C35.1395 31.1863 34.2278 32.0972 33.1081 32.0972C31.9884 32.0972 31.0773 31.1863 31.0773 30.0658C31.0773 28.9453 31.9884 28.0344 33.1081 28.0344ZM13.3228 48.6159C12.2029 48.6159 11.292 47.705 11.292 46.5845C11.292 45.4647 12.2029 44.5531 13.3228 44.5531C14.4432 44.5531 15.3542 45.4648 15.3542 46.5845C15.3543 47.705 14.4434 48.6159 13.3228 48.6159ZM52.8926 39.1217C54.0131 39.1217 54.924 40.0327 54.924 41.1531C54.924 42.2736 54.0131 43.1845 52.8926 43.1845C51.7728 43.1845 50.8618 42.2736 50.8618 41.1531C50.8618 40.0327 51.7728 39.1217 52.8926 39.1217ZM28.89 30.0658C28.89 30.7047 29.0326 31.3098 29.2878 31.8517L15.749 43.1361C15.0615 42.6516 14.2256 42.3656 13.3228 42.3656C10.9972 42.3656 9.10403 44.2595 9.10403 46.5844C9.10403 48.9114 10.9973 50.8031 13.3228 50.8031C15.649 50.8031 17.5423 48.9114 17.5423 46.5844C17.5423 45.9536 17.4012 45.3536 17.1512 44.8147L30.6973 33.5252C31.3811 34.0037 32.2126 34.2847 33.1081 34.2847C34.2889 34.2847 35.3572 33.7972 36.124 33.0127L48.8039 40.1144C48.7193 40.4475 48.6745 40.7959 48.6745 41.1533C48.6745 43.4803 50.5662 45.372 52.8926 45.372C55.2197 45.372 57.1114 43.4803 57.1114 41.1533C57.1114 40.3923 56.9084 39.6784 56.554 39.06L71.3867 24.3361V28.4997C71.3867 29.1048 71.877 29.5938 72.48 29.5938C73.0851 29.5938 73.574 29.1048 73.574 28.4997V21.7098C73.574 21.1047 73.0851 20.6158 72.48 20.6158H65.76C65.1572 20.6158 64.6667 21.1047 64.6667 21.7098C64.6667 22.3128 65.1572 22.8031 65.76 22.8031H69.8259L55.0115 37.508C54.3895 37.1441 53.6647 36.9345 52.8926 36.9345C51.7118 36.9345 50.645 37.4242 49.8775 38.208L37.1968 31.1063C37.2822 30.7739 37.327 30.4255 37.327 30.0659C37.327 27.7411 35.4345 25.8472 33.1082 25.8472C30.7818 25.847 28.89 27.7411 28.89 30.0658ZM68.3025 41.0936H77.054V71.7184H68.3025V41.0936ZM66.1151 40.0003C66.1151 39.3973 66.6056 38.9062 67.2084 38.9062H78.1481C78.7509 38.9062 79.2414 39.3973 79.2414 40.0003V72.8125C79.2414 73.4177 78.7509 73.9066 78.1481 73.9066H67.2084C66.6056 73.9066 66.1151 73.4177 66.1151 72.8125V40.0003ZM57.2679 71.7184H48.5179V51.2738H57.2679V71.7184ZM47.4247 49.0864H58.362C58.9664 49.0864 59.4553 49.5753 59.4553 50.1797V72.8125C59.4553 73.4177 58.9664 73.9066 58.362 73.9066H47.4247C46.8203 73.9066 46.3306 73.4177 46.3306 72.8125V50.1797C46.3306 49.5753 46.8203 49.0864 47.4247 49.0864ZM37.4834 71.7184H28.7326V45.9345H37.4834V71.7184ZM27.6393 43.7472H38.5775C39.1811 43.7472 39.6707 44.2377 39.6707 44.8405V72.8125C39.6707 73.4177 39.1811 73.9066 38.5775 73.9066H27.6393C27.035 73.9066 26.5453 73.4177 26.5453 72.8125V44.8405C26.5454 44.2375 27.035 43.7472 27.6393 43.7472ZM8.94809 56.4925H17.6981V71.7186H8.94809V56.4925ZM7.85419 73.9066C7.25059 73.9066 6.76091 73.4177 6.76091 72.8125V55.3984C6.76091 54.7941 7.25059 54.3052 7.85419 54.3052H18.7923C19.3967 54.3052 19.8856 54.7941 19.8856 55.3984V72.8125C19.8856 73.4177 19.3967 73.9066 18.7923 73.9066H7.85419Z" fill="#1F4571"/>
</g>
</g>
</svg>
