<svg width="81" height="80" viewBox="0 0 81 80" fill="none" xmlns="http://www.w3.org/2000/svg">
<g id="system">
<g id="Group">
<g id="Group_2">
<path id="Vector" d="M48.9796 66.3998C49.4559 68.616 50.1553 70.6452 50.9363 72.0597H29.7278C30.5006 70.6416 31.1662 68.6085 31.6085 66.3926C32.1061 63.8995 32.3332 61.1135 32.0909 58.6055H48.415C48.1774 61.1177 48.4438 63.9067 48.9796 66.3998Z" fill="#CAD0D7" stroke="black"/>
<path id="Vector_2" d="M55.9329 72.167H24.7343C23.4066 72.167 22.318 73.2554 22.3179 74.5834L55.9329 72.167ZM55.9329 72.167C57.2608 72.167 58.3493 73.2555 58.3493 74.5834M55.9329 72.167L58.3493 74.5834M58.3493 74.5834C58.3493 75.9113 57.2608 76.9998 55.9329 76.9998M58.3493 74.5834L55.9329 76.9998M55.9329 76.9998H24.7343M55.9329 76.9998H24.7343M24.7343 76.9998C23.4064 76.9998 22.3179 75.9113 22.3179 74.5834L24.7343 76.9998Z" fill="white" stroke="black"/>
<path id="Vector_3" d="M70.1826 12.6104C71.8497 12.6104 73.202 13.9625 73.202 15.6305V55.2108C73.202 57.5808 71.2808 59.5019 68.9109 59.5019H11.7556C9.38547 59.5019 7.46448 57.5808 7.46448 55.2108V16.9014C7.46448 14.5313 9.38546 12.6104 11.7556 12.6104H70.1826Z" fill="#28A59D" stroke="black"/>
<path id="Vector_4" d="M70.4212 47.1907V47.1916H10.2451V16.9021C10.2451 16.0668 10.9203 15.3916 11.7556 15.3916H70.1825C70.3147 15.3916 70.4212 15.4977 70.4212 15.631V15.6936V15.7562V15.8188V15.8815V15.9441V16.0067V16.0693V16.1319V16.1945V16.2572V16.3198V16.3824V16.445V16.5076V16.5703V16.6329V16.6955V16.7581V16.8207V16.8833V16.946V17.0086V17.0712V17.1338V17.1964V17.2591V17.3217V17.3843V17.4469V17.5095V17.5721V17.6348V17.6974V17.76V17.8226V17.8852V17.9479V18.0105V18.0731V18.1357V18.1983V18.261V18.3236V18.3862V18.4488V18.5114V18.574V18.6367V18.6993V18.7619V18.8245V18.8871V18.9498V19.0124V19.075V19.1376V19.2002V19.2628V19.3255V19.3881V19.4507V19.5133V19.5759V19.6386V19.7012V19.7638V19.8264V19.889V19.9516V20.0143V20.0769V20.1395V20.2021V20.2647V20.3274V20.39V20.4526V20.5152V20.5778V20.6404V20.7031V20.7657V20.8283V20.8909V20.9535V21.0162V21.0788V21.1414V21.204V21.2666V21.3293V21.3919V21.4545V21.5171V21.5797V21.6423V21.705V21.7676V21.8302V21.8928V21.9554V22.0181V22.0807V22.1433V22.2059V22.2685V22.3311V22.3938V22.4564V22.519V22.5816V22.6442V22.7069V22.7695V22.8321V22.8947V22.9573V23.0199V23.0826V23.1452V23.2078V23.2704V23.333V23.3957V23.4583V23.5209V23.5835V23.6461V23.7088V23.7714V23.834V23.8966V23.9592V24.0218V24.0845V24.1471V24.2097V24.2723V24.3349V24.3976V24.4602V24.5228V24.5854V24.648V24.7106V24.7733V24.8359V24.8985V24.9611V25.0237V25.0864V25.149V25.2116V25.2742V25.3368V25.3994V25.4621V25.5247V25.5873V25.6499V25.7125V25.7752V25.8378V25.9004V25.963V26.0256V26.0883V26.1509V26.2135V26.2761V26.3387V26.4013V26.464V26.5266V26.5892V26.6518V26.7144V26.7771V26.8397V26.9023V26.9649V27.0275V27.0901V27.1528V27.2154V27.278V27.3406V27.4032V27.4659V27.5285V27.5911V27.6537V27.7163V27.7789V27.8416V27.9042V27.9668V28.0294V28.092V28.1547V28.2173V28.2799V28.3425V28.4051V28.4678V28.5304V28.593V28.6556V28.7182V28.7808V28.8435V28.9061V28.9687V29.0313V29.0939V29.1566V29.2192V29.2818V29.3444V29.407V29.4696V29.5323V29.5949V29.6575V29.7201V29.7827V29.8454V29.908V29.9706V30.0332V30.0958V30.1584V30.2211V30.2837V30.3463V30.4089V30.4715V30.5342V30.5968V30.6594V30.722V30.7846V30.8473V30.9099V30.9725V31.0351V31.0977V31.1603V31.223V31.2856V31.3482V31.4108V31.4734V31.5361V31.5987V31.6613V31.7239V31.7865V31.8491V31.9118V31.9744V32.037V32.0996V32.1622V32.2249V32.2875V32.3501V32.4127V32.4753V32.5379V32.6006V32.6632V32.7258V32.7884V32.851V32.9137V32.9763V33.0389V33.1015V33.1641V33.2268V33.2894V33.352V33.4146V33.4772V33.5398V33.6025V33.6651V33.7277V33.7903V33.8529V33.9156V33.9782V34.0408V34.1034V34.166V34.2286V34.2913V34.3539V34.4165V34.4791V34.5417V34.6044V34.667V34.7296V34.7922V34.8548V34.9174V34.9801V35.0427V35.1053V35.1679V35.2305V35.2932V35.3558V35.4184V35.481V35.5436V35.6063V35.6689V35.7315V35.7941V35.8567V35.9193V35.982V36.0446V36.1072V36.1698V36.2324V36.2951V36.3577V36.4203V36.4829V36.5455V36.6081V36.6708V36.7334V36.796V36.8586V36.9212V36.9839V37.0465V37.1091V37.1717V37.2343V37.2969V37.3596V37.4222V37.4848V37.5474V37.61V37.6727V37.7353V37.7979V37.8605V37.9231V37.9858V38.0484V38.111V38.1736V38.2362V38.2988V38.3615V38.4241V38.4867V38.5493V38.6119V38.6746V38.7372V38.7998V38.8624V38.925V38.9876V39.0503V39.1129V39.1755V39.2381V39.3007V39.3634V39.426V39.4886V39.5512V39.6138V39.6764V39.7391V39.8017V39.8643V39.9269V39.9895V40.0522V40.1148V40.1774V40.24V40.3026V40.3652V40.4279V40.4905V40.5531V40.6157V40.6783V40.741V40.8036V40.8662V40.9288V40.9914V41.0541V41.1167V41.1793V41.2419V41.3045V41.3671V41.4298V41.4924V41.555V41.6176V41.6802V41.7429V41.8055V41.8681V41.9307V41.9933V42.0559V42.1186V42.1812V42.2438V42.3064V42.369V42.4317V42.4943V42.5569V42.6195V42.6821V42.7447V42.8074V42.87V42.9326V42.9952V43.0578V43.1205V43.1831V43.2457V43.3083V43.3709V43.4336V43.4962V43.5588V43.6214V43.684V43.7466V43.8093V43.8719V43.9345V43.9971V44.0597V44.1224V44.185V44.2476V44.3102V44.3728V44.4354V44.4981V44.5607V44.6233V44.6859V44.7485V44.8112V44.8738V44.9364V44.999V45.0616V45.1243V45.1869V45.2495V45.3121V45.3747V45.4373V45.5V45.5626V45.6252V45.6878V45.7504V45.8131V45.8757V45.9383V46.0009V46.0635V46.1261V46.1888V46.2514V46.314V46.3766V46.4392V46.5019V46.5645V46.6271V46.6897V46.7523V46.8149V46.8776V46.9402V47.0028V47.0654V47.128V47.1907Z" fill="white" stroke="black"/>
<path id="Vector_5" d="M73.202 50.9717V55.2106C73.202 57.5807 71.2809 59.5017 68.9109 59.5017H11.7556C9.38547 59.5017 7.46448 57.5805 7.46448 55.2106V50.9717H73.202Z" fill="#28A59D" stroke="black"/>
<path id="Vector_6" d="M37.6992 55.8311C37.3713 55.8311 37.1055 55.5652 37.1055 55.2373C37.1055 54.9094 37.3713 54.6436 37.6992 54.6436H42.9673C43.2953 54.6436 43.5611 54.9094 43.5611 55.2373C43.5611 55.5652 43.2953 55.8311 42.9673 55.8311H37.6992Z" fill="#CAD0D7" stroke="black"/>
</g>
<path id="Vector_7" d="M64.8273 13.8512C62.3796 13.8512 61.1521 16.8155 62.8826 18.5461C62.9482 18.6116 62.9482 18.718 62.8826 18.7835L61.4448 20.2213C61.3793 20.2868 61.2729 20.2868 61.2074 20.2213C59.4768 18.4907 56.5127 19.7183 56.5127 22.1659C56.5127 22.2587 56.4377 22.3337 56.3449 22.3337H54.3117C54.219 22.3337 54.1438 22.2586 54.1438 22.1659C54.1438 19.716 51.1815 18.489 49.4492 20.2213L49.8028 20.5748L49.4492 20.2213C49.3837 20.2868 49.2773 20.2868 49.2118 20.2213L48.8582 20.5748L49.2118 20.2213L47.774 18.7835C47.7084 18.718 47.7084 18.6116 47.774 18.5461C49.5045 16.8155 48.277 13.8512 45.8293 13.8512C45.7366 13.8512 45.6615 13.7761 45.6615 13.6834V11.6502C45.6615 11.5575 45.7366 11.4823 45.8293 11.4823C48.2769 11.4823 49.5046 8.51815 47.774 6.7877C47.7084 6.72218 47.7084 6.61579 47.774 6.55027L49.2118 5.11246C49.2773 5.04694 49.3837 5.04694 49.4492 5.11246C51.1798 6.84306 54.1438 5.61547 54.1438 3.16781C54.1438 3.07513 54.219 3 54.3117 3H56.3449C56.4376 3 56.5127 3.07512 56.5127 3.16781C56.5127 5.61545 59.477 6.84309 61.2074 5.11244C61.2729 5.04694 61.3793 5.04695 61.4448 5.11246L62.8826 6.55027L63.2362 6.19672L62.8826 6.55027C62.9482 6.61579 62.9482 6.72218 62.8826 6.7877L63.2362 7.14125L62.8826 6.7877C61.152 8.51829 62.3796 11.4823 64.8273 11.4823C64.9201 11.4823 64.9951 11.5574 64.9951 11.6502V13.6834C64.9951 13.7761 64.92 13.8512 64.8273 13.8512ZM55.3284 7.28188C52.3544 7.28188 49.9435 9.69276 49.9435 12.6667C49.9435 15.6407 52.3544 18.0516 55.3284 18.0516C58.3023 18.0516 60.7132 15.6407 60.7132 12.6667C60.7132 9.69276 58.3023 7.28188 55.3284 7.28188Z" fill="#28A59D" stroke="black"/>
<path id="Vector_8" d="M38.2984 39.0247L38.2984 39.0247C38.4514 39.1777 38.4514 39.426 38.2984 39.579L36.3781 41.4993C36.2251 41.6524 35.9768 41.6524 35.8238 41.4993C33.6182 39.2937 29.8401 40.8585 29.8401 43.9779C29.8401 44.1944 29.6647 44.3698 29.4482 44.3698H26.7326C26.5161 44.3698 26.3407 44.1944 26.3407 43.9779C26.3407 40.8552 22.5651 39.2914 20.357 41.4993L20.357 41.4993C20.2039 41.6524 19.9556 41.6523 19.8028 41.4994L19.8027 41.4993L17.8824 39.579C17.7294 39.426 17.7294 39.1777 17.8824 39.0247C20.088 36.8192 18.5234 33.041 15.4038 33.041C15.1873 33.041 15.012 32.8656 15.012 32.6491V29.9335C15.012 29.7171 15.1874 29.5416 15.4038 29.5416C18.5234 29.5416 20.088 25.7635 17.8824 23.5579C17.7294 23.4049 17.7294 23.1567 17.8824 23.0036L19.8027 21.0833C19.9557 20.9303 20.204 20.9303 20.357 21.0833C22.5626 23.2889 26.3407 21.7244 26.3407 18.6049C26.3407 18.3883 26.5163 18.2129 26.7326 18.2129H29.4482C29.6646 18.2129 29.8401 18.3883 29.8401 18.6049C29.8401 21.7244 33.6182 23.2889 35.8238 21.0833C35.9768 20.9303 36.2251 20.9303 36.3781 21.0833L38.2984 23.0036C38.4514 23.1567 38.4514 23.4049 38.2984 23.5579C36.0928 25.7635 37.6574 29.5416 40.777 29.5416C40.9935 29.5416 41.1688 29.7171 41.1688 29.9335V32.6491V32.6493C41.1689 32.8654 40.9936 33.041 40.777 33.041C37.6575 33.041 36.093 36.8192 38.2984 39.0247ZM28.0907 24.2673C24.2114 24.2673 21.0666 27.4121 21.0666 31.2913C21.0666 35.1706 24.2114 38.3154 28.0907 38.3154C31.97 38.3154 35.1148 35.1706 35.1148 31.2913C35.1148 27.4121 31.97 24.2673 28.0907 24.2673Z" fill="#28A59D" stroke="black"/>
<path id="Vector_9" d="M68.0096 30.6973C68.3375 30.6973 68.6034 30.9631 68.6034 31.291C68.6034 31.6189 68.3375 31.8848 68.0096 31.8848H47.3613C47.0334 31.8848 46.7676 31.6189 46.7676 31.291C46.7676 30.9631 47.0334 30.6973 47.3613 30.6973H68.0096ZM57.6855 44.2755C58.0135 44.2755 58.2793 44.5414 58.2793 44.8693C58.2793 45.1972 58.0135 45.463 57.6855 45.463H47.3613C47.0334 45.463 46.7676 45.1972 46.7676 44.8693C46.7676 44.5414 47.0334 44.2755 47.3613 44.2755H57.6855ZM68.0096 37.4865C68.3375 37.4865 68.6034 37.7523 68.6034 38.0802C68.6034 38.4082 68.3375 38.674 68.0096 38.674H47.3613C47.0334 38.674 46.7676 38.4082 46.7676 38.0802C46.7676 37.7523 47.0334 37.4865 47.3613 37.4865H68.0096Z" fill="#28A59D" stroke="black"/>
</g>
</g>
</svg>
