<svg width="60" height="60" viewBox="0 0 60 60" fill="none" xmlns="http://www.w3.org/2000/svg">
<g id="Frame 38">
<rect id="Rectangle 4430" width="60" height="60" rx="5" fill="#3056D3" fill-opacity="0.05"/>
<path id="Vector" d="M39.7403 22.2852H20.2597C19.013 22.2852 18 23.2862 18 24.5182V36.3378C18 37.5699 19.013 38.5709 20.2597 38.5709H39.7403C40.987 38.5709 42 37.5699 42 36.3378V24.5182C42 23.2862 40.987 22.2852 39.7403 22.2852ZM39.7403 23.6327C39.9351 23.6327 40.0909 23.6712 40.2468 23.7867L30.5455 29.6003C30.1948 29.7928 29.8052 29.7928 29.4545 29.6003L19.7532 23.7867C19.9091 23.7097 20.0649 23.6327 20.2597 23.6327H39.7403Z" fill="#172B4D"/>
</g>
</svg>
