<svg width="60" height="60" viewBox="0 0 60 60" fill="none" xmlns="http://www.w3.org/2000/svg">
<g id="Frame 36">
<rect id="Rectangle 4427" width="60" height="60" rx="5" fill="#3056D3" fill-opacity="0.05"/>
<path id="Vector" d="M38.4156 40.2863H33.9072C32.9054 40.2863 32.0705 39.4511 32.0705 38.4488V34.7738C32.0705 34.4063 31.7699 34.1057 31.4026 34.1057H28.6308C28.2634 34.1057 27.9629 34.4063 27.9629 34.7738V38.4154C27.9629 39.4176 27.128 40.2529 26.1262 40.2529H21.551C20.5492 40.2529 19.7143 39.4176 19.7143 38.4154V26.7557C19.7143 26.2546 19.9814 25.7869 20.4156 25.5196L29.2319 19.9404C29.6994 19.6397 30.3339 19.6397 30.8015 19.9404L39.6178 25.5196C40.0519 25.7869 40.2857 26.2546 40.2857 26.7557V38.382C40.2857 39.4511 39.4508 40.2863 38.4156 40.2863Z" fill="#172B4D"/>
</g>
</svg>
