<svg width="60" height="60" viewBox="0 0 60 60" fill="none" xmlns="http://www.w3.org/2000/svg">
<g id="Frame 37">
<rect id="Rectangle 4429" width="60" height="60" rx="5" fill="#3056D3" fill-opacity="0.05"/>
<g id="Group">
<path id="Vector" d="M39.0985 31.8331C39.0263 31.0031 38.3407 30.4258 37.5108 30.4258H22.1389C21.3089 30.4258 20.6594 31.0392 20.5512 31.8331L19.7934 39.4108C19.7573 39.8438 19.9017 40.3129 20.1903 40.6376C20.479 40.9624 20.912 41.1428 21.3811 41.1428H38.3046C38.7376 41.1428 39.1706 40.9624 39.4954 40.6376C39.7841 40.3129 39.9284 39.8799 39.8923 39.4108L39.0985 31.8331Z" fill="#172B4D"/>
<path id="Vector_2" d="M29.8254 33.2402C28.4181 33.2402 27.2995 34.3588 27.2995 35.7661C27.2995 37.1734 28.4181 38.292 29.8254 38.292C31.2327 38.292 32.3513 37.1734 32.3513 35.7661C32.3513 34.3588 31.2327 33.2402 29.8254 33.2402ZM29.8254 37.0291C29.1398 37.0291 28.5624 36.4517 28.5624 35.7661C28.5624 35.0805 29.1398 34.5032 29.8254 34.5032C30.511 34.5032 31.0883 35.0805 31.0883 35.7661C31.0883 36.4517 30.511 37.0291 29.8254 37.0291Z" fill="#FEFEFF"/>
<path id="Vector_3" d="M20.6592 25.5908C20.7313 27.1785 22.1386 27.828 22.8603 27.828H25.3862C25.4223 27.828 25.4223 27.828 25.4223 27.828C26.5048 27.7558 27.5873 27.0341 27.5873 25.5908V24.7248C28.7781 24.7248 31.5205 24.7248 32.7113 24.7248V25.5908C32.7113 27.0341 33.7938 27.7558 34.8764 27.828H34.9124H37.4023C38.1239 27.828 39.5312 27.1785 39.6034 25.5908C39.6034 25.4825 39.6034 25.0856 39.6034 24.7248C39.6034 24.4361 39.6034 24.1835 39.6034 24.1474C39.6034 24.1113 39.6034 24.0752 39.6034 24.0752C39.4951 23.0649 39.1343 22.2349 38.5209 21.5854L38.4848 21.5493C37.5827 20.7194 36.5002 20.2503 35.6702 19.9616C33.2526 19.0234 30.2215 19.0234 30.0772 19.0234C27.9482 19.0595 26.577 19.2399 24.5202 19.9616C23.7263 20.2142 22.6438 20.6833 21.7417 21.5133L21.7056 21.5493C21.0922 22.1989 20.7313 23.0288 20.6231 24.0392C20.6231 24.0752 20.6231 24.1113 20.6231 24.1113C20.6231 24.1835 20.6231 24.4 20.6231 24.6887C20.6592 25.0134 20.6592 25.4464 20.6592 25.5908Z" fill="#172B4D"/>
</g>
</g>
</svg>
