<svg width="80" height="80" viewBox="0 0 80 80" fill="none" xmlns="http://www.w3.org/2000/svg">
<g id="customer-care 2">
<path id="Vector" d="M78.306 39.4903C77.567 38.2561 74.5327 34.5919 66.5218 39.2577L52.3913 47.4878C51.6785 47.9028 50.9537 48.1955 50.1965 48.3689C50.4796 47.9209 50.7009 47.4127 50.8516 46.8495C51.5735 44.1555 49.9723 41.3428 47.2062 40.4461C47.1527 40.4287 47.0981 40.415 47.0426 40.405C42.9807 39.6725 38.9721 38.2231 35.751 37.0586C34.6324 36.6542 33.576 36.2722 32.6776 35.9809C29.0598 34.8069 25.7907 36.26 23.0706 37.8361L12.5565 43.9277L11.7946 42.5814C10.8901 40.9831 8.85399 40.4189 7.25571 41.3233L3.29102 43.567C1.69274 44.4716 1.12852 46.5077 2.03289 48.1059L13.689 68.7012C14.301 69.7826 15.431 70.3908 16.5931 70.3908C17.1484 70.3908 17.711 70.2519 18.2279 69.9594L22.1926 67.7156C22.9648 67.2786 23.521 66.5648 23.7591 65.7061C23.9971 64.8472 23.8876 63.9489 23.4506 63.1767L22.0138 60.6381L24.4149 59.252L42.5146 64.1019C43.5365 64.3758 44.5393 64.5125 45.5209 64.5125C47.4774 64.5125 49.3481 63.9689 51.1084 62.8852L76.7515 47.095C79.0874 45.6569 79.8284 42.0322 78.306 39.4903ZM21.3499 65.0381C21.2902 65.2534 21.1521 65.4317 20.961 65.5397L16.9963 67.7834C16.6043 68.0051 16.086 67.8616 15.8645 67.4697L4.20836 46.8744C4.10024 46.6833 4.07352 46.4595 4.13321 46.2442C4.19289 46.0289 4.33102 45.8506 4.52211 45.7427L8.4868 43.4989C8.61211 43.428 8.7504 43.3945 8.88774 43.3945C9.17977 43.3945 9.4679 43.5462 9.61868 43.8127L21.2748 64.408C21.3829 64.5991 21.4095 64.8228 21.3499 65.0381ZM75.4407 44.9662L49.7976 60.7562C47.7631 62.0087 45.5306 62.322 43.1616 61.687L24.5618 56.7033C24.2415 56.6176 23.9006 56.6623 23.6134 56.8281L20.7824 58.4625L13.7877 46.1034L24.3237 39.9992C26.6801 38.6339 29.2295 37.4903 31.9063 38.3589C32.7652 38.6375 33.7551 38.9953 34.9012 39.4097C38.1873 40.5978 42.2715 42.0742 46.5087 42.8489C47.9876 43.3653 48.8143 44.7939 48.437 46.2025C47.9467 48.0325 46.4071 48.258 45.1812 48.1169C42.9734 47.6734 40.9695 47.105 38.8727 46.5103C37.9341 46.2441 36.9635 45.9689 35.9427 45.6953C35.2762 45.517 34.5906 45.9123 34.4118 46.5792C34.2332 47.2461 34.6288 47.9314 35.2957 48.1101C36.2988 48.3789 37.2606 48.6517 38.1906 48.9155C40.3517 49.5284 42.4171 50.1142 44.727 50.5758C44.7321 50.5769 44.7373 50.578 44.7426 50.5789C45.3195 50.6941 45.9113 50.8012 46.524 50.8994C49.1512 51.3194 51.482 50.9102 53.6496 49.648L67.7802 41.4177C71.8499 39.0473 74.9832 38.807 76.1615 40.7745C76.9735 42.1311 76.6101 44.2462 75.4407 44.9662ZM9.40633 47.0684C9.51946 47.842 8.98399 48.5608 8.2104 48.6739C7.4368 48.787 6.71805 48.2516 6.60508 47.478C6.49196 46.7044 7.02743 45.9856 7.80102 45.8725C8.5743 45.7595 9.29321 46.2948 9.40633 47.0684ZM15.8101 34.5584H33.569C33.6215 34.7319 33.7109 34.8941 33.8346 35.0319C34.0716 35.2956 34.4096 35.4464 34.7643 35.4464H58.2226C58.5773 35.4464 58.9152 35.2958 59.1523 35.0319C59.276 34.8941 59.3654 34.732 59.4179 34.5586H77.1768C77.5315 34.5586 77.8695 34.408 78.1065 34.1441C78.3435 33.8803 78.4574 33.5283 78.4196 33.1755C77.881 28.1439 74.5459 24.0523 70.0527 22.3653C71.6459 21.0408 72.6623 19.0452 72.6623 16.8162C72.6623 12.8381 69.4259 9.60156 65.4476 9.60156C61.4693 9.60156 58.2329 12.8381 58.2329 16.8162C58.2329 19.0469 59.2507 21.0439 60.846 22.3684C58.817 23.1327 56.9949 24.3972 55.5574 26.0688C54.2888 24.8459 52.7745 23.8825 51.0985 23.2533C52.6917 21.9287 53.7081 19.9331 53.7081 17.7042C53.7081 13.7261 50.4716 10.4895 46.4934 10.4895C42.5151 10.4895 39.2787 13.7259 39.2787 17.7042C39.2787 19.9331 40.2951 21.9287 41.8882 23.2533C40.2121 23.8827 38.6976 24.8461 37.4291 26.0689C35.9916 24.3973 34.1696 23.1328 32.1407 22.3686C33.736 21.0442 34.7538 19.047 34.7538 16.8164C34.7538 12.8383 31.5173 9.60172 27.5391 9.60172C23.561 9.60172 20.3245 12.8383 20.3245 16.8164C20.3245 19.0453 21.3409 21.0409 22.934 22.3655C18.4407 24.0525 15.1056 28.1441 14.5671 33.1758C14.5293 33.5284 14.6432 33.8805 14.8802 34.1444C15.1174 34.4078 15.4554 34.5584 15.8101 34.5584ZM60.7331 16.8162C60.7331 14.2166 62.8481 12.1016 65.4477 12.1016C68.0474 12.1016 70.1624 14.2166 70.1624 16.8162C70.1624 19.4155 68.0484 21.53 65.4493 21.5309H65.4477H65.4459C62.8471 21.5298 60.7331 19.4153 60.7331 16.8162ZM65.4459 24.0308H65.4477H65.4493C70.3773 24.0316 74.5599 27.3967 75.6932 32.0584H59.0896C58.6937 30.5803 58.0499 29.2122 57.2049 27.9991C59.1998 25.5002 62.2188 24.0314 65.4459 24.0308ZM41.7788 17.7041C41.7788 15.1044 43.8938 12.9894 46.4935 12.9894C49.0932 12.9894 51.2082 15.1044 51.2082 17.7041C51.2082 20.3033 49.0941 22.4178 46.4951 22.4187H46.4935H46.492C43.8929 22.4178 41.7788 20.3033 41.7788 17.7041ZM46.4918 24.9186H46.4935H46.4951C51.423 24.9194 55.6057 28.2845 56.739 32.9462H36.2479C37.3812 28.2845 41.5638 24.9194 46.4918 24.9186ZM22.8246 16.8162C22.8246 14.2166 24.9396 12.1016 27.5393 12.1016C30.139 12.1016 32.254 14.2166 32.254 16.8162C32.254 19.4153 30.1399 21.5298 27.5412 21.5309H27.5393H27.5377C24.9387 21.53 22.8246 19.4155 22.8246 16.8162ZM27.5376 24.0308H27.5391H27.541C30.7681 24.0314 33.7871 25.5002 35.782 27.9992C34.9368 29.2123 34.2932 30.5805 33.8973 32.0586H17.2937C18.4268 27.3967 22.6096 24.0316 27.5376 24.0308Z" fill="#172B4D"/>
<g id="Layer 1">
<path id="Vector_2" d="M23.0816 67.1158C23.0125 67.366 22.8506 67.5727 22.6286 67.6978L18.0129 70.3015C17.5563 70.559 16.9523 70.3922 16.6957 69.9371L3.12338 46.0379C2.99785 45.8167 2.96692 45.5574 3.03605 45.3072C3.10519 45.057 3.26711 44.8503 3.48907 44.7252L8.10476 42.1215C8.25031 42.0399 8.41223 42 8.57233 42C8.91255 42 9.24731 42.1759 9.42379 42.4859L22.9961 66.3851C23.1217 66.6063 23.1526 66.8656 23.0835 67.1158H23.0816Z" fill="#FF5C35"/>
<path id="Vector_3" d="M65.4691 24H65.4723C70.537 24 74.8358 27.3538 76 32H58.9366C58.5303 30.5271 57.8687 29.1631 57 27.9548C59.0506 25.4652 62.1531 24.0016 65.4691 24Z" fill="#FF5C35"/>
<path id="Vector_4" d="M46.4984 25H46.5016C51.5522 25 55.839 28.3538 57 33H36C37.161 28.3554 41.4478 25.0016 46.4984 25Z" fill="#FF5C35"/>
<path id="Vector_5" d="M27.5277 24H27.5309C30.8469 24 33.9494 25.4636 36 27.9548C35.1313 29.1631 34.4697 30.5271 34.0634 32H17C18.1642 27.3538 22.463 24.0016 27.5277 24Z" fill="#FF5C35"/>
</g>
</g>
</svg>
