<svg width="80" height="80" viewBox="0 0 80 80" fill="none" xmlns="http://www.w3.org/2000/svg">
<g clip-path="url(#clip0_213_1310)">
<path d="M60.6849 53.4716C60.8576 53.4716 60.9994 53.6117 60.9994 53.786V58.2143C60.9994 58.387 60.8592 58.5287 60.6849 58.5287C58.1971 58.5287 56.0611 59.9576 55.108 62.2597C54.1549 64.5618 54.6551 67.0822 56.4147 68.8418C56.5369 68.964 56.5369 69.1644 56.4147 69.2866L53.2833 72.4179C53.2067 72.4945 53.1204 72.5092 53.0617 72.5092C53.0031 72.5092 52.9151 72.4929 52.8402 72.4179C51.0822 70.66 48.5602 70.1582 46.2581 71.1113C43.9576 72.0644 42.5271 74.202 42.5271 76.6882C42.5271 76.8609 42.387 77.0026 42.2127 77.0026H37.7844C37.6117 77.0026 37.47 76.8625 37.47 76.6882C37.47 74.1987 36.0411 72.0611 33.7407 71.108C32.97 70.7887 32.175 70.6323 31.3913 70.6323C29.837 70.6323 28.3283 71.2465 27.1586 72.4163C27.0364 72.5385 26.8376 72.5385 26.7138 72.4163L23.5824 69.2849C23.4602 69.1627 23.4602 68.964 23.5824 68.8402C25.3403 67.0822 25.8421 64.5602 24.8874 62.2581C23.9327 59.9559 21.7967 58.5271 19.3105 58.5271C19.1378 58.5271 18.9961 58.387 18.9961 58.2127V53.7844C18.9961 53.6117 19.1362 53.47 19.3105 53.47C21.7967 53.47 23.9343 52.0411 24.8874 49.739C25.8405 47.4385 25.3403 44.9165 23.5824 43.1569C23.4602 43.0347 23.4602 42.836 23.5824 42.7121L26.7138 39.5808C26.836 39.4586 27.0347 39.4586 27.1586 39.5808C28.9165 41.3387 31.4385 41.8389 33.7407 40.8874C36.0411 39.9343 37.4716 37.7967 37.4716 35.3105C37.4716 35.1378 37.6117 34.9961 37.786 34.9961H42.2143C42.387 34.9961 42.5287 35.1362 42.5287 35.3105C42.5287 37.7967 43.9576 39.9343 46.2597 40.8874C48.5602 41.8405 51.0822 41.3403 52.8418 39.5808C52.9184 39.5042 53.0047 39.4895 53.0634 39.4895C53.122 39.4895 53.21 39.5058 53.2849 39.5808L56.4163 42.7121C56.5385 42.8343 56.5385 43.0347 56.4163 43.1569C54.6584 44.9149 54.1566 47.4369 55.1097 49.739C56.0628 52.0411 58.2003 53.47 60.6865 53.47L60.6849 53.4716Z" fill="#FF5C35"/>
</g>
<path d="M78.2907 28.5193L68.9101 18.7029C68.6014 18.3798 68.127 18.2771 67.7123 18.4434C67.2975 18.6096 67.0256 19.0117 67.0256 19.4586V23.3506C62.2268 23.514 57.6528 25.0857 53.7348 27.9281C50.2603 30.4487 47.5761 33.7731 45.8617 37.6425V12.9356H49.7757C50.2226 12.9356 50.6247 12.6637 50.7909 12.2489C50.9571 11.8342 50.8545 11.3598 50.5314 11.0511L40.7556 1.70918C40.3329 1.30527 39.667 1.30527 39.2443 1.70918L29.4686 11.0511C29.1454 11.3598 29.0426 11.8342 29.209 12.2489C29.3753 12.6637 29.7773 12.9356 30.2242 12.9356H34.1382V37.6423C32.424 33.7729 29.7396 30.4486 26.2651 27.9279C22.3468 25.0854 17.7734 23.5137 12.9743 23.3504V19.4584C12.9743 19.0115 12.7025 18.6095 12.2876 18.4432C11.8729 18.277 11.3987 18.3798 11.0898 18.7028L1.70918 28.5192C1.30527 28.942 1.30527 29.6076 1.70918 30.0304L11.0898 39.8468C11.3987 40.17 11.8729 40.2729 12.2876 40.1064C12.7025 39.9401 12.9743 39.5381 12.9743 39.0912V35.0948C17.23 35.3865 21.0443 37.8576 23.0489 41.6417L22.7107 41.9798C21.7404 42.9501 21.7404 44.5289 22.7107 45.4992C23.9646 46.7531 23.9348 48.3504 23.4889 49.4273C23.0429 50.504 21.9345 51.6545 20.1612 51.6545C18.789 51.6545 17.6728 52.7709 17.6728 54.1431V58.3895C17.6728 59.7617 18.7892 60.8781 20.1612 60.8781C21.9346 60.8781 23.0429 62.0286 23.4889 63.1053C23.9348 64.182 23.9646 65.7793 22.7107 67.0332C21.7404 68.0036 21.7404 69.5823 22.7107 70.5526L25.7136 73.5554C26.6839 74.5257 28.2626 74.5257 29.2329 73.5554C30.489 72.2993 32.0862 72.3282 33.1623 72.7739C34.2384 73.2197 35.3882 74.3287 35.3882 76.105C35.3882 77.4771 36.5047 78.5934 37.8767 78.5934H42.1232C43.4954 78.5934 44.6117 77.477 44.6117 76.105C44.6117 74.3315 45.7621 73.2232 46.8389 72.7773C47.9154 72.3312 49.5129 72.3015 50.7668 73.5554C51.2368 74.0254 51.8618 74.2843 52.5265 74.2843C53.1914 74.2843 53.8164 74.0254 54.2862 73.5554L57.2892 70.5525C58.2593 69.5823 58.2593 68.0034 57.2892 67.0331C56.0353 65.7792 56.065 64.1818 56.5111 63.1051C56.957 62.0284 58.0654 60.8779 59.8387 60.8779C61.2109 60.8779 62.3273 59.7615 62.3273 58.3893V54.1429C62.3273 52.7707 61.2109 51.6543 59.8387 51.6543C58.0654 51.6543 56.957 50.5039 56.5111 49.4272C56.0651 48.3504 56.0353 46.7531 57.2893 45.499C58.2595 44.5289 58.2595 42.95 57.2893 41.9797L56.9511 41.6414C58.9559 37.8572 62.7696 35.3861 67.0256 35.0947V39.0911C67.0256 39.5379 67.2975 39.94 67.7123 40.1062C68.1272 40.2726 68.6012 40.1698 68.9101 39.8467L78.2907 30.0303C78.6946 29.6078 78.6946 28.942 78.2907 28.5193ZM32.9518 10.7481L40 4.01277L47.0481 10.7481H44.7679C44.1639 10.7481 43.6742 11.2378 43.6742 11.8418V34.4848C43.2484 34.1442 42.7096 33.939 42.1232 33.939H37.8767C37.2903 33.939 36.7515 34.1442 36.3257 34.4848V11.8418C36.3257 11.2378 35.8361 10.7481 35.232 10.7481H32.9518ZM11.8607 32.8809C11.2645 32.8917 10.7867 33.3781 10.7867 33.9745V36.3637L4.01262 29.275L10.7867 22.1861V24.4314C10.7867 24.7236 10.9036 25.0036 11.1114 25.209C11.3192 25.4145 11.6023 25.527 11.8925 25.5251C21.125 25.4279 29.5334 31.2928 32.6964 39.9106C31.6572 40.185 30.317 40.0614 29.2329 38.9773C28.2626 38.007 26.6839 38.007 25.7136 38.9773L24.6559 40.035C22.0114 35.5514 17.1425 32.7865 11.8607 32.8809ZM59.8387 53.8421C60.0046 53.8421 60.1398 53.9771 60.1398 54.1432V58.3896C60.1398 58.5556 60.0048 58.6907 59.8387 58.6907C57.4536 58.6907 55.4042 60.0615 54.4901 62.2682C53.5761 64.475 54.0561 66.8936 55.7425 68.5801C55.8598 68.6976 55.8598 68.8887 55.7425 69.0061L52.7395 72.009C52.6667 72.0818 52.5836 72.097 52.5267 72.097C52.4698 72.097 52.3867 72.0817 52.3139 72.0089C50.6273 70.3223 48.2086 69.8423 46.002 70.7565C43.7953 71.6706 42.4245 73.72 42.4245 76.1051C42.4245 76.2711 42.2895 76.4061 42.1236 76.4061H37.877C37.7111 76.4061 37.5761 76.2711 37.5761 76.1051C37.5761 73.7176 36.2057 71.6668 33.9998 70.7531C33.2607 70.447 32.4976 70.2973 31.7461 70.2973C30.2548 70.2973 28.809 70.8862 27.6865 72.0089C27.569 72.1262 27.3781 72.1262 27.2606 72.0089L24.2578 69.0061C24.1404 68.8887 24.1404 68.6976 24.2578 68.5801C25.9443 66.8936 26.4242 64.475 25.5101 62.2682C24.5961 60.0615 22.5465 58.6907 20.1614 58.6907C19.9954 58.6907 19.8604 58.5557 19.8604 58.3896V54.1432C19.8604 53.9773 19.9954 53.8421 20.1614 53.8421C22.5465 53.8421 24.5961 52.4714 25.5101 50.2646C26.4242 48.0578 25.9443 45.6392 24.2578 43.9528C24.1404 43.8354 24.1404 43.6443 24.2578 43.5268L27.2606 40.524C27.3781 40.4067 27.569 40.4067 27.6865 40.524C29.3729 42.2104 31.7917 42.6903 33.9984 41.7764C36.2051 40.8623 37.5759 38.8128 37.5759 36.4278C37.5759 36.2618 37.7109 36.1267 37.8768 36.1267H42.1234C42.2893 36.1267 42.4243 36.2617 42.4243 36.4278C42.4243 38.8129 43.7951 40.8623 46.0018 41.7764C48.2087 42.6906 50.6271 42.2107 52.3139 40.5239C52.3867 40.4511 52.4698 40.4359 52.5267 40.4359C52.5837 40.4359 52.6667 40.4512 52.7396 40.524L55.7425 43.5268C55.8598 43.6443 55.8598 43.8354 55.7425 43.9528C54.0559 45.6393 53.5759 48.0579 54.49 50.2646C55.404 52.4714 57.4536 53.8421 59.8387 53.8421ZM69.2131 36.3637V33.9745C69.2131 33.3781 68.7353 32.8917 68.139 32.8809C68.0504 32.8793 67.9625 32.8784 67.8742 32.8784C62.6939 32.8784 57.9439 35.6261 55.3436 40.0343L54.2864 38.9771C53.8164 38.5071 53.1914 38.2482 52.5265 38.2482C51.8618 38.2482 51.2368 38.5071 50.7668 38.9771C49.6828 40.0615 48.3425 40.1851 47.3032 39.9106C50.4395 31.3656 58.7365 25.5237 67.8726 25.5237C67.9507 25.5237 68.029 25.5242 68.1071 25.525C68.4036 25.527 68.6806 25.4143 68.8882 25.2089C69.0961 25.0034 69.2129 24.7234 69.2129 24.4312V22.1859L75.987 29.2748L69.2131 36.3637ZM40 44.7962C33.6753 44.7962 28.5298 49.9417 28.5298 56.2664C28.5298 62.5911 33.6753 67.7367 40 67.7367C46.3248 67.7367 51.4703 62.5911 51.4703 56.2664C51.4703 49.9417 46.3246 44.7962 40 44.7962ZM40 65.5492C34.8815 65.5492 30.7173 61.385 30.7173 56.2664C30.7173 51.1479 34.8815 46.9837 40 46.9837C45.1186 46.9837 49.2828 51.1479 49.2828 56.2664C49.2828 61.385 45.1184 65.5492 40 65.5492Z" fill="#172B4D"/>
<defs>
<clipPath id="clip0_213_1310">
<rect width="42" height="42" fill="white" transform="translate(19 35)"/>
</clipPath>
</defs>
</svg>
