<svg width="80" height="80" viewBox="0 0 80 80" fill="none" xmlns="http://www.w3.org/2000/svg">
<g id="email-marketing 2" clip-path="url(#clip0_298_5125)">
<g id="Group">
<g id="Group_2">
<path id="Vector" d="M79.5 40C79.5 61.8153 61.8153 79.5 40 79.5C18.1848 79.5 0.5 61.8153 0.5 40C0.5 18.1848 18.1848 0.5 40 0.5C61.8153 0.5 79.5 18.1848 79.5 40Z" fill="#FEFEFF" stroke="#FF5C35"/>
</g>
<g id="Group_3">
<g id="Group_4">
<path id="Vector_2" d="M48.4706 43.0096V25.8824C48.4706 24.8428 47.6279 24 46.5882 24H33.4118C32.3722 24 31.5294 24.8428 31.5294 25.8824V43.0097L40 50.0689L48.4706 43.0096ZM36.2353 40.9411C35.7151 40.9411 35.2942 40.5202 35.2942 40V37.1765H34.3531C33.8328 37.1765 33.4119 36.7555 33.4119 36.2353V32.4707C33.4119 31.9508 33.8333 31.5294 34.3531 31.5294H37.9652L42.8237 29.9103V28.7059C42.8237 28.1856 43.2447 27.7648 43.7649 27.7648C44.2851 27.7648 44.706 28.1857 44.706 28.7059V33.4118H45.6472C46.1674 33.4118 46.5883 33.8328 46.5883 34.3531C46.5883 34.8732 46.1673 35.2942 45.6472 35.2942H44.706V40C44.706 40.5203 44.285 40.9411 43.7649 40.9411C43.2446 40.9411 42.8237 40.5202 42.8237 40V38.7958L37.9652 37.1765H37.1767V40C37.1765 40.5203 36.7555 40.9411 36.2353 40.9411ZM37.1765 43.7647C37.1765 43.2444 37.5975 42.8235 38.1176 42.8235H41.8823C42.4025 42.8235 42.8234 43.2445 42.8234 43.7647C42.8234 44.2848 42.4024 44.7058 41.8823 44.7058H38.1176C37.5975 44.7059 37.1765 44.2849 37.1765 43.7647ZM38.4155 35.3428L42.8235 36.8122V31.8938L38.4155 33.3632C38.3199 33.3954 38.2188 33.4118 38.1177 33.4118H35.2942V35.2942H38.1177C38.2187 35.2941 38.3199 35.3106 38.4155 35.3428ZM55.6232 39.2473L50.353 35.2941V41.441L50.6912 41.159C51.0882 40.829 51.682 40.8778 52.0165 41.2794C52.3492 41.6792 52.2959 42.273 51.897 42.6057L40.6029 52.0175C40.4283 52.1626 40.2132 52.2353 40 52.2353C39.7868 52.2353 39.5717 52.1626 39.3971 52.0175L28.103 42.6057C27.7041 42.273 27.6508 41.6792 27.9835 41.2794C28.318 40.8796 28.9118 40.8308 29.3088 41.159L29.647 41.441V35.2941L24.3768 39.2473C24.1397 39.4246 24 39.7041 24 40V53.1765C24 54.7335 25.2665 56 26.8235 56H53.1765C54.7335 56 56 54.7335 56 53.1765V40C56 39.7041 55.8603 39.4246 55.6232 39.2473Z" fill="#172B4D"/>
</g>
</g>
</g>
</g>
<defs>
<clipPath id="clip0_298_5125">
<rect width="80" height="80" fill="white"/>
</clipPath>
</defs>
</svg>
