<svg width="80" height="80" viewBox="0 0 80 80" fill="none" xmlns="http://www.w3.org/2000/svg">
<g clip-path="url(#clip0_298_5110)">
<path d="M79.5 40C79.5 61.8155 61.8155 79.5 40 79.5C18.1845 79.5 0.5 61.8155 0.5 40C0.5 18.1845 18.1845 0.5 40 0.5C61.8155 0.5 79.5 18.1845 79.5 40Z" fill="#FEFEFF" stroke="#FF5C35"/>
<g clip-path="url(#clip1_298_5110)">
<path d="M54.0609 49.4365C53.2772 50.0256 52.3038 50.3753 51.25 50.3753C50.1962 50.3753 49.2228 50.0256 48.4391 49.4365C47.2997 50.2916 46.5625 51.6536 46.5625 53.1878V56.0003H55C55.5177 56.0003 55.9375 55.5806 55.9375 55.0628V53.1878C55.9375 51.6536 55.2003 50.2916 54.0609 49.4365Z" fill="#172B4D"/>
<path d="M42.8109 49.4365C42.0272 50.0256 41.0538 50.3753 40 50.3753C38.9462 50.3753 37.9728 50.0256 37.1891 49.4365C36.0497 50.2916 35.3125 51.6536 35.3125 53.1878V56.0003H44.6875V53.1878C44.6875 51.6536 43.9503 50.2916 42.8109 49.4365Z" fill="#172B4D"/>
<path d="M28.75 48.5003C30.3033 48.5003 31.5625 47.2411 31.5625 45.6878C31.5625 44.4633 30.7797 43.4221 29.6875 43.036V41.9378C29.6875 41.4209 30.1081 41.0003 30.625 41.0003H39.0625V43.036C37.9703 43.4222 37.1875 44.4633 37.1875 45.6878C37.1875 47.2411 38.4467 48.5003 40 48.5003C41.5533 48.5003 42.8125 47.2411 42.8125 45.6878C42.8125 44.4633 42.0298 43.4221 40.9375 43.036V41.0003H49.375C49.8919 41.0003 50.3125 41.4209 50.3125 41.9378V43.036C49.2202 43.4222 48.4375 44.4634 48.4375 45.6878C48.4375 47.2411 49.6967 48.5003 51.25 48.5003C52.8033 48.5003 54.0625 47.2411 54.0625 45.6878C54.0625 44.4633 53.2798 43.4221 52.1875 43.036V41.9378C52.1875 40.387 50.9258 39.1253 49.375 39.1253H40.9375V37.1253H43.75C44.2677 37.1253 44.6875 36.7056 44.6875 36.1878V34.3128C44.6875 32.7786 43.9503 31.4166 42.8109 30.5615C42.0272 31.1506 41.0538 31.5003 40 31.5003C38.9462 31.5003 37.9728 31.1506 37.1891 30.5615C36.0497 31.4166 35.3125 32.7786 35.3125 34.3128V36.1878C35.3125 36.7056 35.7323 37.1253 36.25 37.1253H39.0625V39.1253H30.625C29.0742 39.1253 27.8125 40.387 27.8125 41.9378V43.036C26.7203 43.4221 25.9375 44.4633 25.9375 45.6878C25.9375 47.2411 27.1967 48.5003 28.75 48.5003Z" fill="#172B4D"/>
<path d="M31.5609 49.4365C30.7772 50.0256 29.8038 50.3753 28.75 50.3753C27.6962 50.3753 26.7228 50.0256 25.9391 49.4365C24.7997 50.2916 24.0625 51.6536 24.0625 53.1878V55.0628C24.0625 55.5806 24.4822 56.0003 25 56.0003H33.4375V53.1878C33.4375 51.6536 32.7003 50.2916 31.5609 49.4365Z" fill="#172B4D"/>
<path d="M40 29.625C41.5533 29.625 42.8125 28.3658 42.8125 26.8125C42.8125 25.2592 41.5533 24 40 24C38.4467 24 37.1875 25.2592 37.1875 26.8125C37.1875 28.3658 38.4467 29.625 40 29.625Z" fill="#172B4D"/>
</g>
</g>
<defs>
<clipPath id="clip0_298_5110">
<rect width="80" height="80" fill="white"/>
</clipPath>
<clipPath id="clip1_298_5110">
<rect width="32" height="32" fill="white" transform="translate(24 24)"/>
</clipPath>
</defs>
</svg>
