<svg width="80" height="80" viewBox="0 0 80 80" fill="none" xmlns="http://www.w3.org/2000/svg">
<g id="crm (1) 2" clip-path="url(#clip0_298_5069)">
<g id="Group">
<path id="Vector" d="M79.5 40C79.5 61.8153 61.8153 79.5 40 79.5C18.1848 79.5 0.5 61.8153 0.5 40C0.5 18.1848 18.1848 0.5 40 0.5C61.8153 0.5 79.5 18.1848 79.5 40Z" fill="#FEFEFF" stroke="#FF5C35"/>
<path id="Vector_2" d="M53.1875 24H26.8125C25.2617 24 24 25.3183 24 26.9388V44.2449H56V26.9388C56 25.3183 54.7383 24 53.1875 24ZM35.062 37.0954C34.9543 37.2296 34.8371 37.356 34.7136 37.4709C34.0834 38.0574 33.2747 38.3674 32.375 38.3674C30.1349 38.3674 28.3125 36.4631 28.3125 34.1225C28.3125 31.7818 30.1349 29.8775 32.375 29.8775C33.189 29.8775 33.9747 30.1284 34.647 30.6031C35.076 30.9059 35.1889 31.5148 34.899 31.9631C34.6092 32.4114 34.0265 32.5293 33.5974 32.2264C33.2361 31.9714 32.8135 31.8367 32.3749 31.8367C31.1687 31.8367 30.1873 32.862 30.1873 34.1225C30.1873 35.3829 31.1686 36.4082 32.3749 36.4082C32.8138 36.4082 33.181 36.2736 33.4665 36.008C33.5222 35.956 33.5757 35.8984 33.6253 35.8366C33.958 35.4221 34.5494 35.3678 34.9461 35.7155C35.3428 36.063 35.3948 36.6809 35.062 37.0954ZM41.646 36.7406C41.9881 37.1467 41.9503 37.7657 41.5616 38.1231C41.3835 38.287 41.1626 38.3674 40.9426 38.3674C40.6826 38.3674 40.4238 38.255 40.2385 38.035L38.5007 35.9718V37.3878C38.5007 37.9288 38.081 38.3675 37.5631 38.3675C37.0454 38.3675 36.6256 37.9289 36.6256 37.3878V30.8573C36.6256 30.3163 37.0453 29.8777 37.5631 29.8777H37.5642H37.5652H39.2261C40.6893 29.8777 41.8798 31.0785 41.8798 32.5545C41.8798 33.6789 41.1886 34.6429 40.2126 35.0388L41.646 36.7406ZM50.926 38.2989C50.4175 38.4006 49.9265 38.052 49.8292 37.5207L49.2952 34.601L48.4894 37.5544C48.4862 37.5658 48.483 37.5772 48.4795 37.5885C48.3354 38.0519 47.9252 38.3649 47.4589 38.3674C47.4571 38.3674 47.4552 38.3674 47.4535 38.3674C46.9894 38.3674 46.579 38.0593 46.431 37.5992C46.4273 37.5877 46.4238 37.5761 46.4206 37.5644L45.5857 34.6078L45.0843 37.5107C44.9924 38.0432 44.5048 38.397 43.9952 38.3008C43.4857 38.2047 43.1471 37.6952 43.2391 37.1629L44.3376 30.8033C44.3382 30.7996 44.3389 30.7959 44.3395 30.7923C44.432 30.2897 44.8379 29.9149 45.3265 29.8806C45.8155 29.8458 46.2654 30.1613 46.4213 30.6465C46.425 30.6579 46.4285 30.6695 46.4318 30.681L47.4404 34.253L48.4122 30.6907C48.4153 30.6793 48.4185 30.6681 48.422 30.6568C48.5732 30.1703 49.0197 29.8515 49.5089 29.8794C49.9976 29.9082 50.4072 30.2785 50.505 30.7796C50.5057 30.7835 50.5065 30.7874 50.5072 30.7914L51.6708 37.153C51.7681 37.6842 51.4346 38.1974 50.926 38.2989ZM40.0048 32.5544C40.0048 32.9434 39.6481 33.272 39.2261 33.272C39.0531 33.272 38.7822 33.273 38.5091 33.2744C38.5079 32.9971 38.5069 32.7246 38.5069 32.5544C38.5069 32.4071 38.5064 32.1274 38.5056 31.8367H39.2262C39.6481 31.8368 40.0048 32.1654 40.0048 32.5544ZM24 46.2041H56V47.1837C56 48.8041 54.7383 50.1225 53.1875 50.1225H26.8125C25.2617 50.1225 24 48.8041 24 47.1837V46.2041ZM47.8125 55.0204C47.8125 55.5613 47.3927 56 46.8749 56H33.125C32.6073 56 32.1874 55.5614 32.1874 55.0204C32.1874 54.4793 32.6072 54.0407 33.125 54.0407H34.9753L35.6784 52.0816H44.3215L45.0246 54.0407H46.8749C47.3927 54.0407 47.8125 54.4794 47.8125 55.0204Z" fill="#172B4D"/>
</g>
</g>
<defs>
<clipPath id="clip0_298_5069">
<rect width="80" height="80" fill="white"/>
</clipPath>
</defs>
</svg>
