<svg width="80" height="80" viewBox="0 0 80 80" fill="none" xmlns="http://www.w3.org/2000/svg">
<g id="project-plan 2" clip-path="url(#clip0_298_5091)">
<g id="Group">
<path id="Vector" d="M79.5 40C79.5 61.8152 61.8152 79.5 40 79.5C18.1848 79.5 0.5 61.8152 0.5 40C0.5 18.1848 18.1848 0.5 40 0.5C61.8152 0.5 79.5 18.1848 79.5 40Z" fill="#FEFEFF" stroke="#FF5C35"/>
<g id="Group_2">
<path id="Vector_2" fill-rule="evenodd" clip-rule="evenodd" d="M26.9106 31.7993C26.5455 31.7993 26.25 31.5037 26.25 31.1414V29.1913C26.25 27.6011 27.5477 26.3076 29.146 26.3076H32.7474C33.1125 26.3076 33.4081 26.6019 33.4081 26.9655C33.4081 27.329 33.1125 27.6233 32.7474 27.6233H29.146C28.2779 27.6233 27.5713 28.327 27.5713 29.1913V31.1414C27.5713 31.5037 27.2757 31.7993 26.9106 31.7993ZM53.0916 31.7993C52.7265 31.7993 52.4309 31.5037 52.4309 31.1414V29.1913C52.4309 28.327 51.7231 27.6233 50.855 27.6233H47.2536C46.8885 27.6233 46.5929 27.3278 46.5929 26.9655C46.5929 26.6019 46.8897 26.3076 47.2536 26.3076H50.855C52.452 26.3076 53.751 27.6011 53.751 29.1913V31.1414C53.7523 31.5037 53.4567 31.7993 53.0916 31.7993ZM32.7474 53.693H29.146C27.549 53.693 26.25 52.3995 26.25 50.8093V48.8604C26.25 48.4969 26.5468 48.2026 26.9094 48.2026C27.2745 48.2026 27.5701 48.4981 27.5701 48.8604V50.8093C27.5701 51.6737 28.2767 52.3785 29.1448 52.3785H32.7462C33.1113 52.3785 33.4068 52.6728 33.4068 53.0364C33.4081 53.3987 33.1125 53.693 32.7474 53.693ZM50.8562 53.693H47.2548C46.8897 53.693 46.5942 53.3975 46.5942 53.0351C46.5942 52.6728 46.891 52.3773 47.2548 52.3773H50.8562C51.7255 52.3773 52.4322 51.6737 52.4322 50.808V48.8592C52.4322 48.4956 52.7277 48.2013 53.0916 48.2013C53.4555 48.2013 53.7523 48.4969 53.7523 48.8592V50.808C53.7523 52.3995 52.452 53.693 50.8562 53.693Z" fill="#172B4D"/>
<path id="Vector_3" fill-rule="evenodd" clip-rule="evenodd" d="M34.9687 24H45.0315V29.9319H34.9687V24Z" fill="#172B4D"/>
<path id="Vector_4" fill-rule="evenodd" clip-rule="evenodd" d="M53.0906 35.334L50.1797 40.0009L53.0906 44.6665L56.0003 40.0009L53.0906 35.334Z" fill="#172B4D"/>
<path id="Vector_5" fill-rule="evenodd" clip-rule="evenodd" d="M41.9765 34.3594H43.7636V39.2859H41.9765V34.3594Z" fill="#172B4D"/>
<path id="Vector_6" fill-rule="evenodd" clip-rule="evenodd" d="M36.2383 34.3594H38.024V39.2859H36.2383V34.3594Z" fill="#172B4D"/>
<path id="Vector_7" fill-rule="evenodd" clip-rule="evenodd" d="M26.9097 35.334L24 40.0009L26.9097 44.6665L29.8206 40.0009L26.9097 35.334Z" fill="#172B4D"/>
<path id="Vector_8" fill-rule="evenodd" clip-rule="evenodd" d="M32.7441 35.34V44.6626C32.7441 45.203 33.1862 45.6432 33.7289 45.6432H46.2717C46.8157 45.6432 47.2565 45.2042 47.2565 44.6626V35.34C47.2565 34.7996 46.8144 34.3594 46.2717 34.3594H44.5331V39.6705C44.5331 39.8832 44.3605 40.0551 44.1481 40.0538H41.5899C41.3763 40.0538 41.2049 39.882 41.2049 39.6705V34.3594H38.7957V39.6705C38.7957 39.8832 38.6231 40.0551 38.4107 40.0538H35.8537C35.6401 40.0538 35.4675 39.882 35.4675 39.6705V34.3594H33.7289C33.1862 34.3594 32.7441 34.7996 32.7441 35.34ZM37.7153 41.602H39.1049C39.3185 41.602 39.4899 41.7739 39.4899 41.9854C39.4899 42.1981 39.3173 42.3687 39.1049 42.3687H37.7165C37.5029 42.3687 37.3303 42.1968 37.3303 41.9854C37.3303 41.7739 37.5029 41.602 37.7153 41.602ZM43.6899 43.7117C43.6899 43.499 43.8625 43.3283 44.0749 43.3283H45.4633C45.6769 43.3283 45.8482 43.5002 45.8482 43.7129C45.8482 43.9256 45.6756 44.0962 45.4633 44.0962H44.0749C43.8625 44.0962 43.6899 43.9231 43.6899 43.7117ZM40.8957 41.602H42.2841C42.4977 41.602 42.6691 41.7739 42.6691 41.9854C42.6691 42.1981 42.4965 42.3687 42.2841 42.3687H40.8957C40.6821 42.3687 40.5095 42.1968 40.5095 41.9854C40.5095 41.7739 40.6821 41.602 40.8957 41.602ZM44.0749 42.37C43.8613 42.37 43.6886 42.1981 43.6886 41.9866C43.6886 41.7739 43.8613 41.6033 44.0736 41.6033H45.4633C45.6769 41.6033 45.8482 41.7752 45.8482 41.9866C45.8482 42.1993 45.6756 42.37 45.4633 42.37H44.0749ZM40.5095 43.7117C40.5095 43.499 40.6821 43.3283 40.8945 43.3283H42.2841C42.4977 43.3283 42.6691 43.5002 42.6691 43.7129C42.6691 43.9256 42.4965 44.0962 42.2841 44.0962H40.8957C40.6821 44.0962 40.5095 43.9231 40.5095 43.7117ZM34.5374 41.602H35.9258C36.1394 41.602 36.3107 41.7739 36.3107 41.9854C36.3107 42.1981 36.1381 42.3687 35.9258 42.3687H34.5374C34.3238 42.3687 34.1511 42.1968 34.1511 41.9854C34.1511 41.7739 34.3225 41.602 34.5374 41.602ZM37.3303 43.7117C37.3303 43.499 37.5029 43.3283 37.7153 43.3283H39.1049C39.3185 43.3283 39.4899 43.5002 39.4899 43.7129C39.4899 43.9256 39.3173 44.0962 39.1049 44.0962H37.7165C37.5029 44.0962 37.3303 43.9231 37.3303 43.7117ZM34.5374 43.3271H35.9258C36.1394 43.3271 36.3107 43.499 36.3107 43.7117C36.3107 43.9243 36.1381 44.095 35.9258 44.095H34.5374C34.3238 44.095 34.1511 43.9231 34.1511 43.7117C34.1511 43.499 34.3225 43.3271 34.5374 43.3271Z" fill="#172B4D"/>
<path id="Vector_9" fill-rule="evenodd" clip-rule="evenodd" d="M34.9687 50.0684H45.0315V56.0003H34.9687V50.0684Z" fill="#172B4D"/>
</g>
</g>
</g>
<defs>
<clipPath id="clip0_298_5091">
<rect width="80" height="80" fill="white"/>
</clipPath>
</defs>
</svg>
