<svg width="80" height="80" viewBox="0 0 80 80" fill="none" xmlns="http://www.w3.org/2000/svg">
<g clip-path="url(#clip0_298_5079)">
<path d="M79.5 40C79.5 61.8155 61.8155 79.5 40 79.5C18.1845 79.5 0.5 61.8155 0.5 40C0.5 18.1845 18.1845 0.5 40 0.5C61.8155 0.5 79.5 18.1845 79.5 40Z" fill="#FEFEFF" stroke="#FF5C35"/>
<g clip-path="url(#clip1_298_5079)">
<path d="M54.8381 54.2689L52.9881 31.5377C52.9194 30.7064 52.2256 30.0689 51.3944 30.0689H45.9694C45.8881 30.0689 45.8256 30.0064 45.8256 29.9252C45.8256 26.7252 43.2819 24.0502 40.0819 24.0064C36.8569 23.9627 34.2069 26.5439 34.1631 29.7689C34.1631 29.7939 34.1631 29.8189 34.1631 29.8439V29.8627C34.1631 29.9814 34.0694 30.0752 33.9506 30.0752H28.6006C27.7694 30.0752 27.0756 30.7127 27.0069 31.5439L25.1631 54.2689C25.0944 55.1502 25.7506 55.9189 26.6319 55.9939C26.6756 56.0002 26.7194 56.0002 26.7631 56.0002H53.2506C54.1319 56.0002 54.8506 55.2814 54.8506 54.4002C54.8444 54.3564 54.8444 54.3127 54.8381 54.2689ZM36.3006 29.8314C36.3006 27.8127 37.9194 26.1689 39.9381 26.1314C42.0069 26.0939 43.7006 27.8377 43.7006 29.9064C43.7006 29.9939 43.6256 30.0627 43.5381 30.0627H36.5131C36.3944 30.0627 36.3006 29.9689 36.3006 29.8502V29.8314Z" fill="#172B4D"/>
<path d="M45.8885 40.5693L38.8447 47.6131C38.7635 47.6943 38.626 47.6943 38.5447 47.6131L35.6072 44.6756C34.9822 44.0506 33.9697 44.0506 33.3447 44.6756L29.751 48.2693C29.3447 48.6693 29.3135 49.3068 29.676 49.7443C30.0635 50.1881 30.7385 50.2381 31.1822 49.8506C31.201 49.8318 31.2197 49.8193 31.2385 49.8006L34.326 46.7193C34.4072 46.6381 34.5447 46.6381 34.626 46.7193L37.5635 49.6506C38.1885 50.2756 39.201 50.2756 39.826 49.6506L47.401 42.0756C47.4822 41.9943 47.6197 41.9943 47.701 42.0756L48.576 42.9506C48.7822 43.1568 49.1197 43.1568 49.3322 42.9506C49.4322 42.8506 49.4885 42.7131 49.4885 42.5756V39.0068C49.4885 38.7131 49.251 38.4756 48.9572 38.4756H45.3885C45.0947 38.4756 44.8572 38.7131 44.8572 39.0068C44.8572 39.1506 44.9135 39.2818 45.0135 39.3818L45.8885 40.2568C45.9697 40.3506 45.9697 40.4818 45.8885 40.5693Z" fill="white"/>
</g>
</g>
<defs>
<clipPath id="clip0_298_5079">
<rect width="80" height="80" fill="white"/>
</clipPath>
<clipPath id="clip1_298_5079">
<rect width="32" height="32" fill="white" transform="translate(24 24)"/>
</clipPath>
</defs>
</svg>
