<svg width="80" height="80" viewBox="0 0 80 80" fill="none" xmlns="http://www.w3.org/2000/svg">
<g id="warehouse 2" clip-path="url(#clip0_298_5138)">
<g id="Group">
<g id="Group_2">
<path id="Vector" d="M79.5 40C79.5 61.8153 61.8153 79.5 40 79.5C18.1848 79.5 0.5 61.8153 0.5 40C0.5 18.1848 18.1848 0.5 40 0.5C61.8153 0.5 79.5 18.1848 79.5 40Z" fill="#FEFEFF" stroke="#FF5C35"/>
</g>
<g id="Group_3">
<g id="Group_4">
<path id="Vector_2" d="M55.0589 48H53.1765V50C53.1765 50.5528 52.7555 51 52.2353 51C51.7151 51 51.2942 50.5527 51.2942 50V48H49.4118C48.8916 48 48.4707 48.4473 48.4707 48.9999V55C48.4707 55.5528 48.8917 56 49.4118 56H55.0589C55.5791 56 56 55.5527 56 55V48.9999C56 48.4472 55.579 48 55.0589 48ZM33.4118 52H42.8235V41.9999H33.4118V52ZM50.353 45.9999V37.9998H51.2941C51.8144 37.9998 52.2352 37.5525 52.2352 36.9998V34.9997C52.2352 34.6765 52.0882 34.3738 51.841 34.1862L38.6645 24.1861C38.3373 23.938 37.898 23.938 37.5708 24.1861L24.3943 34.1862C24.1471 34.3738 24 34.6764 24 34.9997V36.9998C24 37.5526 24.421 37.9998 24.9411 37.9998H25.8823V49.9999H24.9411C24.4209 49.9999 24 50.4472 24 50.9999C24 51.5526 24.421 51.9999 24.9411 51.9999H31.5294V40.9998C31.5294 40.447 31.9504 39.9998 32.4706 39.9998H43.7647C44.2849 39.9998 44.7058 40.4471 44.7058 40.9998V52H46.5882V48.9999C46.5882 47.3456 47.8547 45.9999 49.4117 45.9999H50.353ZM36.2353 37.9998H32.4707C31.9504 37.9998 31.5295 37.5525 31.5295 36.9998C31.5295 36.4471 31.9505 35.9998 32.4707 35.9998H36.2353C36.7556 35.9998 37.1765 36.4471 37.1765 36.9998C37.1765 37.5525 36.7555 37.9998 36.2353 37.9998ZM43.7647 37.9998H40C39.4797 37.9998 39.0589 37.5525 39.0589 36.9998C39.0589 36.4471 39.4798 35.9998 40 35.9998H43.7647C44.2849 35.9998 44.7058 36.4471 44.7058 36.9998C44.7059 37.5525 44.2849 37.9998 43.7647 37.9998Z" fill="#172B4D"/>
</g>
</g>
</g>
</g>
<defs>
<clipPath id="clip0_298_5138">
<rect width="80" height="80" fill="white"/>
</clipPath>
</defs>
</svg>
