<svg width="80" height="80" viewBox="0 0 80 80" fill="none" xmlns="http://www.w3.org/2000/svg">
<g id="inventory 2">
<path id="Vector" fill-rule="evenodd" clip-rule="evenodd" d="M48 27.1974H52.5241C53.1833 27.1974 53.7553 26.788 53.9103 26.2071C54.256 24.9061 55.5264 24 57 24C58.4736 24 59.744 24.9061 60.0897 26.2055C60.2447 26.7864 60.8167 27.1958 61.4759 27.1958H66V31H48V27.1974Z" fill="#FF5C35"/>
<path id="Vector_2" fill-rule="evenodd" clip-rule="evenodd" d="M51 39.0866V43.9134C51 43.9567 50.9586 44 50.9134 44H46.0866C46.0433 44 46 43.9586 46 43.9134V39.0866C46 39.0433 46.0414 39 46.0866 39H50.9134C50.9567 39 51 39.0414 51 39.0866Z" fill="#FF5C35"/>
<path id="Vector_3" fill-rule="evenodd" clip-rule="evenodd" d="M51 50.0866V54.9134C51 54.9567 50.9586 55 50.9134 55H46.0866C46.0433 55 46 54.9586 46 54.9134V50.0866C46 50.0433 46.0414 50 46.0866 50H50.9134C50.9567 50 51 50.0414 51 50.0866Z" fill="#FF5C35"/>
<path id="Vector_4" fill-rule="evenodd" clip-rule="evenodd" d="M51 61.0866V65.9134C51 65.9567 50.9586 66 50.9134 66H46.0866C46.0433 66 46 65.9586 46 65.9134V61.0866C46 61.0433 46.0414 61 46.0866 61H50.9134C50.9567 61 51 61.0414 51 61.0866Z" fill="#FF5C35"/>
<path id="Vector_5" fill-rule="evenodd" clip-rule="evenodd" d="M12.4731 24V27.2769C12.4731 27.9753 13.0388 28.541 13.7372 28.541H17.4628C18.1612 28.541 18.7268 27.9753 18.7268 27.2769V24H19.9008V32.6H11.3008V24H12.4731Z" fill="#FF5C35"/>
<path id="Vector_6" fill-rule="evenodd" clip-rule="evenodd" d="M12.1724 35V38.2769C12.1724 38.9753 12.738 39.541 13.4364 39.541H17.162C17.8604 39.541 18.4261 38.9753 18.4261 38.2769V35H19.6V43.6H11V35H12.1724Z" fill="#FF5C35"/>
<path id="Vector_7" fill-rule="evenodd" clip-rule="evenodd" d="M12.1724 46V49.2769C12.1724 49.9753 12.738 50.541 13.4364 50.541H17.162C17.8604 50.541 18.4261 49.9753 18.4261 49.2769V46H19.6V54.6H11V46H12.1724Z" fill="#FF5C35"/>
<path id="Vector_8" fill-rule="evenodd" clip-rule="evenodd" d="M23.1724 46V49.2769C23.1724 49.9753 23.738 50.541 24.4364 50.541H28.162C28.8604 50.541 29.4261 49.9753 29.4261 49.2769V46H30.6V54.6H22V46H23.1724Z" fill="#FF5C35"/>
<path id="Vector_9" fill-rule="evenodd" clip-rule="evenodd" d="M23.1724 35V38.2769C23.1724 38.9753 23.738 39.541 24.4364 39.541H28.162C28.8604 39.541 29.4261 38.9753 29.4261 38.2769V35H30.6V43.6H22V35H23.1724Z" fill="#FF5C35"/>
<path id="Vector_10" fill-rule="evenodd" clip-rule="evenodd" d="M36.2037 10.8898H23.1381C22.4478 10.8898 21.8881 11.4495 21.8881 12.1398V15.5185C21.8881 16.2088 22.4478 16.7685 23.1381 16.7685H36.2037C36.8941 16.7685 37.4537 16.2088 37.4537 15.5185V12.1398C37.4537 11.4493 36.8942 10.8898 36.2037 10.8898ZM34.9537 14.2684H24.3881V13.3898H34.9537V14.2684ZM75.1255 26.2891H67.2337V26.104C67.2337 25.4137 66.6741 24.854 65.9837 24.854H61.6519C60.9795 23.3748 59.6637 22.2966 58.0919 21.9176V14.7918C58.0919 14.2793 57.7791 13.8187 57.3025 13.6298L30.1317 2.85742C29.8359 2.74023 29.5064 2.74023 29.2105 2.85742L2.03937 13.6299C1.56281 13.8187 1.25 14.2793 1.25 14.7918V55.8009C1.25 56.4912 1.80969 57.0509 2.5 57.0509H6.66641C7.35672 57.0509 7.91641 56.4912 7.91641 55.8009V20.1557H51.4256V24.854H47.7003C47.01 24.854 46.4503 25.4137 46.4503 26.104V26.2891H38.5586C36.56 26.2891 34.9342 27.9151 34.9342 29.9137V43.5454H33.3703V33.7899C33.3703 33.0996 32.8106 32.5399 32.1203 32.5399H22.365V22.7846C22.365 22.0943 21.8053 21.5346 21.115 21.5346H10.1094C9.41906 21.5346 8.85937 22.0943 8.85937 22.7846V33.0562C8.85937 33.1973 8.87469 33.3348 8.90281 33.4676C8.87531 33.5705 8.85937 33.6782 8.85937 33.7898V44.0615C8.85937 44.2026 8.87469 44.3399 8.90281 44.4729C8.87531 44.5759 8.85937 44.6835 8.85937 44.7952V55.067C8.85937 56.1607 9.74922 57.0505 10.843 57.0505H20.3809C20.6402 57.0505 20.8873 56.9991 21.1145 56.9082C21.3417 56.9991 21.5889 57.0505 21.8481 57.0505H31.3862C31.6455 57.0505 31.8927 56.9991 32.1198 56.9082C32.347 56.9991 32.5942 57.0505 32.8534 57.0505H34.9337V73.6038C34.9337 75.6024 36.5597 77.2284 38.5581 77.2284H75.1251C77.1237 77.2284 78.7497 75.6024 78.7497 73.6038V29.9137C78.75 27.9151 77.1241 26.2891 75.1255 26.2891ZM6.66641 17.6557C5.97609 17.6557 5.41641 18.2154 5.41641 18.9057V54.5509H3.75V15.6409L29.6711 5.36414L55.592 15.6409V21.9177C54.992 22.0624 54.4294 22.308 53.9256 22.6404V18.9059C53.9256 18.2155 53.3659 17.6559 52.6756 17.6559L6.66641 17.6557ZM48.9503 27.354H52.9181C53.4956 27.354 53.998 26.9584 54.1333 26.397C54.4358 25.1429 55.5497 24.2671 56.842 24.2671C58.1344 24.2671 59.2483 25.1429 59.5508 26.397C59.6861 26.9584 60.1884 27.354 60.7659 27.354H64.7337V31.0276H48.9503V27.354ZM65.9837 33.5276C66.6741 33.5276 67.2337 32.9679 67.2337 32.2776V32.0924H72.9467V71.4254H40.7373V32.0924H46.4503V32.2776C46.4503 32.9679 47.01 33.5276 47.7003 33.5276H65.9837ZM15.0195 46.0454H16.2044V48.0355H15.0195V46.0454ZM11.3594 43.5454V35.0399H12.5197V38.2801C12.5197 38.9704 13.0794 39.5301 13.7697 39.5301H17.4545C18.1448 39.5301 18.7045 38.9704 18.7045 38.2801V35.0399H19.8648V43.5454H11.3594ZM15.0197 35.0399H16.2045V37.0301H15.0197V35.0399ZM22.3647 46.0454H23.525V49.2855C23.525 49.9759 24.0847 50.5355 24.775 50.5355H28.4598C29.1502 50.5355 29.7098 49.9759 29.7098 49.2855V46.0454H30.8702V54.5509H22.3647V46.0454ZM26.025 46.0454H27.2098V48.0355H26.025V46.0454ZM30.8702 43.5454H22.3648V35.0399H23.525V38.2801C23.525 38.9704 24.0847 39.5301 24.775 39.5301H28.4598C29.1502 39.5301 29.7098 38.9704 29.7098 38.2801V35.0399H30.8702V43.5454ZM26.025 35.0399H27.2098V37.0301H26.025V35.0399ZM15.0195 24.0348H16.2044V26.0249H15.0195V24.0348ZM12.5195 24.0348V27.2749C12.5195 27.9652 13.0792 28.5249 13.7695 28.5249H17.4544C18.1447 28.5249 18.7044 27.9652 18.7044 27.2749V24.0348H19.8647V32.5401H11.3594V24.0348H12.5195ZM19.8647 54.5509H11.3594V46.0454H12.5195V49.2855C12.5195 49.9759 13.0792 50.5355 13.7695 50.5355H17.4544C18.1447 50.5355 18.7044 49.9759 18.7044 49.2855V46.0454H19.8647V54.5509ZM33.3702 54.5509V46.0454H34.9341V54.5509H33.3702ZM76.25 73.6041C76.25 74.2243 75.7455 74.7287 75.1255 74.7287H38.5584C37.9384 74.7287 37.4341 74.2241 37.4341 73.6041V29.9137C37.4341 29.2937 37.9384 28.7891 38.5584 28.7891H46.4502V29.5924H39.4872C38.7969 29.5924 38.2372 30.1521 38.2372 30.8424V72.6754C38.2372 73.3657 38.7969 73.9254 39.4872 73.9254H74.1967C74.887 73.9254 75.4467 73.3657 75.4467 72.6754V30.8424C75.4467 30.1521 74.887 29.5924 74.1967 29.5924H67.2337V28.7891H75.1255C75.7455 28.7891 76.25 29.2937 76.25 29.9137V73.6041ZM56.1998 43.6198C56.1998 42.9295 56.7595 42.3698 57.4498 42.3698H68.6072C69.2975 42.3698 69.8572 42.9295 69.8572 43.6198C69.8572 44.3101 69.2975 44.8698 68.6072 44.8698H57.4498C56.7594 44.8698 56.1998 44.3101 56.1998 43.6198ZM56.1998 38.8715C56.1998 38.1812 56.7595 37.6215 57.4498 37.6215H68.6072C69.2975 37.6215 69.8572 38.1812 69.8572 38.8715C69.8572 39.5618 69.2975 40.1215 68.6072 40.1215H57.4498C56.7594 40.1215 56.1998 39.5618 56.1998 38.8715ZM56.1998 50.1024C56.1998 49.4121 56.7595 48.8524 57.4498 48.8524H68.6072C69.2975 48.8524 69.8572 49.4121 69.8572 50.1024C69.8572 50.7927 69.2975 51.3524 68.6072 51.3524H57.4498C56.7594 51.3524 56.1998 50.7927 56.1998 50.1024ZM56.1998 54.8509C56.1998 54.1605 56.7595 53.6009 57.4498 53.6009H68.6072C69.2975 53.6009 69.8572 54.1605 69.8572 54.8509C69.8572 55.5412 69.2975 56.1009 68.6072 56.1009H57.4498C56.7594 56.1009 56.1998 55.5412 56.1998 54.8509ZM56.1998 66.0815C56.1998 65.3912 56.7595 64.8315 57.4498 64.8315H68.6072C69.2975 64.8315 69.8572 65.3912 69.8572 66.0815C69.8572 66.7718 69.2975 67.3315 68.6072 67.3315H57.4498C56.7594 67.3315 56.1998 66.7718 56.1998 66.0815ZM56.1998 61.3334C56.1998 60.6431 56.7595 60.0834 57.4498 60.0834H68.6072C69.2975 60.0834 69.8572 60.6431 69.8572 61.3334C69.8572 62.0237 69.2975 62.5834 68.6072 62.5834H57.4498C56.7594 62.5834 56.1998 62.0237 56.1998 61.3334ZM43.8269 39.2435V43.2477C43.8269 44.6655 44.9803 45.8191 46.3981 45.8191H50.4023C51.8202 45.8191 52.9736 44.6655 52.9736 43.2477V39.2435C52.9736 37.8257 51.8202 36.6723 50.4023 36.6723H46.3981C44.9805 36.6723 43.8269 37.8257 43.8269 39.2435ZM50.4737 39.2435V43.2477C50.4737 43.2845 50.4391 43.3191 50.4025 43.3191H46.3983C46.3617 43.3191 46.327 43.2845 46.327 43.2477V39.2435C46.327 39.207 46.3617 39.1723 46.3983 39.1723H50.4025C50.4391 39.1723 50.4737 39.2068 50.4737 39.2435ZM50.4025 47.9032H46.3983C44.9805 47.9032 43.827 49.0566 43.827 50.4745V54.4787C43.827 55.8965 44.9805 57.0501 46.3983 57.0501H50.4025C51.8203 57.0501 52.9738 55.8965 52.9738 54.4787V50.4745C52.9738 49.0566 51.8202 47.9032 50.4025 47.9032ZM50.4737 54.4787C50.4737 54.5154 50.4391 54.5501 50.4025 54.5501H46.3983C46.3617 54.5501 46.327 54.5154 46.327 54.4787V50.4745C46.327 50.4379 46.3617 50.4032 46.3983 50.4032H50.4025C50.4391 50.4032 50.4737 50.4379 50.4737 50.4745V54.4787ZM50.4025 59.1341H46.3983C44.9805 59.1341 43.827 60.2876 43.827 61.7054V65.7098C43.827 67.1276 44.9805 68.281 46.3983 68.281H50.4025C51.8203 68.281 52.9738 67.1276 52.9738 65.7098V61.7054C52.9738 60.2874 51.8202 59.1341 50.4025 59.1341ZM50.4737 65.7098C50.4737 65.7463 50.4391 65.781 50.4025 65.781H46.3983C46.3617 65.781 46.327 65.7463 46.327 65.7098V61.7054C46.327 61.6688 46.3617 61.6341 46.3983 61.6341H50.4025C50.4391 61.6341 50.4737 61.6688 50.4737 61.7054V65.7098ZM57.9097 26.3263C57.9097 26.916 57.4317 27.3941 56.842 27.3941C56.2523 27.3941 55.7742 26.916 55.7742 26.3263C55.7742 25.7366 56.2522 25.2585 56.842 25.2585C57.4317 25.2585 57.9097 25.7365 57.9097 26.3263Z" fill="#172B4D"/>
</g>
</svg>
