<svg width="80" height="80" viewBox="0 0 80 80" fill="none" xmlns="http://www.w3.org/2000/svg">
<g clip-path="url(#clip0_213_2832)">
<g clip-path="url(#clip1_213_2832)">
<path d="M29 23.3563C35.1664 22.5009 40.6965 20.642 45 18V38C40.6965 35.358 35.1646 33.4991 29 32.6437V23.3563Z" fill="#FF5C35"/>
</g>
<path d="M74.3834 5.26953H7.08141C3.17672 5.26953 0 8.44609 0 12.3508V56.4794C0 60.3841 3.17672 63.5606 7.08141 63.5606H29.0244C29.2919 65.9517 29.1256 68.8123 28.5625 71.6067H19.7597C18.8967 71.6067 18.1972 72.3062 18.1972 73.1692C18.1972 74.0322 18.8967 74.7317 19.7597 74.7317H60.2412C61.1042 74.7317 61.8037 74.0322 61.8037 73.1692C61.8037 72.3062 61.1042 71.6067 60.2412 71.6067H51.3519C50.7384 68.7862 50.5408 65.9244 50.802 63.5606H72.9187C76.8234 63.5606 80.0002 60.3839 80.0002 56.4794V10.8869C80 7.78937 77.4805 5.26953 74.3834 5.26953ZM7.08141 8.39453H74.3834C75.7572 8.39453 76.875 9.51266 76.875 10.8869V49.458H3.125V12.3508C3.125 10.1694 4.89984 8.39453 7.08141 8.39453ZM48.162 71.6067H31.743C32.247 68.8301 32.3988 66.0064 32.1669 63.5606H47.6602C47.4358 65.9862 47.615 68.8098 48.162 71.6067ZM72.9186 60.4356H7.08141C4.89984 60.4356 3.125 58.6608 3.125 56.4794V52.583H76.875V56.4794C76.875 58.6608 75.1002 60.4356 72.9186 60.4356ZM60.2933 26.3603H64.3605C65.2234 26.3603 65.923 27.0598 65.923 27.9228C65.923 28.7858 65.2234 29.4853 64.3605 29.4853H60.2933C59.4303 29.4853 58.7308 28.7858 58.7308 27.9228C58.7308 27.0598 59.4303 26.3603 60.2933 26.3603ZM56.2477 22.5395C55.8161 21.7922 56.0722 20.8366 56.8195 20.4052L60.5352 18.26C61.2823 17.8284 62.2381 18.0844 62.6695 18.8319C63.1011 19.5792 62.845 20.5348 62.0977 20.9662L58.382 23.1114C58.1359 23.2534 57.8673 23.3211 57.6022 23.3211C57.0623 23.3211 56.537 23.0409 56.2477 22.5395ZM23.0003 35.5633C23.0003 35.5633 24.0444 43.5478 24.045 43.5531C24.2517 45.1337 25.8144 46.2364 27.3748 45.8987L29.2869 45.4845C30.7009 45.1783 31.6292 43.8648 31.4459 42.4295L30.5256 35.2209C36.173 36.0934 41.2245 38.0341 44.6459 40.6672C45.1389 42.5575 46.8605 43.9569 48.903 43.9569C51.3286 43.9569 53.3019 41.9836 53.3019 39.558V32.6948C55.572 32.2928 57.3022 30.3067 57.3022 27.9228C57.3022 25.5389 55.572 23.553 53.3019 23.1508V16.2877C53.3019 13.862 51.3286 11.8887 48.903 11.8887C46.8605 11.8887 45.1389 13.2881 44.6459 15.1784C41.0956 17.9106 35.7902 19.8973 29.8853 20.7187C29.6038 20.4445 29.2197 20.2748 28.7956 20.2748H23.2875C19.0705 20.2748 15.6395 23.7058 15.6395 27.9228C15.6395 32.0436 18.9159 35.4116 23.0003 35.5633ZM27.0933 42.7623L26.153 35.5706H27.42L28.3045 42.5L27.0933 42.7623ZM30.3581 23.8087C35.8094 23.0509 40.6994 21.4044 44.5041 19.0634V36.7822C40.6995 34.4412 35.8095 32.7945 30.3581 32.0367V23.8087ZM54.1772 27.9228C54.1772 28.5647 53.8237 29.1245 53.3019 29.4209V26.4247C53.8237 26.7211 54.1772 27.2809 54.1772 27.9228ZM47.6291 16.2877C47.6291 15.5852 48.2005 15.0137 48.903 15.0137C49.6055 15.0137 50.1769 15.5853 50.1769 16.2877V39.558C50.1769 40.2605 49.6053 40.8319 48.903 40.8319C48.2006 40.8319 47.6291 40.2605 47.6291 39.558V16.2877ZM23.2875 23.3998H27.2331V32.4456H23.2875C20.7936 32.4456 18.7645 30.4167 18.7645 27.9227C18.7645 25.4287 20.7934 23.3998 23.2875 23.3998ZM62.6695 37.0139C62.3802 37.5152 61.855 37.7955 61.315 37.7955C61.0498 37.7955 60.7812 37.7278 60.5352 37.5858L56.8195 35.4406C56.0722 35.0092 55.8161 34.0536 56.2477 33.3062C56.6792 32.5589 57.6348 32.3031 58.382 32.7344L62.0977 34.8795C62.845 35.3109 63.1011 36.2666 62.6695 37.0139Z" fill="#172B4D"/>
<path d="M60.4267 26.4141H64.6591C65.5566 26.4141 66.285 27.1231 66.285 27.9967C66.285 28.8703 65.5566 29.5794 64.6591 29.5794H60.4267C59.5292 29.5794 58.8008 28.8703 58.8008 27.9967C58.8008 27.1231 59.5292 26.4141 60.4267 26.4141Z" fill="#FF5C35"/>
<path d="M56.2179 22.547C55.7692 21.7905 56.0358 20.8219 56.813 20.3851L60.6795 18.2121C61.4567 17.7753 62.4518 18.0349 62.9005 18.7914C63.3493 19.5479 63.0826 20.5165 62.3054 20.9533L58.4389 23.1262C58.182 23.2703 57.904 23.3383 57.6276 23.3383C57.0667 23.3383 56.5187 23.055 56.2179 22.547Z" fill="#FF5C35"/>
<path d="M62.9005 37.2072C62.5997 37.7152 62.0534 37.9985 61.4908 37.9985C61.2144 37.9985 60.9348 37.9304 60.6795 37.7864L56.813 35.6134C56.0358 35.1766 55.7692 34.208 56.2179 33.4515C56.6667 32.695 57.6617 32.4355 58.4389 32.8723L62.3054 35.0452C63.0826 35.4821 63.3493 36.4506 62.9005 37.2072Z" fill="#FF5C35"/>
</g>
<defs>
<clipPath id="clip0_213_2832">
<rect width="80" height="80" fill="white"/>
</clipPath>
<clipPath id="clip1_213_2832">
<rect width="16" height="20" fill="white" transform="translate(29 18)"/>
</clipPath>
</defs>
</svg>
