<svg width="80" height="80" viewBox="0 0 80 80" fill="none" xmlns="http://www.w3.org/2000/svg">
<g id="revenue 2" clip-path="url(#clip0_213_1287)">
<path id="Vector" d="M17.7395 3C27.5365 3 35.479 10.9424 35.479 20.7395C35.479 30.5365 27.5365 38.479 17.7395 38.479C7.94245 38.479 0 30.5365 0 20.7395C0.0106586 10.946 7.946 3.01066 17.7395 3Z" fill="#FF5C35"/>
<rect id="Rectangle 13" x="12" y="56" width="10" height="20" fill="#FF5C35"/>
<rect id="Rectangle 14" x="50" y="46" width="10" height="29" fill="#FF5C35"/>
<path id="Vector_2" fill-rule="evenodd" clip-rule="evenodd" d="M77.057 11.5086C77.0031 12.1962 77.5169 12.7975 78.2045 12.8514C78.8922 12.9053 79.4934 12.3916 79.5473 11.7039L79.9953 6.21375C80.0014 6.13547 79.9997 6.05547 79.9905 5.97453C79.9123 5.28953 79.2936 4.79766 78.6086 4.87594L73.1381 5.52125C72.4531 5.59938 71.9613 6.21812 72.0395 6.90312C72.1177 7.58812 72.7364 8.08 73.4214 8.00172L75.4359 7.76406L61.1641 22.6041L46.2262 15.2359C45.7766 14.975 45.1927 15.0141 44.7788 15.3744L35.1038 23.8011C35.2897 22.7747 35.3872 21.718 35.3872 20.6387C35.3872 10.8827 27.45 2.94531 17.6938 2.94531C7.9375 2.94531 0 10.8825 0 20.6386C0 30.3947 7.93719 38.3319 17.6933 38.3319C24.6445 38.3319 30.6712 34.3019 33.5628 28.4562L45.7941 17.8033L60.8783 25.2436C61.3887 25.4955 61.9881 25.3658 62.3527 24.9645L77.2205 9.505L77.057 11.5086ZM17.6934 35.832C9.31578 35.832 2.5 29.0163 2.5 20.6386C2.5 12.2609 9.31578 5.44516 17.6933 5.44516C26.0709 5.44516 32.8867 12.2609 32.8867 20.6386C32.8867 29.0163 26.0711 35.832 17.6934 35.832ZM39.3127 37.7806H32.2388C30.688 37.7806 29.4263 39.0423 29.4263 40.5931V74.2408C29.4263 75.7916 30.688 77.0533 32.2388 77.0533H39.3127C40.8634 77.0533 42.1252 75.7916 42.1252 74.2408V40.5933C42.1252 39.0423 40.8634 37.7806 39.3127 37.7806ZM39.6252 74.2409C39.6252 74.4103 39.482 74.5534 39.3127 74.5534H32.2388C32.0694 74.5534 31.9263 74.4103 31.9263 74.2409V40.5933C31.9263 40.4239 32.0694 40.2808 32.2388 40.2808H39.3127C39.482 40.2808 39.6252 40.4239 39.6252 40.5933V74.2409ZM58.2503 44.7363H51.1764C49.6256 44.7363 48.3639 45.998 48.3639 47.5488V74.2409C48.3639 75.7917 49.6256 77.0534 51.1764 77.0534H58.2503C59.8011 77.0534 61.0628 75.7917 61.0628 74.2409V47.5488C61.0628 45.998 59.8011 44.7363 58.2503 44.7363ZM58.5628 74.2409C58.5628 74.4103 58.4197 74.5534 58.2503 74.5534H51.1764C51.007 74.5534 50.8639 74.4103 50.8639 74.2409V47.5488C50.8639 47.3794 51.007 47.2363 51.1764 47.2363H58.2503C58.4197 47.2363 58.5628 47.3794 58.5628 47.5488V74.2409ZM77.1875 24.4023H70.1136C68.5628 24.4023 67.3011 25.6641 67.3011 27.2148V74.2408C67.3011 75.7916 68.5628 77.0533 70.1136 77.0533H77.1875C78.7383 77.0533 80 75.7916 80 74.2408V27.2148C80 25.6641 78.7383 24.4023 77.1875 24.4023ZM77.5 74.2408C77.5 74.4101 77.3569 74.5533 77.1875 74.5533H70.1136C69.9442 74.5533 69.8011 74.4101 69.8011 74.2408V27.2148C69.8011 27.0455 69.9442 26.9023 70.1136 26.9023H77.1875C77.3569 26.9023 77.5 27.0455 77.5 27.2148V74.2408ZM20.3752 54.9875H13.3014C11.7506 54.9875 10.4889 56.2492 10.4889 57.8V74.2408C10.4889 75.7916 11.7506 77.0533 13.3014 77.0533H20.3752C21.9259 77.0533 23.1877 75.7916 23.1877 74.2408V57.8C23.1877 56.2492 21.9259 54.9875 20.3752 54.9875ZM20.6877 74.2408C20.6877 74.4101 20.5445 74.5533 20.3752 74.5533H13.3014C13.132 74.5533 12.9889 74.4101 12.9889 74.2408V57.8C12.9889 57.6306 13.132 57.4875 13.3014 57.4875H20.3752C20.5445 57.4875 20.6877 57.6306 20.6877 57.8V74.2408ZM24.1413 24.3459C24.3302 25.8798 23.7925 27.473 22.3814 28.5436C21.4097 29.2809 20.1609 29.7155 18.9434 29.8848V31.0439C18.9434 31.7342 18.3838 32.2939 17.6934 32.2939C17.0031 32.2939 16.4434 31.7342 16.4434 31.0439V29.8617C15.4331 29.698 14.4667 29.3405 13.6394 28.7894C12.4756 28.0142 11.5841 26.8711 11.2073 25.3595C11.0428 24.6908 11.4517 24.0153 12.1205 23.8508C12.7892 23.6862 13.4647 24.0952 13.6292 24.7639C13.8419 25.617 14.3506 26.2659 15.0164 26.7094C16.6538 27.7998 19.2948 27.7622 20.8775 26.5612C22.2733 25.5022 21.7614 23.5491 20.4078 22.7319C19.5869 22.2363 18.513 21.9747 17.5083 21.8098C16.2892 21.6097 14.9688 21.2472 13.897 20.5475C11.1333 18.7433 11.0506 14.7736 13.5742 12.7217C14.3497 12.0912 15.313 11.6584 16.3395 11.4517L16.4436 11.4316V10.2331C16.4436 9.54281 17.0033 8.98312 17.6936 8.98312C18.3839 8.98312 18.9436 9.54281 18.9436 10.2331V11.4125C19.1119 11.4416 19.2792 11.4772 19.445 11.5191C21.2217 11.9695 22.838 13.1377 23.6869 15.1597C23.9537 15.7961 23.6544 16.5284 23.018 16.7955C22.3816 17.0623 21.6492 16.763 21.3822 16.1266C20.7745 14.6781 19.282 13.8186 17.7225 13.8178C16.0602 13.8169 14.12 14.8156 14.212 16.7122C14.3011 18.5466 16.4366 19.107 17.9087 19.3487C19.1731 19.5562 20.5514 19.9016 21.6969 20.5931C23.1002 21.4405 23.9589 22.8656 24.1413 24.3459Z" fill="#172B4D"/>
</g>
<defs>
<clipPath id="clip0_213_1287">
<rect width="80" height="80" fill="white"/>
</clipPath>
</defs>
</svg>
