<svg width="80" height="80" viewBox="0 0 80 80" fill="none" xmlns="http://www.w3.org/2000/svg">
<g id="save-money 1">
<path id="Vector" d="M40.7395 20C50.5365 20 58.479 27.9424 58.479 37.7395C58.479 47.5365 50.5365 55.479 40.7395 55.479C30.9424 55.479 23 47.5365 23 37.7395C23.0107 27.946 30.946 20.0107 40.7395 20Z" fill="#FF5C35"/>
<path id="Vector_2" d="M41.045 43.6616C40.897 43.6295 40.7451 43.6237 40.5952 43.6462C39.0927 43.4713 37.9592 42.2 37.9566 40.6879C37.9566 39.9632 37.3691 39.3757 36.6444 39.3757C35.9197 39.3757 35.3322 39.9632 35.3322 40.6879C35.336 43.213 37.025 45.4249 39.4598 46.0931V47.4054C39.4598 48.1301 40.0474 48.7176 40.772 48.7176C41.4967 48.7176 42.0843 48.1301 42.0843 47.4054V46.1726C44.8945 45.5844 46.8046 42.967 46.5092 40.1112C46.2132 37.2555 43.8072 35.0853 40.9361 35.0846C39.2906 35.0846 37.9566 33.7506 37.9566 32.1052C37.9566 30.4598 39.2906 29.1258 40.9361 29.1258C42.5815 29.1258 43.9155 30.4598 43.9155 32.1052C43.9155 32.8299 44.503 33.4174 45.2277 33.4174C45.9524 33.4174 46.54 32.8299 46.54 32.1052C46.5361 29.4538 44.6786 27.167 42.0843 26.6198V25.4255C42.0843 24.7008 41.4967 24.1133 40.772 24.1133C40.0474 24.1133 39.4598 24.7008 39.4598 25.4255V26.6999C36.752 27.4394 35.0092 30.0683 35.3821 32.8504C35.7551 35.6325 38.129 37.7091 40.9361 37.7085C42.5597 37.7085 43.8841 39.0085 43.9136 40.6315C43.9437 42.2545 42.6673 43.6026 41.045 43.6616Z" fill="#172B4D"/>
<path id="Vector_3" d="M21.9062 36.4974C21.9062 47.0068 30.4255 55.526 40.9349 55.526C51.4443 55.526 59.9635 47.0068 59.9635 36.4974C59.9635 25.988 51.4443 17.4688 40.9349 17.4688C30.4306 17.4803 21.9184 25.9931 21.9062 36.4974ZM40.9349 20.0932C49.9949 20.0932 57.3391 27.4373 57.3391 36.4974C57.3391 45.5574 49.9949 52.9016 40.9349 52.9016C31.8748 52.9016 24.5307 45.5574 24.5307 36.4974C24.541 27.4418 31.8793 20.1035 40.9349 20.0932Z" fill="#172B4D"/>
<path id="Vector_4" d="M66.4331 58.7595L56.1537 63.6163C54.7345 60.9765 52.012 59.2965 49.0159 59.2119L39.5266 58.9511C38.0241 58.9082 36.5497 58.5276 35.2138 57.8375L34.2482 57.3371C29.3043 54.76 23.4114 54.7665 18.4726 57.3538L18.5328 55.1663C18.5527 54.4416 17.9818 53.838 17.2571 53.8182L6.85154 53.5318C6.12686 53.5119 5.52393 54.0828 5.50407 54.8075L4.8755 77.6421C4.85564 78.3668 5.42654 78.9703 6.15121 78.9902L16.5568 79.2766H16.5927C17.3039 79.2766 17.8857 78.7108 17.9049 78.0002L17.935 76.9078L20.6383 75.4604C21.6994 74.8895 22.9398 74.7536 24.0989 75.0817L40.2417 79.6123C40.2699 79.6207 40.298 79.6271 40.3269 79.6335C41.4937 79.8776 42.6829 80 43.8746 79.9994C46.3992 80.0006 48.8942 79.4566 51.1887 78.4033C51.245 78.3776 51.2995 78.3475 51.3514 78.3136L74.7569 63.1742C75.34 62.7968 75.5284 62.0311 75.1869 61.4263C73.4492 58.3431 69.5951 57.1686 66.4331 58.7595ZM7.53521 76.4029L8.09137 56.1915L15.8731 56.4055L15.317 76.6175L7.53521 76.4029ZM50.0065 76.0595C47.1559 77.3461 43.972 77.701 40.908 77.075L24.8089 72.5559C22.9968 72.044 21.0573 72.256 19.3997 73.1473L18.0183 73.8874L18.388 60.4492C22.7655 57.5376 28.3797 57.2384 33.0417 59.6675L34.0073 60.1679C35.695 61.0393 37.5563 61.5198 39.4548 61.5749L48.9448 61.8357C51.6103 61.9126 53.874 63.8105 54.4148 66.4221L40.2795 66.0319C39.5548 66.012 38.9519 66.5836 38.9314 67.3076C38.9115 68.0323 39.483 68.6359 40.2071 68.6557L55.8065 69.085H55.843C56.5536 69.0844 57.1347 68.5186 57.1539 67.8087C57.1699 67.2384 57.1277 66.6675 57.0271 66.1062L67.5704 61.1245C67.5807 61.12 67.5909 61.1149 67.6012 61.1098C69.0966 60.353 70.9048 60.6061 72.135 61.7447L50.0065 76.0595Z" fill="#172B4D"/>
<path id="Vector_5" d="M42.2495 13.7784V1.31223C42.2495 0.587556 41.6619 0 40.9372 0C40.2126 0 39.625 0.587556 39.625 1.31223V13.7784C39.625 14.5031 40.2126 15.0907 40.9372 15.0907C41.6619 15.0907 42.2495 14.5031 42.2495 13.7784Z" fill="#172B4D"/>
<path id="Vector_6" d="M52.0893 13.7798V7.87473C52.0893 7.15006 51.5017 6.5625 50.7771 6.5625C50.0524 6.5625 49.4648 7.15006 49.4648 7.87473V13.7798C49.4648 14.5044 50.0524 15.092 50.7771 15.092C51.5017 15.092 52.0893 14.5044 52.0893 13.7798Z" fill="#172B4D"/>
<path id="Vector_7" d="M32.4057 13.7798V7.87473C32.4057 7.15006 31.8182 6.5625 31.0935 6.5625C30.3688 6.5625 29.7812 7.15006 29.7812 7.87473V13.7798C29.7812 14.5044 30.3688 15.092 31.0935 15.092C31.8182 15.092 32.4057 14.5044 32.4057 13.7798Z" fill="#172B4D"/>
<g id="Layer 1">
<path id="Vector_8" d="M7.91083 55.9967L7.33203 76.9805L15.4108 77.2033L15.9896 56.2195L7.91083 55.9967Z" fill="#FF5C35"/>
</g>
</g>
</svg>
