<svg width="32" height="32" viewBox="0 0 32 32" fill="none" xmlns="http://www.w3.org/2000/svg">
<g id="Icon/bold/frame">
<g id="frame">
<path id="Vector" d="M16.0001 2.66797C12.5067 2.66797 9.66675 5.50797 9.66675 9.0013C9.66675 12.428 12.3467 15.2013 15.8401 15.3213C15.9467 15.308 16.0534 15.308 16.1334 15.3213C16.1601 15.3213 16.1734 15.3213 16.2001 15.3213C16.2134 15.3213 16.2134 15.3213 16.2267 15.3213C19.6401 15.2013 22.3201 12.428 22.3334 9.0013C22.3334 5.50797 19.4934 2.66797 16.0001 2.66797Z" fill="#8492AE"/>
<path id="Vector_2" d="M22.7733 18.8678C19.0533 16.3878 12.9866 16.3878 9.23995 18.8678C7.54661 20.0011 6.61328 21.5345 6.61328 23.1745C6.61328 24.8145 7.54661 26.3345 9.22661 27.4545C11.0933 28.7078 13.5466 29.3345 15.9999 29.3345C18.4533 29.3345 20.9066 28.7078 22.7733 27.4545C24.4533 26.3211 25.3866 24.8011 25.3866 23.1478C25.3733 21.5078 24.4533 19.9878 22.7733 18.8678Z" fill="#8492AE"/>
</g>
</g>
</svg>
