<?xml version="1.0" encoding="UTF-8"?>
<svg xmlns="http://www.w3.org/2000/svg" xmlns:xlink="http://www.w3.org/1999/xlink" width="18px" height="18px" viewBox="0 0 18 18" version="1.1">
<g id="surface1">
<path style="fill:none;stroke-width:2;stroke-linecap:round;stroke-linejoin:round;stroke:#0078D7;stroke-opacity:1;stroke-miterlimit:4;" d="M 22 11.083333 L 22 12 C 22 14.15625 21.302083 16.255208 20.010417 17.984375 C 18.71875 19.708333 16.901042 20.973958 14.833333 21.583333 C 12.765625 22.197917 10.557292 22.125 8.536458 21.375 C 6.510417 20.630208 4.786458 19.25 3.609375 17.4375 C 2.4375 15.630208 1.880208 13.489583 2.020833 11.338542 C 2.161458 9.1875 2.994792 7.140625 4.395833 5.5 C 5.796875 3.859375 7.692708 2.71875 9.796875 2.239583 C 11.901042 1.765625 14.098958 1.984375 16.067708 2.859375 " transform="matrix(0.75,0,0,0.75,0,0)"/>
<path style="fill:none;stroke-width:2;stroke-linecap:round;stroke-linejoin:round;stroke:#0078D7;stroke-opacity:1;stroke-miterlimit:4;" d="M 22 4 L 12 14.010417 L 9 11.010417 " transform="matrix(0.75,0,0,0.75,0,0)"/>
</g>
</svg>
