<svg width="101" height="100" viewBox="0 0 101 100" fill="none" xmlns="http://www.w3.org/2000/svg">
<path d="M50.1 100.001C75.6687 100.001 96.3963 79.2732 96.3963 53.7045C96.3963 28.1358 75.6687 7.4082 50.1 7.4082C24.5313 7.4082 3.80371 28.1358 3.80371 53.7045C3.80371 79.2732 24.5313 100.001 50.1 100.001Z" fill="#E7EFFF"/>
<path d="M75.1001 92.593H60.2852C59.303 92.593 58.3609 92.2028 57.6663 91.5082C56.9718 90.8137 56.5815 89.8716 56.5815 88.8893C56.5815 87.907 56.9718 86.965 57.6663 86.2704C58.3609 85.5758 59.303 85.1856 60.2852 85.1856H75.1001C76.0823 85.1856 77.0244 84.7954 77.719 84.1008C78.4136 83.4063 78.8038 82.4642 78.8038 81.4819V75.9264C78.8038 74.9441 79.194 74.002 79.8886 73.3074C80.5831 72.6129 81.5252 72.2227 82.5075 72.2227C83.4898 72.2227 84.4318 72.6129 85.1264 73.3074C85.821 74.002 86.2112 74.9441 86.2112 75.9264V81.4819C86.2112 84.4288 85.0405 87.2549 82.9568 89.3387C80.8731 91.4224 78.0469 92.593 75.1001 92.593Z" fill="#8FA2FF"/>
<path d="M82.5075 48.1491C81.5253 48.1491 80.5832 47.7589 79.8886 47.0643C79.194 46.3697 78.8038 45.4277 78.8038 44.4454V42.5935C78.8038 34.9808 75.7797 27.6799 70.3967 22.297C65.0137 16.914 57.7128 13.8898 50.1001 13.8898C42.4874 13.8898 35.1865 16.914 29.8035 22.297C24.4206 27.6799 21.3964 34.9808 21.3964 42.5935V44.4454C21.3964 45.4277 21.0062 46.3697 20.3116 47.0643C19.6171 47.7589 18.675 48.1491 17.6927 48.1491C16.7104 48.1491 15.7684 47.7589 15.0738 47.0643C14.3792 46.3697 13.989 45.4277 13.989 44.4454V42.5935C13.989 33.0163 17.7936 23.8313 24.5657 17.0591C31.3379 10.287 40.5229 6.48242 50.1001 6.48242C59.6774 6.48242 68.8624 10.287 75.6345 17.0591C82.4067 23.8313 86.2112 33.0163 86.2112 42.5935V44.4454C86.2112 45.4277 85.821 46.3697 85.1265 47.0643C84.4319 47.7589 83.4898 48.1491 82.5075 48.1491Z" fill="#8FA2FF"/>
<path d="M28.8039 39.8145H25.1002C23.0547 39.8145 21.3965 41.4727 21.3965 43.5182V76.8515C21.3965 78.897 23.0547 80.5552 25.1002 80.5552H28.8039C30.8494 80.5552 32.5076 78.897 32.5076 76.8515V43.5182C32.5076 41.4727 30.8494 39.8145 28.8039 39.8145Z" fill="#323FD4"/>
<path d="M15.8408 43.5176H21.3964V76.8509H15.8408C13.3851 76.8509 11.03 75.8754 9.29352 74.1389C7.55707 72.4025 6.58154 70.0474 6.58154 67.5917V52.7768C6.58154 50.3211 7.55707 47.966 9.29352 46.2296C11.03 44.4931 13.3851 43.5176 15.8408 43.5176Z" fill="#4E6AFF"/>
<path d="M71.3963 80.5547H75.1C77.1455 80.5547 78.8037 78.8965 78.8037 76.851V43.5177C78.8037 41.4722 77.1455 39.8139 75.1 39.8139H71.3963C69.3508 39.8139 67.6926 41.4722 67.6926 43.5177V76.851C67.6926 78.8965 69.3508 80.5547 71.3963 80.5547Z" fill="#323FD4"/>
<path d="M84.3594 76.8516H78.8038V43.5182H84.3594C86.8151 43.5182 89.1702 44.4938 90.9067 46.2302C92.6431 47.9667 93.6187 50.3218 93.6187 52.7775V67.5923C93.6187 70.048 92.6431 72.4031 90.9067 74.1396C89.1702 75.876 86.8151 76.8516 84.3594 76.8516Z" fill="#4E6AFF"/>
<path d="M72.3224 60.1846C72.3221 63.7074 71.4844 67.1796 69.8783 70.3148C68.2722 73.4501 65.9438 76.1587 63.085 78.2171C60.2262 80.2755 56.919 81.6247 53.4362 82.1536C49.9534 82.6824 46.3948 82.3757 43.0539 81.2587C42.4873 82.7106 41.5249 83.9745 40.2761 84.9068C40.0697 85.059 39.8253 85.151 39.5698 85.1727C39.3144 85.1945 39.0579 85.1451 38.8288 85.0301C38.5997 84.915 38.4069 84.7388 38.2717 84.521C38.1366 84.3031 38.0644 84.0521 38.0631 83.7957V78.8513C34.8223 76.763 32.1805 73.8674 30.3974 70.4491C28.6143 67.0308 27.7512 63.2074 27.8929 59.3547C28.0347 55.5019 29.1763 51.7522 31.2057 48.4742C33.2351 45.1961 36.0824 42.5024 39.4679 40.6578C42.8533 38.8132 46.6605 37.8811 50.5152 37.9531C54.3699 38.0251 58.1396 39.0987 61.4538 41.0685C64.768 43.0383 67.5128 45.8364 69.4183 49.188C71.3239 52.5396 72.3247 56.3292 72.3224 60.1846Z" fill="#FFA100"/>
<path d="M50.1001 70.37C49.609 70.37 49.138 70.1749 48.7907 69.8276C48.4434 69.4803 48.2483 69.0093 48.2483 68.5181C48.2712 67.0081 48.736 65.5379 49.585 64.289C50.4341 63.04 51.6303 62.0671 53.0261 61.4904C54.2523 60.9631 55.3133 60.1142 56.0968 59.0336C56.8803 57.953 57.3573 56.6807 57.4773 55.3513C57.5973 54.0219 57.3559 52.6848 56.7785 51.4813C56.2011 50.2779 55.3093 49.2528 54.1973 48.5144C53.0853 47.7761 51.7945 47.3519 50.4613 47.2868C49.128 47.2217 47.802 47.518 46.6234 48.1445C45.4447 48.771 44.4572 49.7043 43.7653 50.8458C43.0734 51.9873 42.7028 53.2945 42.6927 54.6292C42.6927 55.1204 42.4976 55.5914 42.1503 55.9387C41.803 56.286 41.332 56.4811 40.8409 56.4811C40.3497 56.4811 39.8787 56.286 39.5314 55.9387C39.1841 55.5914 38.989 55.1204 38.989 54.6292C38.9884 53.1432 39.2859 51.6722 39.8639 50.3032C40.4418 48.9342 41.2886 47.6951 42.3539 46.6591C43.4192 45.6231 44.6816 44.8113 46.0662 44.2718C47.4508 43.7323 48.9295 43.476 50.4149 43.5181C53.2411 43.6343 55.9202 44.809 57.9203 46.8091C59.9203 48.8092 61.0951 51.4883 61.2112 54.3144C61.277 56.5377 60.6707 58.7291 59.4714 60.6024C58.2721 62.4756 56.5357 63.9436 54.489 64.8144C53.7521 65.1025 53.1175 65.6032 52.6658 66.2527C52.214 66.9023 51.9656 67.6715 51.952 68.4626C51.9594 68.7104 51.917 68.9572 51.8273 69.1883C51.7376 69.4195 51.6023 69.6302 51.4296 69.8081C51.2569 69.986 51.0502 70.1274 50.8219 70.2239C50.5935 70.3204 50.3481 70.3701 50.1001 70.37Z" fill="white"/>
<path d="M50.1001 76.8521C49.7339 76.8521 49.3758 76.7435 49.0713 76.54C48.7668 76.3366 48.5294 76.0473 48.3893 75.709C48.2491 75.3706 48.2124 74.9982 48.2839 74.639C48.3553 74.2798 48.5317 73.9498 48.7907 73.6908C49.0497 73.4318 49.3796 73.2555 49.7389 73.184C50.0981 73.1126 50.4704 73.1492 50.8088 73.2894C51.1472 73.4296 51.4364 73.6669 51.6399 73.9715C51.8434 74.276 51.952 74.634 51.952 75.0003C51.952 75.4914 51.7569 75.9625 51.4096 76.3097C51.0623 76.657 50.5913 76.8521 50.1001 76.8521Z" fill="white"/>
<path d="M84.3594 69.4443C83.8683 69.4443 83.3973 69.2492 83.05 68.9019C82.7027 68.5546 82.5076 68.0836 82.5076 67.5924V52.7776C82.5076 52.2865 82.7027 51.8155 83.05 51.4682C83.3973 51.1209 83.8683 50.9258 84.3594 50.9258C84.8506 50.9258 85.3216 51.1209 85.6689 51.4682C86.0162 51.8155 86.2113 52.2865 86.2113 52.7776V67.5924C86.2113 68.0836 86.0162 68.5546 85.6689 68.9019C85.3216 69.2492 84.8506 69.4443 84.3594 69.4443Z" fill="#323FD4"/>
<path d="M15.8409 69.4443C15.3497 69.4443 14.8787 69.2492 14.5314 68.9019C14.1841 68.5546 13.989 68.0836 13.989 67.5924V52.7776C13.989 52.2865 14.1841 51.8155 14.5314 51.4682C14.8787 51.1209 15.3497 50.9258 15.8409 50.9258C16.332 50.9258 16.803 51.1209 17.1503 51.4682C17.4976 51.8155 17.6927 52.2865 17.6927 52.7776V67.5924C17.6927 68.0836 17.4976 68.5546 17.1503 68.9019C16.803 69.2492 16.332 69.4443 15.8409 69.4443Z" fill="#323FD4"/>
</svg>
