<svg width="92" height="92" viewBox="0 0 92 92" fill="none" xmlns="http://www.w3.org/2000/svg">
<g id="11. Accounting">
<path id="Vector" d="M46.2639 91.0907C71.3677 91.0907 91.7184 70.74 91.7184 45.6362C91.7184 20.5323 71.3677 0.181641 46.2639 0.181641C21.16 0.181641 0.809326 20.5323 0.809326 45.6362C0.809326 70.74 21.16 91.0907 46.2639 91.0907Z" fill="#E7EFFF"/>
<path id="Vector_2" d="M70.8092 52.908C76.8342 52.908 81.7183 48.0239 81.7183 41.9989C81.7183 35.974 76.8342 31.0898 70.8092 31.0898C64.7843 31.0898 59.9001 35.974 59.9001 41.9989C59.9001 48.0239 64.7843 52.908 70.8092 52.908Z" fill="#FFA100"/>
<path id="Vector_3" d="M71.2638 41.0902H70.3547C69.993 41.0902 69.6462 40.9465 69.3905 40.6908C69.1347 40.4351 68.9911 40.0882 68.9911 39.7266C68.9911 39.3649 69.1347 39.0181 69.3905 38.7623C69.6462 38.5066 69.993 38.3629 70.3547 38.3629H73.5365C73.7776 38.3629 74.0089 38.2671 74.1793 38.0967C74.3498 37.9262 74.4456 37.6949 74.4456 37.4538C74.4456 37.2127 74.3498 36.9815 74.1793 36.811C74.0089 36.6405 73.7776 36.5447 73.5365 36.5447H71.7183V35.6357C71.7183 35.3945 71.6226 35.1633 71.4521 34.9928C71.2816 34.8223 71.0504 34.7266 70.8092 34.7266C70.5681 34.7266 70.3369 34.8223 70.1664 34.9928C69.9959 35.1633 69.9002 35.3945 69.9002 35.6357V36.5447C69.0563 36.605 68.2709 36.9981 67.7168 37.6374C67.1628 38.2767 66.8853 39.11 66.9456 39.9538C67.0059 40.7977 67.3989 41.5831 68.0383 42.1372C68.6776 42.6912 69.5108 42.9687 70.3547 42.9084H71.2638C71.6255 42.9084 71.9723 43.052 72.228 43.3078C72.4838 43.5635 72.6274 43.9104 72.6274 44.272C72.6274 44.6337 72.4838 44.9805 72.228 45.2363C71.9723 45.492 71.6255 45.6357 71.2638 45.6357H68.082C67.8409 45.6357 67.6096 45.7314 67.4392 45.9019C67.2687 46.0724 67.1729 46.3036 67.1729 46.5447C67.1729 46.7858 67.2687 47.0171 67.4392 47.1876C67.6096 47.3581 67.8409 47.4538 68.082 47.4538H69.9002V48.3629C69.9002 48.604 69.9959 48.8353 70.1664 49.0058C70.3369 49.1762 70.5681 49.272 70.8092 49.272C71.0504 49.272 71.2816 49.1762 71.4521 49.0058C71.6226 48.8353 71.7183 48.604 71.7183 48.3629V47.4538C72.5622 47.3936 73.3476 47.0005 73.9017 46.3612C74.4557 45.7219 74.7332 44.8886 74.6729 44.0447C74.6126 43.2009 74.2196 42.4155 73.5802 41.8614C72.9409 41.3073 72.1077 41.0299 71.2638 41.0902Z" fill="white"/>
<path id="Vector_4" d="M58.0819 9.27308V71.0913C58.0819 72.0557 57.6988 72.9806 57.0169 73.6626C56.3349 74.3445 55.41 74.7276 54.4456 74.7276H11.3456C9.79819 72.8764 8.40275 70.9034 7.17285 68.8276V22.464C11.3727 15.372 17.4218 9.55544 24.6729 5.63672H54.4456C55.41 5.63672 56.3349 6.01984 57.0169 6.70179C57.6988 7.38374 58.0819 8.30866 58.0819 9.27308Z" fill="#7F96D1"/>
<path id="Vector_5" d="M65.3549 20.1809V78.3627C65.3549 79.3272 64.9718 80.2521 64.2898 80.9341C63.6079 81.616 62.6829 81.9991 61.7185 81.9991H18.9913C17.3898 80.7967 15.8712 79.4877 14.4458 78.0809V16.5446C14.4458 15.5801 14.8289 14.6552 15.5109 13.9733C16.1928 13.2913 17.1177 12.9082 18.0822 12.9082H58.0822L65.3549 20.1809Z" fill="#A5BCED"/>
<path id="Vector_6" d="M57.173 46.5449H22.6275C21.6234 46.5449 20.8093 47.3589 20.8093 48.3631V71.9995C20.8093 73.0036 21.6234 73.8176 22.6275 73.8176H57.173C58.1771 73.8176 58.9911 73.0036 58.9911 71.9995V48.3631C58.9911 47.3589 58.1771 46.5449 57.173 46.5449Z" fill="#8FA2FF"/>
<path id="Vector_7" d="M57.1729 45.6367H22.6274C21.9041 45.6367 21.2104 45.9241 20.6989 46.4355C20.1875 46.947 19.9001 47.6407 19.9001 48.364V72.0004C19.9001 72.7237 20.1875 73.4174 20.6989 73.9288C21.2104 74.4403 21.9041 74.7276 22.6274 74.7276H57.1729C57.8962 74.7276 58.5899 74.4403 59.1013 73.9288C59.6128 73.4174 59.9001 72.7237 59.9001 72.0004V48.364C59.9001 47.6407 59.6128 46.947 59.1013 46.4355C58.5899 45.9241 57.8962 45.6367 57.1729 45.6367ZM33.5365 58.364H58.082V62.0004H33.5365V58.364ZM31.7183 62.0004H21.7183V58.364H31.7183V62.0004ZM33.5365 56.5458V52.9094H58.082V56.5458H33.5365ZM31.7183 56.5458H21.7183V52.9094H31.7183V56.5458ZM21.7183 63.8185H31.7183V67.4549H21.7183V63.8185ZM33.5365 63.8185H58.082V67.4549H33.5365V63.8185ZM58.082 48.364V51.0913H33.5365V47.4549H57.1729C57.414 47.4549 57.6452 47.5507 57.8157 47.7212C57.9862 47.8917 58.082 48.1229 58.082 48.364ZM22.6274 47.4549H31.7183V51.0913H21.7183V48.364C21.7183 48.1229 21.8141 47.8917 21.9846 47.7212C22.1551 47.5507 22.3863 47.4549 22.6274 47.4549ZM21.7183 72.0004V69.2731H31.7183V72.9094H22.6274C22.3863 72.9094 22.1551 72.8137 21.9846 72.6432C21.8141 72.4727 21.7183 72.2415 21.7183 72.0004ZM57.1729 72.9094H33.5365V69.2731H58.082V72.0004C58.082 72.2415 57.9862 72.4727 57.8157 72.6432C57.6452 72.8137 57.414 72.9094 57.1729 72.9094Z" fill="#4E6AFF"/>
<path id="Vector_8" d="M65.3548 20.1809H59.9002C59.418 20.1809 58.9555 19.9894 58.6146 19.6484C58.2736 19.3074 58.082 18.845 58.082 18.3627V12.9082L65.3548 20.1809Z" fill="#4E6AFF"/>
<path id="Vector_9" d="M80.8094 51.0898H55.3549C53.3466 51.0898 51.7185 52.7179 51.7185 54.7262V87.4535C51.7185 89.4618 53.3466 91.0898 55.3549 91.0898H80.8094C82.8177 91.0898 84.4458 89.4618 84.4458 87.4535V54.7262C84.4458 52.7179 82.8177 51.0898 80.8094 51.0898Z" fill="#323FD4"/>
<path id="Vector_10" d="M56.2638 25.6365H36.2638C36.0227 25.6365 35.7915 25.5408 35.621 25.3703C35.4505 25.1998 35.3547 24.9686 35.3547 24.7275C35.3547 24.4863 35.4505 24.2551 35.621 24.0846C35.7915 23.9141 36.0227 23.8184 36.2638 23.8184H56.2638C56.5049 23.8184 56.7362 23.9141 56.9067 24.0846C57.0771 24.2551 57.1729 24.4863 57.1729 24.7275C57.1729 24.9686 57.0771 25.1998 56.9067 25.3703C56.7362 25.5408 56.5049 25.6365 56.2638 25.6365Z" fill="white"/>
<path id="Vector_11" d="M56.2638 31.0916H36.2638C36.0227 31.0916 35.7915 30.9958 35.621 30.8254C35.4505 30.6549 35.3547 30.4236 35.3547 30.1825C35.3547 29.9414 35.4505 29.7102 35.621 29.5397C35.7915 29.3692 36.0227 29.2734 36.2638 29.2734H56.2638C56.5049 29.2734 56.7362 29.3692 56.9067 29.5397C57.0771 29.7102 57.1729 29.9414 57.1729 30.1825C57.1729 30.4236 57.0771 30.6549 56.9067 30.8254C56.7362 30.9958 56.5049 31.0916 56.2638 31.0916Z" fill="white"/>
<path id="Vector_12" d="M56.2638 36.5447H36.2638C36.0227 36.5447 35.7915 36.449 35.621 36.2785C35.4505 36.108 35.3547 35.8768 35.3547 35.6357C35.3547 35.3945 35.4505 35.1633 35.621 34.9928C35.7915 34.8223 36.0227 34.7266 36.2638 34.7266H56.2638C56.5049 34.7266 56.7362 34.8223 56.9067 34.9928C57.0771 35.1633 57.1729 35.3945 57.1729 35.6357C57.1729 35.8768 57.0771 36.108 56.9067 36.2785C56.7362 36.449 56.5049 36.5447 56.2638 36.5447Z" fill="white"/>
<path id="Vector_13" d="M79.9002 54.7266H56.2638C55.7618 54.7266 55.3547 55.1336 55.3547 55.6357V64.7266C55.3547 65.2286 55.7618 65.6357 56.2638 65.6357H79.9002C80.4023 65.6357 80.8093 65.2286 80.8093 64.7266V55.6357C80.8093 55.1336 80.4023 54.7266 79.9002 54.7266Z" fill="white"/>
<g id="Group">
<path id="Vector_14" d="M60.8094 68.3633H57.173C56.6709 68.3633 56.2639 68.7703 56.2639 69.2724V71.0906C56.2639 71.5926 56.6709 71.9996 57.173 71.9996H60.8094C61.3114 71.9996 61.7185 71.5926 61.7185 71.0906V69.2724C61.7185 68.7703 61.3114 68.3633 60.8094 68.3633Z" fill="#4E6AFF"/>
<path id="Vector_15" d="M78.9913 68.3633H75.3549C74.8528 68.3633 74.4458 68.7703 74.4458 69.2724V71.0906C74.4458 71.5926 74.8528 71.9996 75.3549 71.9996H78.9913C79.4933 71.9996 79.9003 71.5926 79.9003 71.0906V69.2724C79.9003 68.7703 79.4933 68.3633 78.9913 68.3633Z" fill="#4E6AFF"/>
<path id="Vector_16" d="M69.9002 68.3633H66.2638C65.7618 68.3633 65.3547 68.7703 65.3547 69.2724V71.0906C65.3547 71.5926 65.7618 71.9996 66.2638 71.9996H69.9002C70.4023 71.9996 70.8093 71.5926 70.8093 71.0906V69.2724C70.8093 68.7703 70.4023 68.3633 69.9002 68.3633Z" fill="#4E6AFF"/>
<path id="Vector_17" d="M60.8094 75.6367H57.173C56.6709 75.6367 56.2639 76.0437 56.2639 76.5458V78.364C56.2639 78.8661 56.6709 79.2731 57.173 79.2731H60.8094C61.3114 79.2731 61.7185 78.8661 61.7185 78.364V76.5458C61.7185 76.0437 61.3114 75.6367 60.8094 75.6367Z" fill="#4E6AFF"/>
<path id="Vector_18" d="M69.9002 75.6367H66.2638C65.7618 75.6367 65.3547 76.0437 65.3547 76.5458V78.364C65.3547 78.8661 65.7618 79.2731 66.2638 79.2731H69.9002C70.4023 79.2731 70.8093 78.8661 70.8093 78.364V76.5458C70.8093 76.0437 70.4023 75.6367 69.9002 75.6367Z" fill="#4E6AFF"/>
<path id="Vector_19" d="M60.8094 82.9082H57.173C56.6709 82.9082 56.2639 83.3152 56.2639 83.8173V85.6355C56.2639 86.1376 56.6709 86.5446 57.173 86.5446H60.8094C61.3114 86.5446 61.7185 86.1376 61.7185 85.6355V83.8173C61.7185 83.3152 61.3114 82.9082 60.8094 82.9082Z" fill="#4E6AFF"/>
<path id="Vector_20" d="M69.9002 82.9082H66.2638C65.7618 82.9082 65.3547 83.3152 65.3547 83.8173V85.6355C65.3547 86.1376 65.7618 86.5446 66.2638 86.5446H69.9002C70.4023 86.5446 70.8093 86.1376 70.8093 85.6355V83.8173C70.8093 83.3152 70.4023 82.9082 69.9002 82.9082Z" fill="#4E6AFF"/>
</g>
<path id="Vector_21" d="M78.9913 75.6367H75.3549C74.8528 75.6367 74.4458 76.0437 74.4458 76.5458V85.6367C74.4458 86.1388 74.8528 86.5458 75.3549 86.5458H78.9913C79.4933 86.5458 79.9003 86.1388 79.9003 85.6367V76.5458C79.9003 76.0437 79.4933 75.6367 78.9913 75.6367Z" fill="#FF4D69"/>
<path id="Vector_22" d="M25.8092 27.4542H24.9001C24.5385 27.4542 24.1916 27.3105 23.9359 27.0548C23.6802 26.7991 23.5365 26.4522 23.5365 26.0906C23.5365 25.7289 23.6802 25.382 23.9359 25.1263C24.1916 24.8706 24.5385 24.7269 24.9001 24.7269H28.9911C29.4733 24.7269 29.9357 24.5354 30.2767 24.1944C30.6177 23.8534 30.8092 23.3909 30.8092 22.9087C30.8092 22.4265 30.6177 21.9641 30.2767 21.6231C29.9357 21.2821 29.4733 21.0906 28.9911 21.0906H27.1729V20.1815C27.1729 19.6993 26.9813 19.2368 26.6403 18.8958C26.2994 18.5548 25.8369 18.3633 25.3547 18.3633C24.8725 18.3633 24.41 18.5548 24.069 18.8958C23.7281 19.2368 23.5365 19.6993 23.5365 20.1815V21.2815C22.3766 21.6115 21.375 22.3497 20.7164 23.36C20.0578 24.3702 19.7865 25.5845 19.9526 26.779C20.1186 27.9735 20.7108 29.0678 21.62 29.8601C22.5292 30.6524 23.6942 31.0894 24.9001 31.0906H25.8092C26.1709 31.0906 26.5177 31.2342 26.7735 31.49C27.0292 31.7457 27.1729 32.0925 27.1729 32.4542C27.1729 32.8158 27.0292 33.1627 26.7735 33.4184C26.5177 33.6742 26.1709 33.8178 25.8092 33.8178H21.7183C21.2361 33.8178 20.7737 34.0094 20.4327 34.3504C20.0917 34.6913 19.9001 35.1538 19.9001 35.636C19.9001 36.1182 20.0917 36.5807 20.4327 36.9217C20.7737 37.2626 21.2361 37.4542 21.7183 37.4542H23.5365V38.3633C23.5365 38.8455 23.7281 39.308 24.069 39.6489C24.41 39.9899 24.8725 40.1815 25.3547 40.1815C25.8369 40.1815 26.2994 39.9899 26.6403 39.6489C26.9813 39.308 27.1729 38.8455 27.1729 38.3633V37.2633C28.3328 36.9332 29.3344 36.195 29.993 35.1848C30.6516 34.1745 30.9229 32.9602 30.7568 31.7657C30.5908 30.5712 29.9986 29.477 29.0894 28.6847C28.1802 27.8924 27.0152 27.4553 25.8092 27.4542Z" fill="white"/>
<path id="Vector_23" d="M60.8093 62.908H58.9911C58.75 62.908 58.5188 62.8122 58.3483 62.6418C58.1778 62.4713 58.082 62.24 58.082 61.9989C58.082 61.7578 58.1778 61.5266 58.3483 61.3561C58.5188 61.1856 58.75 61.0898 58.9911 61.0898H60.8093C61.0504 61.0898 61.2816 61.1856 61.4521 61.3561C61.6226 61.5266 61.7184 61.7578 61.7184 61.9989C61.7184 62.24 61.6226 62.4713 61.4521 62.6418C61.2816 62.8122 61.0504 62.908 60.8093 62.908Z" fill="#A5BCED"/>
<path id="Vector_24" d="M67.1731 62.908H65.3549C65.1138 62.908 64.8826 62.8122 64.7121 62.6418C64.5416 62.4713 64.4458 62.24 64.4458 61.9989C64.4458 61.7578 64.5416 61.5266 64.7121 61.3561C64.8826 61.1856 65.1138 61.0898 65.3549 61.0898H67.1731C67.4142 61.0898 67.6454 61.1856 67.8159 61.3561C67.9864 61.5266 68.0822 61.7578 68.0822 61.9989C68.0822 62.24 67.9864 62.4713 67.8159 62.6418C67.6454 62.8122 67.4142 62.908 67.1731 62.908Z" fill="#A5BCED"/>
</g>
</svg>
