<svg width="101" height="100" viewBox="0 0 101 100" fill="none" xmlns="http://www.w3.org/2000/svg">
<path d="M46.8637 99.0907C71.9676 99.0907 92.3183 78.74 92.3183 53.6362C92.3183 28.5323 71.9676 8.18164 46.8637 8.18164C21.7599 8.18164 1.40918 28.5323 1.40918 53.6362C1.40918 78.74 21.7599 99.0907 46.8637 99.0907Z" fill="#E7EFFF"/>
<path d="M37.7727 35.4537C47.3122 35.4537 55.0455 27.7204 55.0455 18.1809C55.0455 8.64147 47.3122 0.908203 37.7727 0.908203C28.2333 0.908203 20.5 8.64147 20.5 18.1809C20.5 27.7204 28.2333 35.4537 37.7727 35.4537Z" fill="#FFA100"/>
<path d="M45.7091 17.272L39.3455 6.3629C39.1856 6.08738 38.9562 5.85867 38.6802 5.69969C38.4042 5.54071 38.0913 5.45703 37.7727 5.45703C37.4542 5.45703 37.1413 5.54071 36.8652 5.69969C36.5892 5.85867 36.3598 6.08738 36.2 6.3629L29.8364 17.272C29.6768 17.5484 29.5928 17.8619 29.5928 18.1811C29.5928 18.5002 29.6768 18.8138 29.8364 19.0902L36.2 29.9993C36.3598 30.2748 36.5892 30.5035 36.8652 30.6625C37.1413 30.8215 37.4542 30.9051 37.7727 30.9051C38.0913 30.9051 38.4042 30.8215 38.6802 30.6625C38.9562 30.5035 39.1856 30.2748 39.3455 29.9993L45.7091 19.0902C45.8687 18.8138 45.9527 18.5002 45.9527 18.1811C45.9527 17.8619 45.8687 17.5484 45.7091 17.272ZM37.7727 10.9084L41.1545 16.7084L37.7727 17.272L34.3909 16.7084L37.7727 10.9084ZM37.7727 25.4538L34.8364 20.4174L37.4727 20.8538C37.8727 20.9265 37.8545 20.8538 40.7091 20.4174L37.7727 25.4538Z" fill="white"/>
<path d="M27.7727 91.8182C27.7727 93.8364 27.8545 94.1273 27.4091 94.7273C22.0826 92.1945 17.2974 88.6535 13.3182 84.3L12.3182 77.2727C11.836 77.2727 11.3735 77.0812 11.0325 76.7402C10.6916 76.3992 10.5 75.9368 10.5 75.4545V70H24.1364V90H25.9545C26.4368 90 26.8992 90.1916 27.2402 90.5325C27.5812 90.8735 27.7727 91.336 27.7727 91.8182Z" fill="#323FD4"/>
<path d="M24.1365 78.1816V89.9998H19.591C18.682 89.2998 17.7729 88.5544 16.8638 87.7726V79.9998C16.8638 79.5176 17.0553 79.0551 17.3963 78.7142C17.7373 78.3732 18.1997 78.1816 18.682 78.1816H24.1365Z" fill="#4E6AFF"/>
<path d="M24.1365 70.9082H31.4092V74.5446C31.4092 75.509 31.0261 76.4339 30.3441 77.1159C29.6622 77.7978 28.7373 78.1809 27.7728 78.1809H24.1365V70.9082Z" fill="#8FA2FF"/>
<path d="M74.1366 66.3635C79.1573 66.3635 83.2275 62.2933 83.2275 57.2725C83.2275 52.2518 79.1573 48.1816 74.1366 48.1816C69.1158 48.1816 65.0457 52.2518 65.0457 57.2725C65.0457 62.2933 69.1158 66.3635 74.1366 66.3635Z" fill="#323FD4"/>
<path d="M15.9545 57.2722C15.9488 58.8024 15.5568 60.3064 14.815 61.6449C14.0731 62.9833 13.0055 64.1128 11.7109 64.9287C10.4163 65.7446 8.93668 66.2206 7.40918 66.3124C5.88168 66.4042 4.35572 66.1089 2.97271 65.454C1.61255 60.3856 1.13588 55.1207 1.56362 49.8903C2.92179 48.9158 4.52237 48.3346 6.18941 48.2106C7.85645 48.0866 9.5254 48.4247 11.0128 49.1876C12.5002 49.9506 13.7484 51.1089 14.6202 52.5352C15.4921 53.9615 15.9537 55.6005 15.9545 57.2722Z" fill="#323FD4"/>
<path d="M13.2274 38.1816H16.8637C17.3459 38.1816 17.8084 38.3732 18.1494 38.7142C18.4903 39.0551 18.6819 39.5176 18.6819 39.9998V43.6362H11.4092V39.9998C11.4092 39.5176 11.6007 39.0551 11.9417 38.7142C12.2827 38.3732 12.7451 38.1816 13.2274 38.1816Z" fill="#323FD4"/>
<path d="M68.6818 33.6348C68.6818 83.0711 68.5909 80.8439 68.6818 80.9075C59.1492 74.3526 48.08 70.381 36.5546 69.3802L33.2273 69.0893V45.4529L36.5546 45.162C48.08 44.1613 59.1492 40.1897 68.6818 33.6348Z" fill="#8FA2FF"/>
<path d="M12.3183 41.8164H31.4092C32.1325 41.8164 32.8262 42.1037 33.3377 42.6152C33.8492 43.1267 34.1365 43.8204 34.1365 44.5437V69.9982C34.1365 70.7215 33.8492 71.4152 33.3377 71.9267C32.8262 72.4382 32.1325 72.7255 31.4092 72.7255H12.3183C10.8717 72.7255 9.48429 72.1508 8.46137 71.1279C7.43844 70.105 6.86377 68.7176 6.86377 67.271V47.271C6.86377 45.8243 7.43844 44.4369 8.46137 43.414C9.48429 42.3911 10.8717 41.8164 12.3183 41.8164Z" fill="#4E6AFF"/>
<path d="M70.5001 87.2715C69.5357 87.2715 68.6108 86.8884 67.9288 86.2064C67.2469 85.5245 66.8638 84.5995 66.8638 83.6351V30.9078C66.8638 29.9434 67.2469 29.0185 67.9288 28.3366C68.6108 27.6546 69.5357 27.2715 70.5001 27.2715C71.4646 27.2715 72.3895 27.6546 73.0714 28.3366C73.7534 29.0185 74.1365 29.9434 74.1365 30.9078V83.6351C74.1365 84.5995 73.7534 85.5245 73.0714 86.2064C72.3895 86.8884 71.4646 87.2715 70.5001 87.2715Z" fill="#4E6AFF"/>
<path d="M13.2274 55.4542C12.7451 55.4542 12.2827 55.2626 11.9417 54.9217C11.6007 54.5807 11.4092 54.1182 11.4092 53.636V48.1815C11.4092 47.6993 11.6007 47.2368 11.9417 46.8958C12.2827 46.5548 12.7451 46.3633 13.2274 46.3633C13.7096 46.3633 14.172 46.5548 14.513 46.8958C14.854 47.2368 15.0455 47.6993 15.0455 48.1815V53.636C15.0455 54.1182 14.854 54.5807 14.513 54.9217C14.172 55.2626 13.7096 55.4542 13.2274 55.4542Z" fill="#323FD4"/>
<path d="M20.5001 55.4542C20.0179 55.4542 19.5554 55.2626 19.2144 54.9217C18.8734 54.5807 18.6819 54.1182 18.6819 53.636V48.1815C18.6819 47.6993 18.8734 47.2368 19.2144 46.8958C19.5554 46.5548 20.0179 46.3633 20.5001 46.3633C20.9823 46.3633 21.4447 46.5548 21.7857 46.8958C22.1267 47.2368 22.3182 47.6993 22.3182 48.1815V53.636C22.3182 54.1182 22.1267 54.5807 21.7857 54.9217C21.4447 55.2626 20.9823 55.4542 20.5001 55.4542Z" fill="#323FD4"/>
<path d="M27.7728 55.4542C27.2906 55.4542 26.8281 55.2626 26.4871 54.9217C26.1461 54.5807 25.9546 54.1182 25.9546 53.636V48.1815C25.9546 47.6993 26.1461 47.2368 26.4871 46.8958C26.8281 46.5548 27.2906 46.3633 27.7728 46.3633C28.255 46.3633 28.7174 46.5548 29.0584 46.8958C29.3994 47.2368 29.591 47.6993 29.591 48.1815V53.636C29.591 54.1182 29.3994 54.5807 29.0584 54.9217C28.7174 55.2626 28.255 55.4542 27.7728 55.4542Z" fill="#323FD4"/>
<path d="M28.6819 63.6346H12.3183C12.0772 63.6346 11.8459 63.5388 11.6754 63.3683C11.505 63.1978 11.4092 62.9666 11.4092 62.7255C11.4092 62.4844 11.505 62.2532 11.6754 62.0827C11.8459 61.9122 12.0772 61.8164 12.3183 61.8164H28.6819C28.923 61.8164 29.1542 61.9122 29.3247 62.0827C29.4952 62.2532 29.591 62.4844 29.591 62.7255C29.591 62.9666 29.4952 63.1978 29.3247 63.3683C29.1542 63.5388 28.923 63.6346 28.6819 63.6346Z" fill="white"/>
<path d="M15.0456 65.4545C14.8045 65.4545 14.5732 65.3588 14.4027 65.1883C14.2323 65.0178 14.1365 64.7866 14.1365 64.5455V60.9091C14.1365 60.668 14.2323 60.4368 14.4027 60.2663C14.5732 60.0958 14.8045 60 15.0456 60C15.2867 60 15.5179 60.0958 15.6884 60.2663C15.8589 60.4368 15.9547 60.668 15.9547 60.9091V64.5455C15.9547 64.7866 15.8589 65.0178 15.6884 65.1883C15.5179 65.3588 15.2867 65.4545 15.0456 65.4545Z" fill="#323FD4"/>
<path d="M97.7729 59.0895H89.5911C89.1089 59.0895 88.6465 58.8979 88.3055 58.557C87.9645 58.216 87.7729 57.7535 87.7729 57.2713C87.7729 56.7891 87.9645 56.3266 88.3055 55.9857C88.6465 55.6447 89.1089 55.4531 89.5911 55.4531H97.7729C98.2552 55.4531 98.7176 55.6447 99.0586 55.9857C99.3996 56.3266 99.5911 56.7891 99.5911 57.2713C99.5911 57.7535 99.3996 58.216 99.0586 58.557C98.7176 58.8979 98.2552 59.0895 97.7729 59.0895Z" fill="#FFA100"/>
<path d="M89.591 48.1801C89.2193 48.1801 88.8566 48.0662 88.5516 47.8537C88.2466 47.6413 88.0141 47.3404 87.8853 46.9918C87.7565 46.6431 87.7377 46.2633 87.8314 45.9037C87.9251 45.544 88.1267 45.2216 88.4092 44.9801L94.7728 39.5255C95.1412 39.2782 95.5872 39.1741 96.0269 39.2328C96.4667 39.2915 96.8698 39.5089 97.1604 39.8442C97.4509 40.1795 97.6089 40.6094 97.6045 41.053C97.6001 41.4966 97.4336 41.9233 97.1365 42.2528L90.7729 47.7073C90.4487 48.0021 90.0291 48.17 89.591 48.1801Z" fill="#FFA100"/>
<path d="M95.9547 75.4523C95.5213 75.4523 95.1022 75.2976 94.7729 75.0159L88.4092 69.5614C88.1121 69.2319 87.9457 68.8052 87.9413 68.3616C87.9369 67.918 88.0948 67.4881 88.3854 67.1528C88.6759 66.8175 89.079 66.6001 89.5188 66.5414C89.9585 66.4827 90.4046 66.5868 90.7729 66.8341L97.1365 72.2886C97.4057 72.5331 97.5953 72.8526 97.681 73.206C97.7667 73.5593 97.7446 73.9302 97.6173 74.2708C97.4901 74.6114 97.2637 74.906 96.9673 75.1166C96.6709 75.3273 96.3182 75.4442 95.9547 75.4523Z" fill="#FFA100"/>
<path d="M53.2275 34.5447C59.2524 34.5447 64.1365 29.6606 64.1365 23.6357C64.1365 17.6107 59.2524 12.7266 53.2275 12.7266C47.2025 12.7266 42.3184 17.6107 42.3184 23.6357C42.3184 29.6606 47.2025 34.5447 53.2275 34.5447Z" fill="#00C99F"/>
<path d="M49.5909 28.1806C49.4103 28.1816 49.2335 28.1289 49.0831 28.029C48.9326 27.9292 48.8153 27.7869 48.746 27.6201C48.6768 27.4533 48.6588 27.2697 48.6943 27.0927C48.7298 26.9156 48.8172 26.7532 48.9454 26.626L56.2182 19.3533C56.3894 19.1821 56.6215 19.0859 56.8636 19.0859C57.1057 19.0859 57.3379 19.1821 57.5091 19.3533C57.6803 19.5245 57.7764 19.7567 57.7764 19.9987C57.7764 20.2408 57.6803 20.473 57.5091 20.6442L50.2363 27.9169C50.1514 28.0012 50.0507 28.0678 49.9399 28.1131C49.8291 28.1583 49.7105 28.1813 49.5909 28.1806Z" fill="white"/>
<path d="M49.5909 21.818C50.595 21.818 51.4091 21.004 51.4091 19.9998C51.4091 18.9957 50.595 18.1816 49.5909 18.1816C48.5867 18.1816 47.7727 18.9957 47.7727 19.9998C47.7727 21.004 48.5867 21.818 49.5909 21.818Z" fill="white"/>
<path d="M56.8638 29.0895C57.868 29.0895 58.682 28.2755 58.682 27.2713C58.682 26.2672 57.868 25.4531 56.8638 25.4531C55.8597 25.4531 55.0457 26.2672 55.0457 27.2713C55.0457 28.2755 55.8597 29.0895 56.8638 29.0895Z" fill="white"/>
</svg>
