<svg width="101" height="100" viewBox="0 0 101 100" fill="none" xmlns="http://www.w3.org/2000/svg">
<path d="M50.6999 96.2957C76.2686 96.2957 96.9962 75.5682 96.9962 49.9994C96.9962 24.4307 76.2686 3.70312 50.6999 3.70312C25.1311 3.70312 4.40356 24.4307 4.40356 49.9994C4.40356 75.5682 25.1311 96.2957 50.6999 96.2957Z" fill="#E7EFFF"/>
<path d="M71.0704 51.8513H52.5519V40.7402H48.8482V51.8513H30.3297C29.3474 51.8513 28.4053 52.2416 27.7108 52.9361C27.0162 53.6307 26.626 54.5728 26.626 55.5551V64.8143H30.3297V56.481C30.3297 56.2354 30.4272 55.9999 30.6009 55.8262C30.7745 55.6526 31.01 55.5551 31.2556 55.5551H70.1445C70.3901 55.5551 70.6256 55.6526 70.7992 55.8262C70.9729 55.9999 71.0704 56.2354 71.0704 56.481V64.8143H74.7741V55.5551C74.7741 54.5728 74.3839 53.6307 73.6893 52.9361C72.9948 52.2416 72.0527 51.8513 71.0704 51.8513Z" fill="#A5BCED"/>
<path d="M50.6999 45.371C60.9274 45.371 69.2184 37.08 69.2184 26.8525C69.2184 16.625 60.9274 8.33398 50.6999 8.33398C40.4724 8.33398 32.1814 16.625 32.1814 26.8525C32.1814 37.08 40.4724 45.371 50.6999 45.371Z" fill="#4E6AFF"/>
<path d="M64.3296 39.3803C62.5966 41.2684 60.4902 42.7759 58.144 43.8072C55.7977 44.8385 53.2628 45.371 50.6999 45.371C48.1371 45.371 45.6021 44.8385 43.2559 43.8072C40.9097 42.7759 38.8033 41.2684 37.0703 39.3803C37.3303 38.5405 37.7867 37.7748 38.4019 37.1468C39.017 36.5187 39.7731 36.0465 40.6073 35.7692L47.9222 33.334H53.4777L60.7925 35.7692C61.6268 36.0465 62.3828 36.5187 62.998 37.1468C63.6131 37.7748 64.0696 38.5405 64.3296 39.3803Z" fill="#323FD4"/>
<path d="M47.9221 33.334H53.4777V34.2599C53.4777 34.9966 53.185 35.7032 52.6641 36.2241C52.1431 36.745 51.4366 37.0377 50.6999 37.0377C49.9632 37.0377 49.2566 36.745 48.7357 36.2241C48.2148 35.7032 47.9221 34.9966 47.9221 34.2599V33.334Z" fill="#7F96D1"/>
<path d="M54.4036 26.8516H41.4407V19.4442C41.4407 18.4619 41.8309 17.5199 42.5255 16.8253C43.22 16.1307 44.1621 15.7405 45.1444 15.7405L45.911 14.9739C46.255 14.6298 46.6634 14.3569 47.1128 14.1707C47.5623 13.9845 48.044 13.8887 48.5305 13.8887H58.1073C58.5985 13.8887 59.0695 14.0838 59.4168 14.4311C59.7641 14.7784 59.9592 15.2494 59.9592 15.7405V21.2961C59.9592 22.7695 59.3739 24.1826 58.332 25.2245C57.2901 26.2663 55.8771 26.8516 54.4036 26.8516Z" fill="#7F96D1"/>
<path d="M50.7 35.1859C48.981 35.1859 47.3324 34.503 46.1169 33.2875C44.9014 32.072 44.2185 30.4234 44.2185 28.7044V22.8442C44.2185 22.1883 44.4791 21.5593 44.9429 21.0955C45.4067 20.6317 46.0357 20.3711 46.6917 20.3711C46.8939 20.3711 47.0954 20.396 47.2917 20.4452L47.6407 20.5322C49.6724 21.0398 51.7586 21.2966 53.8528 21.297H55.3296C55.8208 21.297 56.2918 21.4921 56.6391 21.8394C56.9864 22.1867 57.1815 22.6577 57.1815 23.1489V28.7044C57.1815 30.4234 56.4986 32.072 55.2831 33.2875C54.0676 34.503 52.419 35.1859 50.7 35.1859Z" fill="#A5BCED"/>
<path d="M42.3665 24.0742H44.2184V29.6298H42.3665C41.8754 29.6298 41.4043 29.4347 41.057 29.0874C40.7098 28.7401 40.5146 28.2691 40.5146 27.7779V25.9261C40.5146 25.4349 40.7098 24.9639 41.057 24.6166C41.4043 24.2693 41.8754 24.0742 42.3665 24.0742Z" fill="#A5BCED"/>
<path d="M59.0334 29.6289H57.1816V24.0734H59.0334C59.5245 24.0734 59.9956 24.2685 60.3429 24.6157C60.6902 24.963 60.8853 25.4341 60.8853 25.9252V27.7771C60.8853 28.2682 60.6902 28.7392 60.3429 29.0865C59.9956 29.4338 59.5245 29.6289 59.0334 29.6289Z" fill="#A5BCED"/>
<path d="M46.9962 77.7778C46.9999 81.175 46.0667 84.5075 44.2992 87.4087C42.5317 90.3099 39.9983 92.6675 36.9777 94.2222C25.823 90.7513 16.389 83.1988 10.561 73.0741C11.7 68.7161 14.3884 64.9227 18.1227 62.404C21.8571 59.8853 26.3814 58.814 30.8487 59.3907C35.316 59.9675 39.42 62.1526 42.3922 65.5371C45.3645 68.9216 47.0013 73.2734 46.9962 77.7778Z" fill="#4E6AFF"/>
<path d="M28.4778 64.8145C29.6937 64.8145 30.8977 65.054 32.0211 65.5193C33.1445 65.9846 34.1652 66.6666 35.025 67.5264C35.8848 68.3862 36.5669 69.407 37.0322 70.5303C37.4975 71.6537 37.737 72.8578 37.737 74.0737V77.7774H19.2185V74.0737C19.2185 71.618 20.194 69.2629 21.9305 67.5264C23.6669 65.79 26.0221 64.8145 28.4778 64.8145Z" fill="#7F96D1"/>
<path d="M42.1073 90.3061C40.6495 91.907 38.9189 93.2363 36.9961 94.232C36.9869 94.2227 36.9869 94.2227 36.9776 94.2227C31.2394 92.4438 25.9046 89.5594 21.2739 85.732L25.6999 84.2598H31.2554L38.5702 86.6949C39.4045 86.9722 40.1605 87.4445 40.7757 88.0725C41.3908 88.7006 41.8473 89.4663 42.1073 90.3061Z" fill="#323FD4"/>
<path d="M25.7 84.2598H31.2555V85.1857C31.2555 85.9224 30.9628 86.6289 30.4419 87.1499C29.921 87.6708 29.2144 87.9635 28.4777 87.9635C27.741 87.9635 27.0345 87.6708 26.5135 87.1499C25.9926 86.6289 25.7 85.9224 25.7 85.1857V84.2598Z" fill="#7F96D1"/>
<path d="M28.4778 86.1103C26.7588 86.1103 25.1102 85.4274 23.8947 84.2119C22.6792 82.9964 21.9963 81.3478 21.9963 79.6288V74.9992C21.9966 74.4033 22.2334 73.8318 22.6548 73.4104C23.0762 72.989 23.6476 72.7522 24.2436 72.752C24.5923 72.7521 24.9362 72.8332 25.2482 72.989C26.251 73.4903 27.3567 73.7513 28.4778 73.7513C29.5989 73.7513 30.7047 73.4903 31.7074 72.989C32.0194 72.8332 32.3634 72.7521 32.7121 72.752C33.308 72.7522 33.8795 72.989 34.3008 73.4104C34.7222 73.8318 34.9591 74.4033 34.9593 74.9992V79.6288C34.9593 81.3478 34.2764 82.9964 33.0609 84.2119C31.8454 85.4274 30.1968 86.1103 28.4778 86.1103Z" fill="#A5BCED"/>
<path d="M20.1443 75H21.9962V80.5556H20.1443C19.6532 80.5556 19.1822 80.3605 18.8349 80.0132C18.4876 79.6659 18.2925 79.1948 18.2925 78.7037V76.8519C18.2925 76.3607 18.4876 75.8897 18.8349 75.5424C19.1822 75.1951 19.6532 75 20.1443 75Z" fill="#A5BCED"/>
<path d="M36.811 80.5547H34.9591V74.9991H36.811C37.3021 74.9991 37.7732 75.1942 38.1204 75.5415C38.4677 75.8888 38.6628 76.3598 38.6628 76.851V78.7028C38.6628 79.194 38.4677 79.665 38.1204 80.0123C37.7732 80.3596 37.3021 80.5547 36.811 80.5547Z" fill="#A5BCED"/>
<path d="M90.8388 73.0748C85.0108 83.1995 75.5768 90.752 64.4221 94.2229C61.6807 92.8058 59.337 90.7261 57.6038 88.1728C55.8707 85.6194 54.8031 82.6734 54.4981 79.6026C54.1932 76.5317 54.6604 73.4333 55.8575 70.5889C57.0546 67.7446 58.9435 65.2445 61.3526 63.3159C63.7617 61.3872 66.6146 60.0912 69.652 59.5456C72.6893 59 75.8149 59.2221 78.7446 60.1918C81.6743 61.1614 84.3152 62.8478 86.4274 65.0977C88.5396 67.3477 90.0559 70.0897 90.8388 73.0748Z" fill="#4E6AFF"/>
<path d="M82.1814 74.0737V83.9256C81.5147 84.5552 80.8295 85.1478 80.1258 85.7311C79.1814 86.5089 78.1999 87.2589 77.1906 87.9626H63.6628V74.0737C63.6628 71.618 64.6384 69.2629 66.3748 67.5264C68.1113 65.79 70.4664 64.8145 72.9221 64.8145C75.3778 64.8145 77.7329 65.79 79.4694 67.5264C81.2058 69.2629 82.1814 71.618 82.1814 74.0737Z" fill="#7F96D1"/>
<path d="M80.1258 85.732C75.4952 89.5594 70.1604 92.4438 64.4221 94.2227C64.4129 94.2227 64.4129 94.2227 64.4036 94.232C62.4809 93.2363 60.7503 91.907 59.2925 90.3061C59.5524 89.4663 60.0089 88.7006 60.6241 88.0725C61.2392 87.4445 61.9953 86.9722 62.8295 86.6949L70.1443 84.2598H75.6999L80.1258 85.732Z" fill="#323FD4"/>
<path d="M70.1443 84.2598H75.6998V85.1857C75.6998 85.9224 75.4072 86.6289 74.8863 87.1499C74.3653 87.6708 73.6588 87.9635 72.9221 87.9635C72.1854 87.9635 71.4788 87.6708 70.9579 87.1499C70.4369 86.6289 70.1443 85.9224 70.1443 85.1857V84.2598Z" fill="#7F96D1"/>
<path d="M72.9222 86.1103C71.2032 86.1103 69.5546 85.4274 68.3391 84.2119C67.1235 82.9964 66.4407 81.3478 66.4407 79.6288V74.9992C66.4407 74.7536 66.5382 74.5181 66.7119 74.3444C66.8855 74.1708 67.121 74.0733 67.3666 74.0733H69.4036C71.7345 74.0734 74.0481 73.6731 76.2434 72.8899C76.499 72.7985 76.7684 72.7518 77.0397 72.752C77.667 72.7529 78.2683 73.0028 78.7115 73.4467C79.1547 73.8906 79.4036 74.4923 79.4036 75.1195V79.6288C79.4036 81.3478 78.7208 82.9964 77.5052 84.2119C76.2897 85.4274 74.6411 86.1103 72.9222 86.1103Z" fill="#A5BCED"/>
<path d="M64.5889 75H66.4408V80.5556H64.5889C64.0978 80.5556 63.6267 80.3605 63.2795 80.0132C62.9322 79.6659 62.7371 79.1948 62.7371 78.7037V76.8519C62.7371 76.3607 62.9322 75.8897 63.2795 75.5424C63.6267 75.1951 64.0978 75 64.5889 75Z" fill="#A5BCED"/>
<path d="M81.2556 80.5547H79.4037V74.9991H81.2556C81.7467 74.9991 82.2177 75.1942 82.565 75.5415C82.9123 75.8888 83.1074 76.3598 83.1074 76.851V78.7028C83.1074 79.194 82.9123 79.665 82.565 80.0123C82.2177 80.3596 81.7467 80.5547 81.2556 80.5547Z" fill="#A5BCED"/>
<path d="M50.6999 32.7893C50.4063 32.7898 50.1156 32.7323 49.8443 32.6202C49.5731 32.508 49.3267 32.3433 49.1193 32.1356C48.9506 31.961 48.8573 31.7271 48.8594 31.4843C48.8615 31.2415 48.9589 31.0093 49.1306 30.8376C49.3022 30.6659 49.5345 30.5686 49.7773 30.5664C50.02 30.5643 50.2539 30.6577 50.4286 30.8263C50.5007 30.8979 50.5982 30.9381 50.6999 30.9381C50.8015 30.9381 50.899 30.8979 50.9711 30.8263C51.1458 30.6577 51.3797 30.5643 51.6224 30.5664C51.8652 30.5686 52.0975 30.6659 52.2691 30.8376C52.4408 31.0093 52.5382 31.2415 52.5403 31.4843C52.5424 31.7271 52.4491 31.961 52.2804 32.1356C52.073 32.3433 51.8266 32.508 51.5554 32.6202C51.2841 32.7323 50.9934 32.7898 50.6999 32.7893Z" fill="#7F96D1"/>
<path d="M72.9222 83.7165C72.6291 83.7176 72.3386 83.6609 72.0674 83.5497C71.7962 83.4385 71.5496 83.2749 71.3416 83.0683C71.1678 82.8947 71.07 82.6591 71.0698 82.4134C71.0697 82.1677 71.1671 81.932 71.3407 81.7581C71.5143 81.5843 71.7499 81.4865 71.9956 81.4863C72.2413 81.4862 72.477 81.5836 72.6509 81.7572C72.6864 81.7931 72.7286 81.8216 72.7752 81.841C72.8218 81.8605 72.8717 81.8705 72.9222 81.8705C72.9727 81.8705 73.0226 81.8605 73.0692 81.841C73.1158 81.8216 73.158 81.7931 73.1935 81.7572C73.3674 81.5836 73.6031 81.4862 73.8488 81.4863C74.0945 81.4865 74.3301 81.5843 74.5037 81.7581C74.6773 81.932 74.7747 82.1677 74.7746 82.4134C74.7744 82.6591 74.6766 82.8947 74.5027 83.0683C74.2948 83.2749 74.0482 83.4385 73.777 83.5497C73.5058 83.6609 73.2153 83.7176 72.9222 83.7165Z" fill="#7F96D1"/>
<path d="M28.4778 83.3326C28.1842 83.3331 27.8935 83.2756 27.6223 83.1634C27.351 83.0513 27.1046 82.8866 26.8972 82.6789C26.8112 82.5929 26.7429 82.4908 26.6964 82.3785C26.6498 82.2661 26.6258 82.1457 26.6257 82.0241C26.6257 81.9025 26.6496 81.782 26.6961 81.6697C26.7426 81.5573 26.8108 81.4552 26.8968 81.3691C26.9827 81.2831 27.0848 81.2149 27.1971 81.1683C27.3095 81.1217 27.4299 81.0977 27.5515 81.0977C27.6731 81.0976 27.7936 81.1215 27.906 81.168C28.0183 81.2145 28.1204 81.2827 28.2065 81.3687C28.242 81.4046 28.2842 81.4331 28.3308 81.4525C28.3773 81.472 28.4273 81.482 28.4778 81.482C28.5282 81.482 28.5782 81.472 28.6248 81.4525C28.6713 81.4331 28.7136 81.4046 28.7491 81.3687C28.9228 81.1951 29.1584 81.0976 29.404 81.0977C29.6496 81.0977 29.8852 81.1954 30.0588 81.3691C30.2324 81.5429 30.3299 81.7785 30.3298 82.0241C30.3297 82.2697 30.2321 82.5052 30.0583 82.6789C29.8509 82.8866 29.6045 83.0513 29.3333 83.1634C29.062 83.2756 28.7713 83.3331 28.4778 83.3326Z" fill="#7F96D1"/>
<path d="M71.9962 22.2219C77.6213 22.2219 82.1814 17.6619 82.1814 12.0367C82.1814 6.41163 77.6213 1.85156 71.9962 1.85156C66.3711 1.85156 61.811 6.41163 61.811 12.0367C61.811 17.6619 66.3711 22.2219 71.9962 22.2219Z" fill="#FFA100"/>
<path d="M78.4593 10.3707L77.5334 15.0003C77.4907 15.2094 77.377 15.3974 77.2117 15.5324C77.0463 15.6674 76.8394 15.7411 76.626 15.741H67.3667C67.1532 15.7411 66.9463 15.6674 66.781 15.5324C66.6156 15.3974 66.502 15.2094 66.4593 15.0003L65.5334 10.3707C65.4918 10.1748 65.5148 9.97082 65.599 9.78919C65.6831 9.60755 65.8239 9.45808 66.0001 9.36318C66.1764 9.26827 66.3787 9.23304 66.5766 9.26277C66.7746 9.29249 66.9576 9.38557 67.0982 9.52806L68.9685 11.3984L71.1722 6.99102C71.2578 6.84896 71.3787 6.73144 71.5231 6.64985C71.6674 6.56826 71.8305 6.52539 71.9963 6.52539C72.1622 6.52539 72.3252 6.56826 72.4696 6.64985C72.614 6.73144 72.7348 6.84896 72.8204 6.99102L75.0241 11.3984L76.8945 9.52806C77.0351 9.38557 77.2181 9.29249 77.416 9.26277C77.614 9.23304 77.8163 9.26827 77.9925 9.36318C78.1688 9.45808 78.3095 9.60755 78.3937 9.78919C78.4778 9.97082 78.5008 10.1748 78.4593 10.3707Z" fill="white"/>
<path d="M29.4037 37.0371H16.4407C15.418 37.0371 14.5889 37.8662 14.5889 38.889C14.5889 39.9117 15.418 40.7408 16.4407 40.7408H29.4037C30.4264 40.7408 31.2555 39.9117 31.2555 38.889C31.2555 37.8662 30.4264 37.0371 29.4037 37.0371Z" fill="white"/>
<path d="M29.4036 44.4453H20.1443C19.1216 44.4453 18.2925 45.2744 18.2925 46.2972C18.2925 47.3199 19.1216 48.149 20.1443 48.149H29.4036C30.4263 48.149 31.2554 47.3199 31.2554 46.2972C31.2554 45.2744 30.4263 44.4453 29.4036 44.4453Z" fill="white"/>
<path d="M71.9962 40.7402H84.9592C85.9819 40.7402 86.811 39.9111 86.811 38.8884C86.811 37.8656 85.9819 37.0365 84.9592 37.0365H71.9962C70.9735 37.0365 70.1444 37.8656 70.1444 38.8884C70.1444 39.9111 70.9735 40.7402 71.9962 40.7402Z" fill="white"/>
<path d="M71.9963 48.1484H81.2556C82.2783 48.1484 83.1074 47.3193 83.1074 46.2966C83.1074 45.2738 82.2783 44.4447 81.2556 44.4447H71.9963C70.9736 44.4447 70.1445 45.2738 70.1445 46.2966C70.1445 47.3193 70.9736 48.1484 71.9963 48.1484Z" fill="white"/>
</svg>
