<svg width="92" height="95" viewBox="0 0 92 95" fill="none" xmlns="http://www.w3.org/2000/svg">
<g id="14. Cassier">
<path id="Vector" d="M45.9365 94.0907C71.0403 94.0907 91.391 73.74 91.391 48.6362C91.391 23.5323 71.0403 3.18164 45.9365 3.18164C20.8326 3.18164 0.481934 23.5323 0.481934 48.6362C0.481934 73.74 20.8326 94.0907 45.9365 94.0907Z" fill="#E7EFFF"/>
<path id="Vector_2" d="M87.7548 66.5191C83.9484 75.3831 77.426 82.8096 69.1275 87.7282H22.7639C14.4586 82.8125 7.92951 75.3857 4.11841 66.5191C4.19256 65.849 4.51232 65.2301 5.01597 64.7818C5.51962 64.3336 6.17146 64.0878 6.84568 64.0918H85.0275C85.7017 64.0878 86.3536 64.3336 86.8572 64.7818C87.3609 65.2301 87.6806 65.849 87.7548 66.5191Z" fill="#4E6AFF"/>
<path id="Vector_3" d="M85.0273 64.0907H6.84546L17.5455 36.0998C17.8748 35.241 18.4569 34.5022 19.2149 33.9812C19.9729 33.4602 20.8711 33.1814 21.7909 33.1816H70.0818C71.0016 33.1814 71.8999 33.4602 72.6579 33.9812C73.4159 34.5022 73.998 35.241 74.3273 36.0998L85.0273 64.0907Z" fill="#8FA2FF"/>
<path id="Vector_4" d="M39.1182 35.9102H23.6637C22.9106 35.9102 22.3 36.5207 22.3 37.2738V38.1829C22.3 38.936 22.9106 39.5465 23.6637 39.5465H39.1182C39.8713 39.5465 40.4819 38.936 40.4819 38.1829V37.2738C40.4819 36.5207 39.8713 35.9102 39.1182 35.9102Z" fill="#4E6AFF"/>
<path id="Vector_5" d="M73.2092 6.81836H45.9365C44.4303 6.81836 43.2092 8.0394 43.2092 9.54563V18.6365C43.2092 20.1428 44.4303 21.3638 45.9365 21.3638H73.2092C74.7155 21.3638 75.9365 20.1428 75.9365 18.6365V9.54563C75.9365 8.0394 74.7155 6.81836 73.2092 6.81836Z" fill="#323FD4"/>
<path id="Vector_6" d="M55.0273 21.3633H64.1183V22.2724C64.1183 22.5135 64.0225 22.7447 63.852 22.9152C63.6815 23.0857 63.4503 23.1815 63.2092 23.1815H55.9364C55.6953 23.1815 55.4641 23.0857 55.2936 22.9152C55.1231 22.7447 55.0273 22.5135 55.0273 22.2724V21.3633Z" fill="#4E6AFF"/>
<path id="Vector_7" d="M55.9364 31.3633H63.2092C63.4503 31.3633 63.6815 31.4591 63.852 31.6295C64.0225 31.8 64.1183 32.0313 64.1183 32.2724V33.1815H55.0273V32.2724C55.0273 32.0313 55.1231 31.8 55.2936 31.6295C55.4641 31.4591 55.6953 31.3633 55.9364 31.3633Z" fill="#4E6AFF"/>
<path id="Vector_8" d="M56.8455 23.1816H62.3V31.3635H56.8455V23.1816Z" fill="#323FD4"/>
<path id="Vector_9" d="M72.3002 9.54688H46.8456C46.3435 9.54688 45.9365 9.95389 45.9365 10.456V17.7287C45.9365 18.2308 46.3435 18.6378 46.8456 18.6378H72.3002C72.8022 18.6378 73.2092 18.2308 73.2092 17.7287V10.456C73.2092 9.95389 72.8022 9.54688 72.3002 9.54688Z" fill="white"/>
<path id="Vector_10" d="M51.3911 15H49.5729C49.0708 15 48.6638 15.407 48.6638 15.9091C48.6638 16.4112 49.0708 16.8182 49.5729 16.8182H51.3911C51.8932 16.8182 52.3002 16.4112 52.3002 15.9091C52.3002 15.407 51.8932 15 51.3911 15Z" fill="#A5BCED"/>
<path id="Vector_11" d="M56.8457 15H55.0275C54.5254 15 54.1184 15.407 54.1184 15.9091C54.1184 16.4112 54.5254 16.8182 55.0275 16.8182H56.8457C57.3478 16.8182 57.7548 16.4112 57.7548 15.9091C57.7548 15.407 57.3478 15 56.8457 15Z" fill="#A5BCED"/>
<path id="Vector_12" d="M62.3 15H60.4818C59.9798 15 59.5728 15.407 59.5728 15.9091C59.5728 16.4112 59.9798 16.8182 60.4818 16.8182H62.3C62.8021 16.8182 63.2091 16.4112 63.2091 15.9091C63.2091 15.407 62.8021 15 62.3 15Z" fill="#A5BCED"/>
<g id="Group">
<path id="Vector_13" d="M25.0275 43.1816H19.5729C19.0708 43.1816 18.6638 43.5887 18.6638 44.0907V45.9089C18.6638 46.411 19.0708 46.818 19.5729 46.818H25.0275C25.5295 46.818 25.9365 46.411 25.9365 45.9089V44.0907C25.9365 43.5887 25.5295 43.1816 25.0275 43.1816Z" fill="#4E6AFF"/>
<path id="Vector_14" d="M36.8456 43.1816H31.391C30.8889 43.1816 30.4819 43.5887 30.4819 44.0907V45.9089C30.4819 46.411 30.8889 46.818 31.391 46.818H36.8456C37.3476 46.818 37.7547 46.411 37.7547 45.9089V44.0907C37.7547 43.5887 37.3476 43.1816 36.8456 43.1816Z" fill="#4E6AFF"/>
<path id="Vector_15" d="M48.6639 43.1816H43.2094C42.7073 43.1816 42.3003 43.5887 42.3003 44.0907V45.9089C42.3003 46.411 42.7073 46.818 43.2094 46.818H48.6639C49.166 46.818 49.573 46.411 49.573 45.9089V44.0907C49.573 43.5887 49.166 43.1816 48.6639 43.1816Z" fill="#4E6AFF"/>
<path id="Vector_16" d="M25.0275 50.4551H19.5729C19.0708 50.4551 18.6638 50.8621 18.6638 51.3642V53.1824C18.6638 53.6844 19.0708 54.0914 19.5729 54.0914H25.0275C25.5295 54.0914 25.9365 53.6844 25.9365 53.1824V51.3642C25.9365 50.8621 25.5295 50.4551 25.0275 50.4551Z" fill="#4E6AFF"/>
<path id="Vector_17" d="M36.8456 50.4551H31.391C30.8889 50.4551 30.4819 50.8621 30.4819 51.3642V53.1824C30.4819 53.6844 30.8889 54.0914 31.391 54.0914H36.8456C37.3476 54.0914 37.7547 53.6844 37.7547 53.1824V51.3642C37.7547 50.8621 37.3476 50.4551 36.8456 50.4551Z" fill="#4E6AFF"/>
<path id="Vector_18" d="M48.6639 50.4551H43.2094C42.7073 50.4551 42.3003 50.8621 42.3003 51.3642V53.1824C42.3003 53.6844 42.7073 54.0914 43.2094 54.0914H48.6639C49.166 54.0914 49.573 53.6844 49.573 53.1824V51.3642C49.573 50.8621 49.166 50.4551 48.6639 50.4551Z" fill="#4E6AFF"/>
<path id="Vector_19" d="M25.0275 57.7266H19.5729C19.0708 57.7266 18.6638 58.1336 18.6638 58.6357V60.4538C18.6638 60.9559 19.0708 61.3629 19.5729 61.3629H25.0275C25.5295 61.3629 25.9365 60.9559 25.9365 60.4538V58.6357C25.9365 58.1336 25.5295 57.7266 25.0275 57.7266Z" fill="#4E6AFF"/>
<path id="Vector_20" d="M36.8456 57.7266H31.391C30.8889 57.7266 30.4819 58.1336 30.4819 58.6357V60.4538C30.4819 60.9559 30.8889 61.3629 31.391 61.3629H36.8456C37.3476 61.3629 37.7547 60.9559 37.7547 60.4538V58.6357C37.7547 58.1336 37.3476 57.7266 36.8456 57.7266Z" fill="#4E6AFF"/>
<path id="Vector_21" d="M48.6639 57.7266H43.2094C42.7073 57.7266 42.3003 58.1336 42.3003 58.6357V60.4538C42.3003 60.9559 42.7073 61.3629 43.2094 61.3629H48.6639C49.166 61.3629 49.573 60.9559 49.573 60.4538V58.6357C49.573 58.1336 49.166 57.7266 48.6639 57.7266Z" fill="#4E6AFF"/>
</g>
<path id="Vector_22" d="M70.4819 43.1816H56.8455C55.8414 43.1816 55.0273 43.9957 55.0273 44.9998V48.6362C55.0273 49.6403 55.8414 50.4544 56.8455 50.4544H70.4819C71.486 50.4544 72.3001 49.6403 72.3001 48.6362V44.9998C72.3001 43.9957 71.486 43.1816 70.4819 43.1816Z" fill="white"/>
<path id="Vector_23" d="M19.5729 27.7278C27.104 27.7278 33.2092 21.6226 33.2092 14.0914C33.2092 6.56029 27.104 0.455078 19.5729 0.455078C12.0417 0.455078 5.93652 6.56029 5.93652 14.0914C5.93652 21.6226 12.0417 27.7278 19.5729 27.7278Z" fill="#FFA100"/>
<path id="Vector_24" d="M20.4819 13.1829H18.6637C18.1815 13.1829 17.719 12.9913 17.3781 12.6503C17.0371 12.3094 16.8455 11.8469 16.8455 11.3647C16.8455 10.8825 17.0371 10.42 17.3781 10.0791C17.719 9.73808 18.1815 9.54652 18.6637 9.54652H23.2092C23.4503 9.54652 23.6815 9.45074 23.852 9.28025C24.0225 9.10977 24.1183 8.87853 24.1183 8.63743C24.1183 8.39632 24.0225 8.16509 23.852 7.9946C23.6815 7.82412 23.4503 7.72834 23.2092 7.72834H20.4819V6.81925C20.4819 6.57814 20.3861 6.34691 20.2156 6.17642C20.0451 6.00594 19.8139 5.91016 19.5728 5.91016C19.3317 5.91016 19.1005 6.00594 18.93 6.17642C18.7595 6.34691 18.6637 6.57814 18.6637 6.81925V7.72834C17.6993 7.72834 16.7744 8.11145 16.0924 8.7934C15.4105 9.47535 15.0273 10.4003 15.0273 11.3647C15.0273 12.3291 15.4105 13.254 16.0924 13.936C16.7744 14.6179 17.6993 15.0011 18.6637 15.0011H20.4819C20.9641 15.0011 21.4266 15.1926 21.7675 15.5336C22.1085 15.8746 22.3001 16.337 22.3001 16.8192C22.3001 17.3015 22.1085 17.7639 21.7675 18.1049C21.4266 18.4459 20.9641 18.6374 20.4819 18.6374H15.9364C15.6953 18.6374 15.4641 18.7332 15.2936 18.9037C15.1231 19.0742 15.0273 19.3054 15.0273 19.5465C15.0273 19.7876 15.1231 20.0189 15.2936 20.1893C15.4641 20.3598 15.6953 20.4556 15.9364 20.4556H18.6637V21.3647C18.6637 21.6058 18.7595 21.837 18.93 22.0075C19.1005 22.178 19.3317 22.2738 19.5728 22.2738C19.8139 22.2738 20.0451 22.178 20.2156 22.0075C20.3861 21.837 20.4819 21.6058 20.4819 21.3647V20.4556C21.4463 20.4556 22.3712 20.0725 23.0532 19.3905C23.7351 18.7086 24.1183 17.7837 24.1183 16.8192C24.1183 15.8548 23.7351 14.9299 23.0532 14.248C22.3712 13.566 21.4463 13.1829 20.4819 13.1829Z" fill="white"/>
<path id="Vector_25" d="M37.7546 24.091V36.8183C37.7546 37.0594 37.6588 37.2906 37.4884 37.4611C37.3179 37.6316 37.0866 37.7274 36.8455 37.7274H25.9364C25.6953 37.7274 25.4641 37.6316 25.2936 37.4611C25.1231 37.2906 25.0273 37.0594 25.0273 36.8183V24.091C25.028 23.9468 25.063 23.8048 25.1294 23.6767C25.1958 23.5487 25.2917 23.4383 25.4092 23.3546C25.5257 23.2702 25.6607 23.2146 25.8029 23.1924C25.9452 23.1703 26.0906 23.1823 26.2273 23.2274L31.391 25.0001L36.5546 23.2728C36.6913 23.2277 36.8368 23.2158 36.979 23.2379C37.1213 23.26 37.2562 23.3156 37.3728 23.4001C37.4843 23.4791 37.5765 23.5823 37.6426 23.7019C37.7087 23.8216 37.747 23.9545 37.7546 24.091Z" fill="white"/>
<path id="Vector_26" d="M55.9366 74.0918H35.9366C34.9324 74.0918 34.1184 74.9058 34.1184 75.91C34.1184 76.9141 34.9324 77.7282 35.9366 77.7282H55.9366C56.9407 77.7282 57.7548 76.9141 57.7548 75.91C57.7548 74.9058 56.9407 74.0918 55.9366 74.0918Z" fill="white"/>
</g>
</svg>
